<svg width="873" height="331" viewBox="0 0 873 331" fill="none" xmlns="http://www.w3.org/2000/svg">
<path d="M1 27.0001C19.5 21.5002 53.8336 1.29291 65.5 3.50028C77.1664 5.70765 81.5 15.8275 96.5 18C123.5 18 143.5 19.5 166.5 27C174.269 30.7063 180.5 40.0001 194 45.0001C207.5 50.0001 200 48.5001 214.5 55.5001C219.619 57.1091 228 56 233 55.5001C238 55.0002 253.633 59.5142 265.5 63.5C271.658 65.5538 275.583 67.4865 280 70.5C285 72.8277 286.908 73.9972 291.5 75.0001C298 77.0001 301.079 77.1397 306 77.1724C311.206 77.1067 313.903 77.434 318 79.1724C324.181 82.0839 326.695 84.247 331 88C337.531 93.5472 340.991 96.1544 345.5 101.172C350 105.5 353.495 106.363 359 108.672C365.357 110.577 369 110.5 373 112C377 113.5 387 121 395.5 124.172C410 129 413 132 420 135.172C422.803 136.777 432.365 139.648 435 140.672C436.331 141.19 440.471 142.318 441.5 142.5C445.39 143.361 448 143 451.5 143.5C455 144 461 147.5 468 150.172C470.509 151.13 475.5 152.5 488.5 154.172C498 156.5 519 165 538 176.172L552.5 187.172C552.5 187.172 561.5 195 567.5 197.672C573.5 200.345 581.5 200 585.26 201.829C589.02 203.658 608.389 215.809 613.841 218.177C625.5 225 633.111 228.511 645.081 232.693C649.748 233.859 650.5 234.172 659.5 236.172C668.5 238.172 693 255.172 710 258.672C727 262.172 730 257.5 737.5 262.5C745 267.5 754.5 274 765 280.672C770.566 284.357 776.294 288.487 786.5 291.172C796.706 293.858 819.5 304 828.5 309.172C847.309 318.218 856.821 322.309 872 328.172" stroke="black" stroke-width="5"/>
</svg>
