<svg
  width="1100"
  height="305"
  viewBox="0 0 1100 305"
  fill="none"
  xmlns="http://www.w3.org/2000/svg"
>
<g id="line-wrap">
<path
      id="line"
      d="M55.5 43.5C54.5 55 52.6 78.5 53 80.5C53.5 83 41.5 125.5 39.5 136.5C37.5 147.5 66.0996 142.165 75 143.5C85 145 85.5 147.677 91 147.5C106.5 147 122.5 144.5 127 144C130.6 143.6 151 132.5 156.5 129.5C162 126.5 174 124.5 176.5 124.5C179 124.5 192.5 123 204 121C215.5 119 231 113.5 240.5 108C250 102.5 284 109 295.5 110C307 111 335.5 100 345 96.5C354.5 93 373 79.8421 383.5 71C394 62.1579 397 63.5 407 61.5C417 59.5 472 55.5 481 55.5C490 55.5 565.5 58.5 577 56.5C586.167 55.3333 609.688 49.8487 632 47.5C641.5 46.5 668 50.5 695 49.5C722 48.5 732.5 47.5 746 49.5C759.5 51.5 821.5 66.5 831.5 70.5C841.5 74.5 843 91 854 94.5C865 98 884.5 92 889 100.5C893.5 109 906.5 105 915 112C923.5 119 929.5 153.5 942.5 163.5C955.5 173.5 958.5 184.5 985 204"
      stroke="transparent"
      stroke-width="3"
    />
</g>

<g id="car">
      <path
      d="M24.1893 0.993206C24.7277 1.31771 25.2718 1.6304 25.8102 1.9608C27.0489 2.716 28.2935 3.47119 29.5207 4.24409C29.839 4.44469 30.1632 4.52729 30.5279 4.53909C31.5988 4.57449 32.6697 4.59809 33.7348 4.66889C35.9113 4.81639 38.0589 5.15859 40.1602 5.77808C40.4727 5.87248 40.7448 6.03178 41.0169 6.19698C41.0342 6.25008 41.0111 6.29138 40.9706 6.32678C40.6117 6.47428 40.2528 6.32088 39.8939 6.30318C39.5118 6.27958 39.1356 6.22648 38.7535 6.19108C38.632 6.17928 38.5278 6.21468 38.4351 6.29138C38.0647 6.59818 37.6884 6.89908 37.289 7.17048C36.9185 7.34158 36.5191 7.34158 36.1313 7.38288C34.1689 7.58938 32.2124 7.80768 30.2442 7.99647C29.9201 8.02597 29.8622 8.09677 29.7869 8.41537C29.677 8.89327 29.7059 9.36527 29.7696 9.84317C29.6943 10.4568 29.6885 10.4686 29.0807 10.4686C28.033 10.4745 26.9795 10.5158 25.9317 10.4568C24.5482 10.386 23.159 10.4568 21.7755 10.3978C21.0345 10.3624 20.2936 10.3624 19.5527 10.3447C19.4253 10.3447 19.3037 10.3329 19.188 10.268C19.0664 10.1618 19.1011 10.0143 19.1011 9.88447C19.0954 8.84017 19.0722 7.80178 19.1069 6.75748C19.1417 5.84888 19.0143 4.96389 18.8059 4.08479C18.5512 2.9933 18.3428 1.8841 18.1113 0.786707C18.065 0.574308 17.9781 0.468108 17.7408 0.468108C16.5657 0.479908 15.3848 0.450409 14.2098 0.479909C13.1215 0.509409 12.039 0.586108 10.9565 0.674607C10.7713 0.686407 10.5919 0.674608 10.4066 0.698208C10.2851 0.715908 10.1867 0.763107 10.0998 0.839807C9.48045 1.06991 8.83212 1.14071 8.18379 1.2056C7.83069 1.17021 7.48337 1.2646 7.13606 1.2823C6.69612 1.3 6.25618 1.3649 5.81625 1.3708C5.46893 1.3767 5.15056 1.4475 4.86691 1.6599C4.50802 1.9254 4.09703 1.9962 3.67446 2.0257C3.57026 2.0316 3.46028 2.0552 3.38503 1.9431C3.65709 1.654 3.36187 1.5124 3.17664 1.31771C3.91758 1.12891 4.618 0.957806 5.31264 0.780807C5.78731 0.662808 6.26197 0.550708 6.72506 0.373709C7.15342 0.20851 7.6223 0.297009 8.07381 0.279309C10.8639 0.17901 13.6598 0.0846107 16.45 0.00791105C17.9955 -0.0392887 19.5295 0.13181 21.0577 0.33241C21.4803 0.385509 21.897 0.438609 22.3138 0.538909C22.9448 0.680508 23.5873 0.739508 24.1893 0.993206Z"
      fill="#DCE1E5"
    />
      <path
      d="M8.18956 1.06408C8.81473 1.02868 9.42832 0.881183 10.0419 0.763184C10.2445 0.898883 10.1693 1.10538 10.1461 1.27058C10.0593 1.84878 10.0535 2.43878 9.98982 3.01697C9.94351 3.41227 9.92614 3.81347 9.89141 4.21467C9.86826 4.44477 9.82774 4.68077 9.94351 4.90497C10.013 5.38286 9.93193 5.86076 9.92035 6.33866C9.92035 6.38586 9.90299 6.43306 9.8972 6.48616C9.83352 6.96996 9.9493 7.32395 10.3777 7.64255C11.298 8.32105 12.1837 9.05265 13.0752 9.77244C13.2835 9.94354 13.5035 10.0084 13.7698 10.0084C14.3776 10.0025 14.9854 10.0202 15.5932 10.0025C16.6467 9.97304 17.6945 10.091 18.7422 10.0674C18.8869 10.0615 19.0374 10.0615 19.1301 10.2149C19.2053 10.8816 19.159 11.5483 19.1532 12.2091C19.1532 12.4156 18.9853 12.451 18.8175 12.451C18.2907 12.4451 17.7582 12.5218 17.2314 12.5159C16.01 12.4982 14.7886 12.6162 13.5672 12.5867C13.3935 12.5808 13.1909 12.5631 13.1157 12.7991C13.1041 12.8935 13.0867 12.9879 12.9883 13.0351C12.8262 13.4186 12.6352 13.4304 12.1837 13.0882C12.0564 12.9702 12.0737 12.7991 12.0332 12.6516C12.0274 12.5631 12.0043 12.4746 11.9811 12.3861C11.9753 12.3153 11.9637 12.2386 11.9406 12.1678C11.848 11.5188 11.7206 10.8816 11.408 10.2975C11.2054 9.91994 10.9276 9.61315 10.5687 9.38895C10.505 9.31815 10.424 9.25915 10.3371 9.21785C10.2561 9.18835 10.1751 9.16475 10.1114 9.09395C9.87405 8.92285 9.60198 8.85205 9.31255 8.82255C9.09258 8.79895 8.88419 8.72225 8.6758 8.66325C8.37479 8.58065 8.06221 8.55705 7.74962 8.54525C7.5586 8.42725 7.33863 8.43905 7.13024 8.42725C6.11144 8.38595 5.11001 8.21485 4.097 8.12045C3.44867 8.06145 2.80035 7.97295 2.15202 7.90215C2.00731 7.88445 1.86838 7.85495 1.72945 7.81365C1.56737 7.72515 1.56737 7.58945 1.63104 7.43605C2.00152 6.53336 2.31989 5.60706 2.7714 4.73977C2.81192 4.59227 2.93348 4.52737 3.04347 4.45067C4.56009 3.40637 6.07092 2.36208 7.59333 1.33548C7.78435 1.23518 7.99274 1.15848 8.18956 1.06408Z"
      fill="#9A9EA1"
    />
      <path
      d="M1.70632 7.73122C2.48778 7.81382 3.27504 7.90231 4.0565 7.98491C4.86112 8.07341 5.65995 8.16781 6.46457 8.25631C6.87556 8.30351 7.28655 8.33891 7.69755 8.38021C7.76122 8.38611 7.81332 8.40381 7.79016 8.48641C7.76701 8.55721 7.70912 8.57491 7.64545 8.58671C7.40233 8.65161 7.14763 8.63391 6.91608 8.75191C6.83504 8.76371 6.754 8.78731 6.67875 8.81681C6.61507 8.83451 6.55719 8.85811 6.49351 8.88171C6.44142 8.89351 6.4009 8.92301 6.3488 8.94071C6.12883 9.01151 5.93202 9.12951 5.7352 9.25341C5.71784 9.27111 5.69468 9.28291 5.67153 9.29471C5.56154 9.35961 5.45735 9.42451 5.3821 9.53071C5.35894 9.56021 5.33579 9.59561 5.31842 9.62511C5.28948 9.66641 5.26054 9.71361 5.22002 9.74901C5.04057 9.90241 4.94795 10.1089 4.87849 10.3331C4.84954 10.5101 4.75114 10.6694 4.73377 10.8464C4.57748 11.1473 4.62958 11.4895 4.57169 11.8081C4.54853 11.9379 4.52538 12.0618 4.38067 12.109C4.06808 12.2152 3.77286 12.0854 3.47185 12.0441C2.48778 11.9143 1.50372 11.7963 0.525441 11.6429C0.398092 11.6252 0.270742 11.6134 0.212856 11.4718C0.189701 11.3951 0.183912 11.3125 0.149181 11.2476C-0.0360553 10.8936 -0.0649981 10.5632 0.15497 10.1974C0.282319 9.99091 0.230222 9.71951 0.253376 9.47761C0.293896 9.07051 0.305474 8.65751 0.328628 8.24451C0.369149 8.17961 0.398092 8.09112 0.473344 8.06752C0.872759 7.93182 1.25481 7.70762 1.70632 7.73122Z"
      fill="#ADB0B3"
    />
      <path
      d="M11.7843 13.153C11.4543 13.5129 11.408 14.0144 11.1475 14.4156C9.9493 16.2505 7.51229 16.5455 5.95515 15.0174C5.55573 14.628 5.24315 14.156 5.1158 13.5955C5.05791 13.3595 4.94793 13.2179 4.72796 13.1589C4.62955 13.0763 4.5543 12.976 4.54851 12.8403C4.51957 12.3211 4.54272 11.8137 4.75111 11.3181C4.94793 10.852 5.1158 10.38 5.46311 9.99062C5.97251 9.42422 6.58032 9.05843 7.30969 8.85783C7.79593 8.72213 8.28796 8.82833 8.76842 8.72803C8.97102 8.77523 9.17362 8.81653 9.37044 8.86963C9.67723 9.07023 10.0419 9.15283 10.3429 9.37112C11.3444 10.0968 11.929 11.0526 11.929 12.3329C11.929 12.5099 11.9232 12.6869 11.929 12.8639C11.9348 12.9878 11.8943 13.0881 11.7843 13.153Z"
      fill="#464A4A"
    />
      <path
      d="M38.8693 12.4452C38.3599 12.4393 38.3599 12.4393 38.2152 12.9467C37.6074 15.1061 34.9562 15.9911 33.1733 14.6341C32.6292 14.2211 32.2703 13.6783 32.0387 13.0352C31.9751 12.8582 31.8882 12.7461 31.6972 12.7343C31.5583 12.634 31.5351 12.4688 31.5178 12.3154C31.4657 11.7844 31.5178 11.2593 31.6741 10.746C32.0908 9.39494 32.9881 8.53944 34.3252 8.18544C34.9099 8.03204 35.5003 8.08514 36.0908 8.20904C37.2022 8.43914 37.9547 9.12354 38.4931 10.1029C38.5452 10.1973 38.5915 10.2917 38.6436 10.3861C38.6551 10.4156 38.6667 10.4451 38.6783 10.4687C38.7535 10.7637 38.8809 11.041 38.933 11.336C38.9272 11.4127 38.9388 11.4894 38.9851 11.5543C39.1009 11.8788 39.1124 12.1797 38.8693 12.4452Z"
      fill="#464A4A"
    />
      <path
      d="M12.9999 12.8167C12.9478 12.5453 13.0636 12.4686 13.3241 12.4627C15.1417 12.4273 16.9594 12.3742 18.777 12.3447C19.0143 12.3388 19.0896 12.2798 19.0838 12.032C19.0664 11.4243 19.0722 10.8166 19.0722 10.2089C18.9159 10.0732 18.9449 9.89027 18.9449 9.71327C18.9391 8.50378 18.9449 7.30018 18.9449 6.09069C18.9449 5.98449 18.9449 5.87239 18.9449 5.76619C18.9391 5.27649 18.8928 5.21749 18.4181 5.21749C17.8392 5.21159 17.2604 5.23519 16.6873 5.21159C15.188 5.14669 13.683 5.18209 12.1837 5.14079C11.547 5.12309 10.916 5.10539 10.2793 5.09359C10.1346 5.08769 9.98406 5.09949 9.87987 4.96379C9.75831 4.95789 9.67148 4.98149 9.70042 4.76319C9.80462 3.9608 9.8625 3.1525 9.93197 2.3442C9.97827 1.81911 10.013 1.29401 10.0477 0.768912C10.0709 0.609613 10.1867 0.609613 10.3082 0.603713C12.8263 0.403114 15.3501 0.338214 17.8797 0.344114C18.0534 0.344114 18.1287 0.385414 18.1692 0.574213C18.447 1.90761 18.7075 3.2469 19.0433 4.5626C19.188 5.12899 19.1996 5.68949 19.1996 6.25589C19.2053 7.57158 19.2053 8.88728 19.2111 10.2089C19.3327 10.321 19.3327 10.4685 19.3385 10.616C19.3443 11.0113 19.3327 11.4007 19.3443 11.796C19.3501 12.1146 19.4369 12.209 19.7495 12.1913C21.3356 12.1205 22.9274 12.1146 24.5135 12.0615C25.1676 12.0438 25.8217 12.0497 26.4759 12.0143C27.2052 11.9789 27.9404 11.9612 28.6697 11.9317C28.8897 11.914 29.1039 12.0025 29.3181 11.9435C29.648 11.7724 29.8738 12.0025 30.1111 12.1618C30.3253 12.3034 30.36 12.5158 30.2558 12.74C30.1979 12.7223 30.1401 12.7046 30.0822 12.681C29.2891 12.6102 28.4903 12.6161 27.6915 12.6515C26.5048 12.6987 25.3239 12.6574 24.143 12.7164C23.2284 12.7636 22.3138 12.7105 21.3992 12.7695C20.3515 12.8344 19.298 12.7695 18.2502 12.8344C17.3067 12.8934 16.3631 12.8403 15.4196 12.8875C14.7539 12.9229 14.094 12.9465 13.4283 12.9347C13.2778 12.9406 13.1157 12.9524 12.9999 12.8167Z"
      fill="#474A4A"
    />
      <path
      d="M8.18963 1.06396C8.12016 1.20556 7.97545 1.25276 7.85968 1.33536C6.28517 2.42096 4.71067 3.50065 3.13037 4.58035C3.03775 4.64525 2.94514 4.72195 2.85831 4.79275C2.75411 4.88125 2.64413 4.91075 2.51099 4.87535C2.28523 4.82225 2.05948 4.79275 1.83951 4.73375C1.5385 4.65705 1.44588 4.49185 1.56744 4.19095C1.70637 3.84875 1.86266 3.51245 2.12315 3.24105C2.44153 2.89296 2.75411 2.54486 3.07248 2.19676C3.17089 2.09056 3.25193 1.96666 3.40244 1.93126C3.55294 1.90766 3.69766 1.87816 3.84816 1.86046C4.27073 1.82506 4.64699 1.66576 4.98273 1.40616C5.14481 1.28226 5.33005 1.24686 5.52107 1.23506C6.40673 1.18786 7.29818 1.12886 8.18963 1.06396Z"
      fill="#464A4A"
    />
      <path
      d="M12.9999 12.8168C17.2893 12.7342 21.5729 12.6516 25.8623 12.569C27.1357 12.5454 28.4035 12.5218 29.677 12.4864C29.868 12.4805 29.9895 12.5218 30.0764 12.6929C30.0474 12.9466 29.8622 12.923 29.6885 12.9289C28.5308 12.9643 27.3789 12.9997 26.2211 13.0292C22.2617 13.1295 18.3023 13.2357 14.3487 13.336C14.0592 13.3419 13.7698 13.336 13.4804 13.336C13.382 13.2947 13.272 13.3183 13.1678 13.3124C13.081 13.3124 13.0173 13.2888 13.0057 13.1885C12.9999 13.1413 12.9999 13.0941 12.9941 13.0469C12.9941 12.9702 12.9999 12.8935 12.9999 12.8168Z"
      fill="#D5D9DD"
    />
      <path
      d="M38.8751 11.5718C38.7999 11.5305 38.8288 11.4479 38.8115 11.3889C38.7883 11.0349 38.7246 10.6868 38.6378 10.3446C38.6204 10.3033 38.6146 10.262 38.6031 10.2148C38.5741 10.1263 38.551 10.0378 38.5104 9.94931C38.5047 9.92571 38.4989 9.90211 38.4931 9.87261C38.4757 9.79591 38.441 9.73101 38.4062 9.66611C38.3947 9.64251 38.3889 9.61892 38.3831 9.59532C38.3599 9.49502 38.3136 9.40652 38.2268 9.34752C38.2036 9.32982 38.1921 9.31212 38.1747 9.28852C38.1631 9.14692 38.0647 9.05252 37.9895 8.94632C37.9663 8.86372 37.839 8.84602 37.8621 8.73392C37.8737 8.70442 37.8911 8.67492 37.9142 8.65722C38.4468 8.51562 38.9967 8.49792 39.535 8.42122C40.056 8.34452 40.5886 8.33862 41.0922 8.16162C41.1443 8.16752 41.1906 8.19112 41.2137 8.23832C41.4048 8.66312 41.6652 9.05842 41.6652 9.55402C41.7579 9.79001 41.8389 10.0319 41.9547 10.2502C42.0531 10.439 41.9836 10.5098 41.8215 10.557C41.7463 10.6809 41.6363 10.7458 41.5032 10.793C40.7738 11.0644 40.0328 11.3063 39.2977 11.56C39.153 11.6131 39.0141 11.6308 38.8751 11.5718Z"
      fill="#AAB1B5"
    />
      <path
      d="M2.12311 3.24707C1.97261 3.59517 1.82789 3.94917 1.6716 4.29137C1.59056 4.46836 1.6195 4.55686 1.81631 4.59226C2.16942 4.65126 2.51674 4.72796 2.86405 4.79286C2.50516 5.67196 2.15205 6.55106 1.79316 7.43015C1.75264 7.52455 1.67739 7.61305 1.70633 7.73105C1.27797 7.98475 0.785938 8.06735 0.334425 8.25025C0.317059 8.00835 0.311271 7.77825 0.542816 7.61895C0.623856 7.56585 0.612279 7.45965 0.612279 7.37705C0.635433 6.63366 0.652799 5.88436 0.670165 5.14096C0.675954 5.02296 0.699108 4.89316 0.600702 4.81056C0.3981 4.63356 0.467563 4.52146 0.652799 4.38577C1.15062 4.01997 1.63108 3.63057 2.12311 3.24707Z"
      fill="#BA6351"
    />
      <path
      d="M41.6652 9.55393C41.4915 9.09963 41.2078 8.69254 41.121 8.20284C40.9879 8.09074 41.0516 7.94914 41.0689 7.81934C41.1037 7.61284 41.0226 7.52434 40.8258 7.51844C40.6406 7.51254 40.4611 7.50664 40.2759 7.51844C39.506 7.54794 38.7361 7.45944 37.9662 7.45354C37.7578 7.45354 37.5726 7.35914 37.3931 7.27064C37.3063 7.22344 37.2369 7.15264 37.2716 7.03464C37.6421 6.73964 38.0183 6.45055 38.383 6.14965C38.5046 6.04935 38.6261 6.01985 38.7766 6.03755C39.5002 6.12015 40.2296 6.19095 40.9532 6.26765C41.0284 6.28535 41.1094 6.26175 41.1789 6.30305C41.5089 6.54495 41.561 6.93434 41.6304 7.28834C41.7172 7.74854 41.723 8.22054 41.7693 8.68664C41.8041 8.98753 41.7404 9.27073 41.6652 9.55393Z"
      fill="#464A4A"
    />
      <path
      d="M37.8794 8.73965C37.8852 8.75735 37.891 8.76915 37.8968 8.78685C37.9083 8.86945 37.9952 8.89305 38.0183 8.96385C38.0936 9.06415 38.1341 9.18215 38.2036 9.28245C38.2383 9.30015 38.2672 9.29425 38.2904 9.26475C38.4062 9.34735 38.4583 9.47125 38.4756 9.60694C38.4525 9.61874 38.4814 9.60104 38.4756 9.60694C38.5335 9.67774 38.5625 9.76034 38.574 9.85474C38.5625 9.87834 38.5625 9.89604 38.5856 9.90784C38.6203 9.99044 38.6551 10.073 38.6898 10.1497C38.5972 10.2264 38.713 10.3798 38.5798 10.4388C38.2904 9.89014 37.9431 9.40045 37.4626 8.99925C35.6681 7.50656 32.8086 8.22045 31.9287 10.3975C31.6566 11.0583 31.5582 11.7545 31.6856 12.4684C31.7029 12.5569 31.6971 12.6454 31.7029 12.7339C31.4888 12.7398 31.2746 12.7398 31.0662 12.7457C30.7536 12.4625 30.9562 12.1439 31.0025 11.8371C31.0141 11.8076 31.0257 11.784 31.0372 11.7545C31.1125 11.6837 31.1125 11.5952 31.0778 11.5008C31.1009 11.0465 31.2167 10.6099 31.344 10.1792C31.3788 10.0671 31.4251 9.95504 31.5698 9.94914C31.7203 10.191 31.5524 10.4211 31.5351 10.6512C31.5293 10.7456 31.483 10.8341 31.5003 10.9344C31.5061 10.9757 31.5466 10.9285 31.5119 10.9403C31.5003 10.9462 31.4945 10.9344 31.4945 10.9167C31.5235 10.6158 31.6161 10.3267 31.645 10.0199C31.6566 9.87834 31.6566 9.74854 31.6161 9.61285C31.6045 9.44765 31.6682 9.33555 31.8303 9.28835C31.8766 9.28245 31.894 9.32375 31.9287 9.34145C31.9345 9.28245 31.8824 9.24115 31.8766 9.18215C31.8708 9.07595 31.9518 9.01105 31.9982 8.93435C32.0155 8.91665 32.0387 8.89895 32.0618 8.88715C32.0908 8.86355 32.1255 8.84585 32.1544 8.82225C32.496 8.59215 32.8259 8.34435 33.1964 8.15555C33.2543 8.13195 33.318 8.11425 33.3758 8.08475C33.4106 8.06705 33.4511 8.06115 33.4858 8.06115C33.5784 8.07885 33.6769 8.10835 33.7347 7.99625C33.7926 7.93725 33.8563 7.89595 33.9431 7.90185C33.9952 7.91365 34.0531 7.93725 34.0936 7.87235C34.1631 7.79565 34.2441 7.74845 34.3483 7.76615C34.4525 7.78975 34.493 7.91365 34.6088 7.94315C34.5683 7.87235 34.5625 7.80745 34.6262 7.74845C35.0256 7.55965 35.4424 7.63045 35.8592 7.68945C36.0791 7.71895 36.3165 7.74255 36.467 7.95495C36.4728 8.09655 36.357 8.08475 36.2875 8.06705C36.0039 8.00215 35.7087 7.97855 35.4887 7.91955C35.9576 7.96675 36.4785 8.18505 37.0343 8.06705C37.1674 8.06705 37.26 8.12605 37.3063 8.25585C37.3063 8.38565 37.3931 8.36205 37.4742 8.35615C37.59 8.37975 37.671 8.43875 37.6999 8.56265C37.6826 8.67475 37.781 8.62165 37.8215 8.64525C37.8447 8.67475 37.8678 8.69835 37.8794 8.73965Z"
      fill="#654B54"
    />
      <path
      d="M0.212864 11.4775C1.60213 11.6663 2.98561 11.8551 4.37488 12.0439C4.40962 12.0675 4.45014 12.0852 4.45592 12.1206C4.50223 12.4628 4.59485 12.805 4.49066 13.1531C3.74392 13.1944 3.04929 12.9171 2.33729 12.7755C1.73527 12.6575 1.13904 12.4864 0.537026 12.3566C0.346002 12.3153 0.253383 12.2386 0.259172 12.0321C0.259172 11.8492 0.183921 11.6663 0.212864 11.4775Z"
      fill="#5F6163"
    />
      <path
      d="M38.8751 11.5719C39.8534 11.2179 40.8259 10.8639 41.8215 10.5571C41.8505 10.7518 41.8331 10.9465 41.7868 11.1353C41.7463 11.3359 41.7 11.5365 41.8099 11.7312C41.8678 11.8374 41.862 11.9495 41.7058 11.9731C40.7622 12.1383 39.8476 12.4923 38.8693 12.4392C38.8635 12.156 38.9967 11.8669 38.8751 11.5719Z"
      fill="#5F6163"
    />
      <path
      d="M4.49067 13.159C4.33437 12.7991 4.38068 12.4215 4.37489 12.0439C4.49646 11.7961 4.45015 11.5188 4.51382 11.2592C4.54855 11.0999 4.61223 10.9524 4.66433 10.799C4.75694 10.8639 4.69906 10.9583 4.72221 11.0232C4.69906 10.7813 4.8322 10.5335 4.79746 10.268C4.87851 10.0379 4.99428 9.82554 5.17372 9.66034C5.24898 9.69574 5.26634 9.62494 5.29529 9.58364C5.40527 9.44794 5.67155 9.46564 5.6426 9.20014C5.85099 9.03494 6.07096 8.89335 6.33145 8.83435C6.38355 8.85205 6.42986 8.85795 6.45301 8.79305C6.5109 8.76945 6.56878 8.75175 6.62667 8.72815C6.70192 8.71045 6.81769 8.82254 6.85821 8.66325C7.08976 8.51575 7.36182 8.54525 7.61074 8.49805C7.63389 8.51575 7.65126 8.52755 7.67441 8.54525C7.79018 8.59835 7.91753 8.56295 8.03331 8.59245C8.22433 8.58655 8.40956 8.61015 8.58901 8.66325C8.68163 8.69275 8.78004 8.71045 8.76267 8.84024C8.0333 8.81074 7.32709 8.85204 6.65561 9.20014C5.23161 9.93764 4.46751 11.4362 4.70485 13.0528C4.71063 13.0823 4.71064 13.1118 4.71064 13.1413C4.64696 13.1531 4.57171 13.159 4.49067 13.159Z"
      fill="#644B54"
    />
      <path
      d="M11.7843 13.1528C11.9753 12.0141 11.7148 10.9994 10.9739 10.1144C10.5282 9.58336 9.96089 9.25296 9.35309 8.96976C9.3994 8.81636 9.51517 8.87536 9.61358 8.88126C9.82197 8.89896 10.0072 9.01696 10.2214 9.03466C10.2793 9.07006 10.3372 9.11136 10.395 9.14676C10.4413 9.25296 10.5224 9.28246 10.6266 9.27066C11.217 9.62466 11.5875 10.1557 11.7901 10.8106C11.9232 11.2472 12.0159 11.7015 12.068 12.1557C11.9927 12.2855 12.0448 12.4389 12.0043 12.5392C12.0101 12.4979 12.0043 12.4212 12.0853 12.374C12.1258 12.4507 12.1374 12.5392 12.1316 12.6277C12.1316 12.787 12.0969 12.9404 12.1432 13.0997C12.0274 13.1823 11.9059 13.1528 11.7843 13.1528Z"
      fill="#644B54"
    />
      <path
      d="M31.1183 11.802C31.0431 12.1147 31.0083 12.4274 31.0604 12.746C30.7884 12.746 30.5163 12.746 30.25 12.746C30.2674 12.3153 29.8564 12.2327 29.6422 11.9967C29.5786 11.9259 29.4975 12.1442 29.376 12.0911C29.3586 12.0675 29.3412 12.0439 29.3296 12.0203C29.3123 11.9672 29.2949 11.9082 29.3007 11.8492C29.3181 11.7312 29.3123 11.6073 29.3181 11.4893C29.3239 11.4362 29.3412 11.389 29.3702 11.3477C29.428 11.2828 29.4859 11.2238 29.5843 11.2592C29.6075 11.2769 29.6306 11.2946 29.6422 11.3241C29.8043 11.7194 29.8043 11.7194 30.2269 11.7194C30.4411 11.7194 30.6494 11.7194 30.8636 11.7135C30.9562 11.7194 31.0547 11.6958 31.1183 11.802Z"
      fill="#5E5F61"
    />
      <path
      d="M24.1893 0.993401C23.5583 0.875402 22.9332 0.722002 22.3196 0.533203C22.9563 0.639403 23.6162 0.621703 24.1893 0.993401Z"
      fill="#B6B9BB"
    />
      <path
      d="M12.1374 13.0999C11.9058 12.9465 12.1026 12.7872 12.1258 12.6279C12.1779 12.7813 12.1953 12.9347 12.1953 13.094C12.1721 13.0999 12.1547 13.0999 12.1374 13.0999Z"
      fill="#634950"
    />
      <path
      d="M13.0057 13.1826C13.1215 13.3655 13.3357 13.2239 13.4804 13.3242C13.3183 13.3006 13.0984 13.4481 13.0057 13.1826Z"
      fill="#6E7070"
    />
      <path
      d="M41.1789 6.30298C41.0979 6.31478 41.0226 6.32068 40.9532 6.26758C40.9763 6.24398 40.9937 6.22038 41.0169 6.19678C41.069 6.23218 41.1211 6.26758 41.1789 6.30298Z"
      fill="#8B8F91"
    />
      <path
      d="M29.4396 11.9202C29.4396 11.9673 29.4338 12.0146 29.3933 12.05C29.1618 12.103 28.9187 12.0322 28.6871 12.0912C26.1459 12.1561 23.6047 12.2151 21.0635 12.28C20.5252 12.2918 19.9868 12.3036 19.4485 12.3331C19.269 12.339 19.188 12.2977 19.1938 12.0912C19.2053 11.4659 19.2053 10.8346 19.2053 10.2092C21.104 10.2328 23.0027 10.2446 24.9014 10.2859C26.2964 10.3213 27.6973 10.3272 29.0923 10.339C29.6712 10.3449 29.6075 10.4216 29.6191 9.80796C29.6654 9.64276 29.6307 9.47756 29.6422 9.31236C29.648 9.14126 29.7349 9.04686 29.9027 9.02916C30.5221 8.96426 31.1415 8.91706 31.7609 8.85806C31.8766 8.84626 31.9924 8.85216 32.0561 8.98786C32.0156 9.06456 31.9693 9.13536 31.9287 9.21206C31.9287 9.25926 31.923 9.30056 31.8709 9.31826C31.7956 9.40676 31.7204 9.49526 31.6856 9.60736C31.703 9.74306 31.7319 9.87876 31.5814 9.96136C31.3615 10.4747 31.2804 11.0234 31.182 11.5662C31.2341 11.6606 31.1589 11.7255 31.1299 11.8022H31.1241C30.6495 11.8966 30.169 11.8435 29.6943 11.8671C29.5901 11.873 29.538 11.8435 29.5554 11.7196C29.5728 11.5721 29.5612 11.4246 29.5612 11.283C29.5033 11.1355 29.5728 11.0057 29.5959 10.9172C29.5438 11.047 29.538 11.2358 29.457 11.401C29.4512 11.4364 29.4512 11.4777 29.4454 11.5131C29.3991 11.6429 29.3875 11.7845 29.4396 11.9202Z"
      fill="#9A9EA1"
    />
      <path
      d="M32.0561 8.98166C31.3209 9.04066 30.5916 9.09966 29.8564 9.15866C29.7291 9.17046 29.677 9.24716 29.6712 9.37106C29.6654 9.51266 29.6943 9.66606 29.6191 9.80176C29.5843 9.26486 29.5786 8.72796 29.6654 8.19696C29.6943 8.01406 29.758 7.91376 29.949 7.89606C30.6379 7.82526 31.3267 7.74856 32.0098 7.67776C33.0575 7.56567 34.111 7.45357 35.1588 7.34147C35.7145 7.28247 36.2644 7.21167 36.8201 7.15267C36.9764 7.13497 37.1211 7.09367 37.2658 7.03467C37.5148 7.19987 37.7695 7.33557 38.0763 7.34147C39.0661 7.35327 40.056 7.37097 41.0458 7.37687C41.2542 7.37687 41.3584 7.40047 41.26 7.64826C41.1905 7.82526 41.1674 8.02586 41.1211 8.21466C41.069 8.35036 40.9648 8.39756 40.8316 8.41526C40.1138 8.50376 39.4018 8.59816 38.6898 8.68666C38.4236 8.71616 38.1515 8.73386 37.8852 8.75746C37.8563 8.75156 37.8331 8.74566 37.8042 8.74566C37.7405 8.72796 37.6884 8.69846 37.6653 8.63356C37.59 8.57456 37.5148 8.51556 37.4337 8.45066C37.3527 8.44476 37.2485 8.48016 37.2427 8.33856C37.2022 8.23826 37.1153 8.20286 37.0227 8.17336C36.8085 8.22646 36.6233 8.16746 36.4612 8.03176C35.8534 7.78396 35.234 7.76036 34.5973 7.86656C34.522 7.94326 34.4468 7.91966 34.3657 7.87246C34.2789 7.87836 34.1979 7.91376 34.1284 7.96686C34.0821 8.03176 34.0242 8.03176 33.9605 7.99636C33.8969 8.02586 33.839 8.04946 33.7753 8.07896C33.7116 8.19696 33.5959 8.14976 33.4975 8.16746C33.4743 8.17926 33.4569 8.19106 33.4338 8.19696C33.399 8.26776 33.3412 8.29136 33.2659 8.28546C32.9186 8.51556 32.5655 8.73976 32.2182 8.96986C32.1892 9.01706 32.1487 9.01706 32.1082 8.99346L32.085 8.98756L32.0561 8.98166Z"
      fill="#C0C4C8"
    />
      <path
      d="M28.7624 5.18233C26.7479 5.13513 24.7798 5.09383 22.8117 5.04663C21.8855 5.02303 20.9593 4.99353 20.0331 4.98173C19.8305 4.97583 19.7321 4.93453 19.68 4.71033C19.3559 3.34744 19.0143 1.99044 18.6612 0.633447C18.5918 0.356149 18.6844 0.356149 18.9044 0.367949C20.3805 0.432848 21.8218 0.792746 23.2863 0.969746C23.5584 1.00515 23.8015 1.11725 24.0331 1.27064C25.3702 2.14974 26.7074 3.02294 28.0446 3.89613C28.1719 3.97873 28.2646 4.07903 28.3224 4.22063C28.4614 4.53333 28.6061 4.84013 28.7624 5.18233Z"
      fill="#464A4A"
    />
      <path
      d="M21.104 5.4891C21.3702 5.4891 21.6423 5.5009 21.9086 5.4832C22.1112 5.4714 22.088 5.5953 22.088 5.7251C22.088 5.8549 22.1112 5.967 21.9086 5.967C21.3529 5.9552 20.7972 5.9552 20.2357 5.967C20.0331 5.9729 20.0562 5.8549 20.0562 5.7251C20.0562 5.5953 20.0331 5.4714 20.2357 5.4832C20.5251 5.5009 20.8145 5.4891 21.104 5.4891Z"
      fill="#464A4A"
    />
      <path
      d="M9.87989 4.96387C12.1722 4.99927 14.4645 5.03467 16.7568 5.07007C17.4514 5.08187 18.146 5.08777 18.8407 5.09367C18.9912 5.09367 19.0896 5.10547 19.0838 5.31197C19.0722 6.94036 19.0722 8.57465 19.0722 10.203C17.2199 10.1794 15.3675 10.1617 13.5209 10.144C13.3646 10.144 13.2431 10.0909 13.1273 9.99654C12.0738 9.15875 11.0145 8.31505 9.95514 7.47726C9.81621 7.36516 9.74675 7.24716 9.75832 7.05246C9.80463 6.35626 9.83937 5.66006 9.87989 4.96387Z"
      fill="#DCE1E5"
    />
      <path
      d="M7.13023 4.08453C7.79013 4.36773 8.03325 4.97543 7.7033 5.51232C7.48333 5.86042 7.08392 6.03152 6.70187 5.93122C6.31403 5.83092 6.03039 5.48872 6.00145 5.09343C5.9725 4.68043 6.19247 4.32053 6.56294 4.14943C6.62662 4.11993 6.6845 4.09633 6.74818 4.06683C6.88132 3.97833 7.00288 4.01963 7.13023 4.08453Z"
      fill="#464A4A"
    />
      <path
      d="M10.2214 9.03499C10.0188 9.11168 9.82778 8.99368 9.63097 8.98778C9.53835 8.98188 9.44573 8.92879 9.35311 8.97599C9.1563 8.96419 8.96528 8.92289 8.78004 8.85799C8.52534 8.72819 8.23012 8.79309 7.96963 8.68099C7.87701 8.58069 7.72072 8.65739 7.62231 8.56299C7.62231 8.54529 7.62231 8.53349 7.62231 8.51579C7.6802 8.50989 7.73809 8.50399 7.79597 8.49809C8.60638 8.46269 9.35311 8.70459 10.1056 8.97009C10.1404 8.97599 10.1809 9.01139 10.2214 9.03499Z"
      fill="#60444D"
    />
      <path
      d="M12.0795 12.3804C12.0506 12.4984 12.0216 12.6164 11.9927 12.7403C11.9811 12.5397 11.8885 12.3332 12.0622 12.1621C12.0679 12.2329 12.0737 12.3037 12.0795 12.3804Z"
      fill="#62454E"
    />
      <path
      d="M7.13028 4.08479C7.00294 4.07889 6.87559 4.07299 6.74824 4.06709C6.73666 4.01399 6.68456 3.93729 6.78876 3.94319C6.92189 3.95499 7.04924 3.99629 7.17659 4.02579C7.17659 4.02579 7.18238 4.04939 7.17659 4.04939C7.15923 4.06709 7.14765 4.07889 7.13028 4.08479Z"
      fill="#9EA2A5"
    />
      <path
      d="M10.6266 9.27087C10.4934 9.33577 10.395 9.34167 10.395 9.14697C10.4703 9.18827 10.5455 9.22957 10.6266 9.27087Z"
      fill="#5F414B"
    />
      <path
      d="M4.79745 10.2681C4.94217 10.6103 4.76272 10.9112 4.73957 11.2357C4.71641 11.2357 4.69326 11.2298 4.6701 11.2298C4.6701 11.0882 4.6701 10.9407 4.6701 10.7991C4.71063 10.6221 4.75115 10.4451 4.79745 10.2681Z"
      fill="#5D4049"
    />
      <path
      d="M5.64258 9.20605C5.71783 9.22965 5.79887 9.25915 5.94938 9.31225C5.65995 9.37125 5.5847 9.68985 5.30105 9.62495C5.27211 9.61315 5.25474 9.59545 5.24896 9.56595C5.23738 9.53055 5.26053 9.51285 5.28947 9.50105C5.4284 9.42435 5.55575 9.33585 5.64258 9.20605Z"
      fill="#5E424A"
    />
      <path
      d="M6.864 8.67518C6.94504 8.72238 7.02608 8.76958 7.1708 8.85218C6.93346 8.85808 6.77138 8.87578 6.63824 8.74008C6.70192 8.68108 6.77717 8.65748 6.864 8.67518Z"
      fill="#5F434C"
    />
      <path
      d="M5.64839 9.2002C5.60209 9.38899 5.50368 9.51289 5.29529 9.49519C5.38791 9.36539 5.50947 9.27689 5.64839 9.2002Z"
      fill="#644B54"
    />
      <path
      d="M5.24896 9.56006C5.26633 9.57776 5.28369 9.60136 5.30106 9.61906C5.35315 9.72526 5.33579 9.81966 5.27211 9.91406C5.15634 9.85506 5.24317 9.72526 5.17371 9.66036C5.20265 9.63086 5.2258 9.59546 5.24896 9.56006Z"
      fill="#5B3E49"
    />
      <path
      d="M6.45877 8.79865C6.51666 8.83405 6.56876 8.86355 6.66716 8.92845C6.49929 8.98745 6.40667 8.95205 6.33142 8.83995C6.36615 8.78685 6.41246 8.79275 6.45877 8.79865Z"
      fill="#573A43"
    />
      <path
      d="M10.8755 12.3801C10.8698 13.8551 9.72361 15.0056 8.27066 15.0056C6.82351 14.9997 5.68894 13.8315 5.69472 12.3506C5.70051 10.8756 6.84666 9.71922 8.2996 9.72512C9.74676 9.72512 10.8813 10.8933 10.8755 12.3801Z"
      fill="#9A9EA1"
    />
      <path
      d="M35.1356 14.3508C33.6942 14.3567 32.5365 13.1885 32.5249 11.7253C32.5134 10.2621 33.6711 9.07619 35.1124 9.07619C36.5596 9.07029 37.7173 10.2326 37.7173 11.7017C37.7231 13.1708 36.577 14.3449 35.1356 14.3508Z"
      fill="#9A9EA1"
    />
      <path
      d="M38.713 10.25C38.7825 10.6276 38.8462 11.0052 38.8115 11.3887C38.7362 11.0937 38.6609 10.7987 38.5857 10.5037C38.6436 10.427 38.5799 10.2854 38.713 10.25Z"
      fill="#583B44"
    />
      <path
      d="M38.713 10.2502C38.6725 10.3328 38.632 10.4213 38.5857 10.5039C38.5857 10.4862 38.5799 10.4626 38.5799 10.4449C38.5915 10.3387 38.5509 10.2089 38.6899 10.1558C38.7015 10.1853 38.7072 10.2148 38.713 10.2502Z"
      fill="#56363F"
    />
      <path
      d="M17.2719 4.78109C15.7379 4.72799 14.2097 4.74569 12.6758 4.70439C11.8769 4.68079 11.0781 4.67489 10.2793 4.66309C10.0477 4.65719 9.97825 4.58639 10.0014 4.35039C10.0882 3.47129 10.1461 2.5922 10.2214 1.7131C10.2387 1.4771 10.2619 1.247 10.2793 1.01101C10.2966 0.780907 10.4819 0.798606 10.6266 0.780906C10.9623 0.745506 11.2981 0.751406 11.6338 0.721907C13.6714 0.562607 15.7148 0.580307 17.7582 0.586207C17.9318 0.586207 18.0187 0.657007 18.0534 0.834007C18.2965 2.0671 18.5396 3.3002 18.7943 4.52739C18.8348 4.73389 18.7654 4.78699 18.5744 4.78109C18.1402 4.77519 17.7061 4.78109 17.2719 4.78109Z"
      fill="#01404D"
    />
      <path
      d="M28.6871 12.0853C28.9186 11.9968 29.156 12.0381 29.3933 12.044C29.3875 12.0558 29.3817 12.0735 29.3759 12.0853C29.1444 12.0912 28.9128 12.0912 28.6871 12.0853Z"
      fill="#808184"
    />
      <path
      d="M38.2383 9.56025C38.1689 9.34785 37.9836 9.20035 37.9489 8.97025C37.9721 8.91125 38.0184 8.89355 38.0763 8.89355C38.1747 8.99385 38.2557 9.10005 38.2441 9.25345C38.2789 9.35375 38.2847 9.45995 38.2383 9.56025Z"
      fill="#60454D"
    />
      <path
      d="M38.0763 8.89331C38.0358 8.91691 37.9894 8.94641 37.9489 8.97001C37.9084 8.91691 37.6942 8.91101 37.8968 8.78711C37.9779 8.78711 38.0531 8.79301 38.0763 8.89331Z"
      fill="#5A3D46"
    />
      <path
      d="M38.5915 9.90808C38.5741 9.96118 38.5683 10.0202 38.5394 10.0674C38.522 10.091 38.4873 10.0674 38.4815 10.0379C38.4641 9.94938 38.4931 9.88448 38.5799 9.85498C38.5857 9.87268 38.5915 9.89038 38.5915 9.90808Z"
      fill="#5A3B45"
    />
      <path
      d="M38.2383 9.56022C38.2383 9.45992 38.2383 9.35372 38.2441 9.25342C38.2615 9.25342 38.2789 9.25932 38.2962 9.27112C38.2962 9.36552 38.3136 9.47172 38.2383 9.56022Z"
      fill="#593E44"
    />
      <path
      d="M36.4554 8.01997C36.6407 8.06717 36.8317 8.11437 37.0169 8.16157C36.988 8.23827 36.9301 8.26187 36.8549 8.25007C36.2702 8.14387 35.6798 8.03767 35.0951 7.93147C35.072 7.92557 35.0488 7.90197 35.0025 7.86657C35.5235 7.79577 35.9808 8.02587 36.4554 8.01997Z"
      fill="#5D424A"
    />
      <path
      d="M31.5756 9.96142C31.5814 9.83752 31.6161 9.71362 31.6798 9.60742C31.7898 9.72542 31.7493 9.86112 31.7203 9.99682C31.6451 10.3272 31.5756 10.6635 31.4946 10.988C31.4425 10.6399 31.6161 10.3095 31.5756 9.96142Z"
      fill="#5D3F48"
    />
      <path
      d="M34.3599 7.85502C34.4352 7.85502 34.5162 7.85502 34.5915 7.84912C34.6725 7.89632 34.7536 7.94352 34.8346 7.99072C34.6609 8.00252 34.4699 8.09102 34.3599 7.85502Z"
      fill="#583A43"
    />
      <path
      d="M31.8651 9.31225C31.8824 9.27685 31.9056 9.24145 31.9229 9.20605C32.0792 9.34765 31.9577 9.47155 31.9172 9.64265C31.813 9.51875 31.8882 9.40665 31.8651 9.31225Z"
      fill="#5C3E47"
    />
      <path
      d="M37.2427 8.32666C37.3063 8.36206 37.37 8.39746 37.4337 8.43876C37.3179 8.53316 37.2137 8.48596 37.0864 8.40926C37.1443 8.37386 37.1963 8.35026 37.2427 8.32666Z"
      fill="#593D45"
    />
      <path
      d="M33.4916 8.15002C33.5727 8.09102 33.6711 8.07332 33.7695 8.06152C33.7926 8.11462 33.8737 8.18542 33.7405 8.19722C33.6537 8.20902 33.5669 8.20902 33.4916 8.15002Z"
      fill="#5F444C"
    />
      <path
      d="M31.1241 11.8019C31.1415 11.7252 31.1589 11.6426 31.1762 11.5659C31.3267 11.6308 31.3267 11.6367 31.1241 11.8019Z"
      fill="#614D54"
    />
      <path
      d="M33.9547 7.98458C34.0126 7.97278 34.0647 7.96688 34.1226 7.95508C34.1515 7.99048 34.1805 8.02588 34.2094 8.06128C34.1052 8.10848 34.0184 8.10258 33.9547 7.98458Z"
      fill="#553640"
    />
      <path
      d="M38.4757 9.60707C38.4525 9.66607 38.4236 9.71917 38.3831 9.81947C38.3483 9.67787 38.3368 9.59527 38.4757 9.60707C38.4757 9.60707 38.4815 9.61297 38.4757 9.60707Z"
      fill="#583A44"
    />
      <path
      d="M37.6594 8.61621C37.7057 8.65161 37.7521 8.69291 37.7984 8.72831C37.7347 8.71651 37.6768 8.70471 37.6131 8.68701C37.59 8.68111 37.5552 8.66931 37.5842 8.63391C37.5958 8.61621 37.6305 8.62211 37.6594 8.61621Z"
      fill="#5A3E47"
    />
      <path
      d="M32.1024 8.98161C32.1371 8.97571 32.1776 8.96391 32.2123 8.95801C32.2008 9.01111 32.2297 9.09371 32.1545 9.09371C32.0966 9.09961 32.1081 9.02291 32.1024 8.98161Z"
      fill="#4E2F38"
    />
      <path
      d="M33.2659 8.27356C33.3122 8.22046 33.3643 8.19096 33.4337 8.18506C33.4106 8.28536 33.3643 8.33846 33.2659 8.27356Z"
      fill="#593B47"
    />
      <path
      d="M7.61652 8.55704C7.74965 8.54524 7.89437 8.55114 8.00435 8.62194C8.09118 8.68094 7.97541 8.65144 7.95804 8.67504C7.83648 8.66914 7.69756 8.69864 7.61652 8.55704Z"
      fill="#573640"
    />
      <path
      d="M5.02322 10.2504C4.97691 10.1324 4.98849 10.0203 5.07532 9.90234C5.16215 10.0557 5.04638 10.1442 5.02322 10.2504Z"
      fill="#5D4148"
    />
      <path
      d="M7.46022 8.69859C7.32129 8.78709 7.24604 8.7222 7.10712 8.675C7.25762 8.5983 7.33866 8.6219 7.46022 8.69859Z"
      fill="#593B45"
    />
      <path
      d="M6.25041 9.01147C6.22725 9.02327 6.20989 9.04097 6.19831 9.04097C6.17515 9.03507 6.152 9.01737 6.12885 8.99967C6.14621 8.99377 6.15779 8.97607 6.17516 8.97607C6.19831 8.98197 6.22146 8.99967 6.25041 9.01147Z"
      fill="#51313C"
    />
      <path
      d="M29.4454 11.3948C29.4628 11.206 29.486 11.0172 29.5786 10.793C29.6307 10.9936 29.5554 11.1352 29.5496 11.2827C29.5149 11.3181 29.4802 11.3535 29.4454 11.3948Z"
      fill="#808184"
    />
      <path
      d="M29.4396 11.9198C29.347 11.7841 29.3702 11.6425 29.4338 11.5068C29.4338 11.6425 29.4396 11.7841 29.4396 11.9198Z"
      fill="#808184"
    />
      <path
      d="M27.0026 4.84009C25.6249 4.76929 24.2472 4.81649 22.8695 4.76339C21.9955 4.72799 21.1156 4.73979 20.2415 4.72209C20.0447 4.71619 19.9463 4.65719 19.8942 4.45659C19.5932 3.27659 19.2806 2.1025 18.9738 0.922506C18.9333 0.775006 18.8812 0.621607 19.1475 0.657007C20.5657 0.869406 21.9839 1.0759 23.4021 1.2824C23.5584 1.306 23.6973 1.365 23.8304 1.4535C25.1387 2.3149 26.4527 3.1822 27.7609 4.04949C27.8651 4.12029 27.9751 4.19109 28.0504 4.28549C28.1603 4.42119 28.2703 4.60999 28.2067 4.76929C28.1488 4.91679 27.9462 4.82239 27.8072 4.82829C27.541 4.84599 27.2689 4.84009 27.0026 4.84009Z"
      fill="#01404D"
    />
      <path
      d="M11.1707 5.42993C11.4196 5.42993 11.6685 5.44173 11.9174 5.42403C12.1085 5.41223 12.1432 5.48893 12.1316 5.66003C12.1258 5.80753 12.1316 5.91373 11.9232 5.90783C11.408 5.89013 10.8871 5.89013 10.3661 5.90783C10.1751 5.91373 10.1403 5.84293 10.1519 5.67183C10.1577 5.52433 10.1519 5.41223 10.3603 5.42403C10.6324 5.44763 10.9044 5.42993 11.1707 5.42993Z"
      fill="#464A4A"
    />
      <path
      d="M8.26483 14.4041C7.15341 14.4041 6.25038 13.4955 6.2446 12.3686C6.23881 11.2476 7.14183 10.3272 8.25325 10.3213C9.36466 10.3213 10.2677 11.224 10.2735 12.3509C10.2735 13.4778 9.37624 14.3982 8.26483 14.4041Z"
      fill="#DCE1E5"
    />
      <path
      d="M35.1703 13.6961C34.0531 13.6961 33.1443 12.7521 33.1675 11.6193C33.1849 10.5042 34.0879 9.61327 35.1935 9.61917C36.3049 9.62507 37.2022 10.5396 37.1964 11.6665C37.1848 12.7875 36.2818 13.6961 35.1703 13.6961Z"
      fill="#DCE1E5"
    />
      <path
      d="M8.31114 13.5248C7.68018 13.5248 7.17078 13.0115 7.17078 12.3684C7.17078 11.7135 7.68596 11.1943 8.33429 11.2002C8.96525 11.2061 9.46886 11.7312 9.46307 12.3743C9.45149 13.0174 8.94788 13.5248 8.31114 13.5248Z"
      fill="#606163"
    />
      <path
      d="M35.1646 12.8168C34.5336 12.8109 34.03 12.2917 34.0358 11.6486C34.0416 10.9996 34.5452 10.4922 35.1762 10.4922C35.8245 10.4922 36.3339 11.0173 36.3223 11.6781C36.3107 12.3153 35.8013 12.8227 35.1646 12.8168Z"
      fill="#606163"
    />
</g>
<animateMotion
    href="#car"
    dur="60s"
    begin="0s"
    fill="freeze"
    repeatCount="indefinite"
    rotate="auto"
  >
    <mpath href="#line" />
</animateMotion>
  <style> 
  #car{ 
      transform: translate(-2%, -4%); 
  } 
  </style>
</svg>
