<svg
  width="682"
  height="756"
  viewBox="0 0 682 756"
  fill="none"
  xmlns="http://www.w3.org/2000/svg"
>
<g>
  
<path
      id="line"
      d="M681 6C681 6 641 62 639 77C637 92 605 140.5 587.5 154.5C578.883 161.393 564 173 551.5 185.5C539 198 529 216.5 518 225.5C507 234.5 499 244.5 495.5 261.5C492 278.5 489.5 280 480.5 290.5C471.5 301 465 322 459 340.5C453 359 386 443 371 456C356 469 294.5 529 285 542C275.5 555 222.5 607 214.5 614C206.5 621 155 658 129.5 668C104 678 109 677.5 102 689.5C95 701.5 99.5 710.5 80.5 720C61.5 729.5 1 760.5 1 760.5"
      stroke="transparent"
      stroke-width="3"
      transform="scale(1)"
    />

</g>

<g id="car">
   <path
      d="M47.8559 6.41016C48.1268 6.64445 48.2439 6.98124 48.4123 7.28142C48.2366 7.4425 48.0389 7.33999 47.8559 7.33267C47.6069 7.31803 47.4605 7.38392 47.4532 7.66947C47.4385 8.32841 47.3873 8.98003 47.3214 9.63165C47.2994 9.82201 47.358 9.89522 47.5557 9.89522C47.8266 9.89522 48.1195 9.80736 48.3684 9.99772C48.3757 10.2759 48.3464 10.5542 48.3025 10.8251C48.2878 10.9276 48.2732 11.0154 48.1487 11.0301C47.768 11.2351 47.336 11.1838 46.9334 11.1985C45.2421 11.257 43.5581 11.4108 41.8669 11.4547C41.5813 11.462 41.3983 11.3742 41.3104 11.1033C40.9297 10.1368 41.1201 10.2686 40.0658 10.2613C38.8065 10.254 37.5545 10.2759 36.2952 10.2467C35.8705 10.2393 35.6362 10.3858 35.5044 10.7738C35.4019 11.074 35.2482 11.3522 35.1091 11.6378C35.0432 11.7695 34.9846 11.9087 34.8382 11.9672C34.6844 12.0258 34.5234 12.0185 34.3696 12.0185C31.5362 12.0185 28.7027 12.0185 25.8693 12.0185C25.7741 12.0185 25.6716 12.0185 25.5764 11.9965C25.2836 11.9599 25.2543 11.7476 25.2543 11.5133C25.2543 9.91719 25.2397 8.32109 25.2616 6.72498C25.2689 6.65177 25.2909 6.58587 25.3495 6.53462C25.5032 6.49801 25.5984 6.60052 25.7009 6.68838C25.8327 6.7982 25.9498 6.92999 26.045 7.0691C26.3159 7.45714 26.6747 7.61089 27.1652 7.61089C33.2201 7.59625 39.275 7.59625 45.3299 7.61089C45.7692 7.61089 46.1353 7.50107 46.4867 7.25214C46.926 6.94463 47.3507 6.60784 47.8559 6.41016Z"
      fill="#A77A2C"
    />
   <path
      d="M42.4381 13.7982C41.8597 13.8129 41.867 13.8129 41.8524 14.4132C41.8158 15.797 41.1715 16.844 39.9634 17.4883C38.7554 18.1326 37.518 18.0886 36.3539 17.3638C35.2703 16.6975 34.7065 15.7018 34.6699 14.4279C34.6553 13.8129 34.6626 13.8129 34.0549 13.8129C33.9964 13.8129 33.9305 13.8129 33.8719 13.8055C33.8499 13.7323 33.8939 13.703 33.9451 13.6737C34.011 13.6445 34.0842 13.6298 34.1574 13.6371C34.4649 13.6664 34.604 13.542 34.6846 13.2344C35.0873 11.7775 36.4125 10.7012 37.928 10.5694C39.4143 10.4376 40.9006 11.2649 41.5668 12.5975C41.662 12.7952 41.7791 12.9855 41.8231 13.1978C41.8817 13.4761 42.0354 13.6298 42.3283 13.6152C42.4088 13.6518 42.4527 13.703 42.4381 13.7982Z"
      fill="#464A4A"
    />
   <path
      d="M11.3581 14.3907C11.2043 16.3602 10.0914 17.6341 8.15123 17.9563C7.17015 18.1173 6.26228 17.8245 5.47887 17.2022C4.4685 16.3968 4.04385 15.3278 4.10242 14.0539C4.10975 13.8269 4.10975 13.6292 3.79492 13.6585C3.78028 13.6146 3.7876 13.5853 3.81688 13.556C4.00724 13.4681 4.10974 13.3217 4.18296 13.124C5.03226 10.6567 8.18052 9.74879 10.2672 11.6378C10.9773 12.2821 11.3288 13.1094 11.4386 14.0539C11.4679 14.171 11.4532 14.2882 11.3581 14.3907Z"
      fill="#464A4A"
    />
   <path
      d="M47.8559 6.41015C47.2922 6.92266 46.6333 7.28874 45.9963 7.6841C45.9157 7.73535 45.784 7.71339 45.6741 7.71339C39.3776 7.71339 33.0884 7.71339 26.7919 7.72071C26.5649 7.72071 26.4038 7.6475 26.2501 7.48642C25.9572 7.17892 25.7229 6.81284 25.3642 6.57123C25.3056 6.48337 25.3569 6.43212 25.4301 6.39551C27.6265 6.40283 29.823 6.41015 32.0268 6.41015C37.2324 6.41015 42.4307 6.40283 47.6363 6.40283C47.7095 6.39551 47.7827 6.40283 47.8559 6.41015Z"
      fill="#654B54"
    />
   <path
      d="M11.3582 14.3913C11.3582 12.1875 9.46928 10.4669 7.27282 10.7451C5.83047 10.9282 4.79082 11.7409 4.28563 13.1466C4.20509 13.3809 4.15384 13.6371 3.81705 13.5859C3.69258 13.3004 3.92687 13.0954 3.98545 12.8464C4.02205 12.7073 4.08795 12.5755 4.17581 12.4584C4.32956 12.1875 4.55653 11.9239 4.3442 11.5798C4.40277 11.1405 4.58581 10.7378 4.72492 10.3205C4.79082 10.1301 4.94457 10.0349 5.14957 10.0276C5.55225 10.0057 5.94762 9.93976 6.3503 9.93976C7.55835 9.94708 8.76641 9.9544 9.97446 9.93976C10.3479 9.93243 10.5968 10.0569 10.7505 10.4083C10.9263 10.811 11.1752 11.1771 11.3875 11.5578C11.4241 11.6237 11.4534 11.6969 11.49 11.7628C11.5779 11.9385 11.6877 12.0996 11.7609 12.2827C11.7902 12.3339 11.8195 12.3778 11.8488 12.4218C12.1124 12.8025 12.3393 13.2052 12.5663 13.6005C12.7127 13.8568 12.9104 13.9959 13.2106 13.9739C13.9208 13.93 14.6383 14.0545 15.3485 13.908C15.5169 13.8788 15.6926 13.8788 15.861 13.8788C19.6682 13.8788 23.4754 13.8788 27.2899 13.8861C27.5022 13.8861 27.7878 13.7689 27.9195 14.0764C27.5901 14.0252 27.3338 14.1863 27.0629 14.3327C26.7115 14.5304 26.3601 14.7207 26.0086 14.9184C25.8622 14.999 25.7158 15.0282 25.5547 15.0282C21.5425 15.0282 17.5303 15.0282 13.5254 15.0282C13.3058 15.0282 13.1227 14.9697 12.9543 14.8306C12.4857 14.4938 11.9659 14.2961 11.3582 14.3913Z"
      fill="#654B54"
    />
   <path
      d="M27.9121 14.0983C27.8536 13.9812 27.7437 14.0251 27.6559 14.0251C23.5705 14.0251 19.4851 14.0251 15.3996 14.0251C15.3484 14.0251 15.3045 14.0324 15.2532 14.0397C15.18 14.069 15.1068 14.0617 15.0336 14.0617C14.7041 14.0617 14.521 13.9226 14.5064 13.681C14.4918 13.454 14.6821 13.249 14.9677 13.1978C15.0775 13.1758 15.1873 13.1758 15.2971 13.1758C18.5479 13.1758 21.7913 13.1758 25.0421 13.1758C25.1007 13.1758 25.1666 13.1758 25.2251 13.1904C25.291 13.1978 25.3642 13.1978 25.4301 13.1904C26.0451 13.1685 26.6675 13.1831 27.2898 13.1831C27.6632 13.1831 28.0366 13.1685 28.41 13.0806C29.0104 12.9342 29.4643 13.3369 29.3764 13.886C29.2739 14.2081 29.1422 14.501 28.7541 14.5596C28.3661 14.6035 28.0952 14.4278 27.9121 14.0983Z"
      fill="#ABB0B3"
    />
   <path
      d="M42.438 13.7984C42.4087 13.7545 42.3868 13.7105 42.3575 13.6593C42.1232 13.4616 42.0866 13.1541 41.9475 12.8978C41.8157 12.6562 41.7205 12.3926 41.6034 12.1364C41.4496 11.7923 41.4935 11.7264 41.8596 11.58C42.3794 11.5214 42.9066 11.5141 43.4264 11.4994C44.8468 11.4482 46.2672 11.3383 47.6949 11.331C47.8486 11.331 48.0097 11.3017 48.1561 11.4042C48.3758 11.5067 48.4197 11.7191 48.3318 11.8948C48.1488 12.2755 48.0097 12.6855 47.6949 12.9857C46.0841 13.2566 44.4807 13.5275 42.87 13.7837C42.7309 13.8204 42.5771 13.7984 42.438 13.7984Z"
      fill="#BA6351"
    />
   <path
      d="M29.3764 13.8787C29.186 13.1612 28.9078 13.0148 28.2196 13.2564C28.161 13.2784 28.1024 13.293 28.0438 13.293C27.1726 13.2857 26.3013 13.2784 25.4301 13.271C25.2836 12.9269 25.2251 12.5901 25.5033 12.2753C25.5692 12.246 25.6424 12.2241 25.7156 12.2241C26.9676 12.2314 28.2269 12.1801 29.4789 12.2533C30.5771 12.3192 31.6753 12.2753 32.7736 12.2899C33.3666 12.2973 33.967 12.246 34.56 12.3266C34.7064 12.3778 34.7504 12.4949 34.6772 12.6121C34.4355 12.9928 34.2891 13.4248 33.923 13.725C33.9011 13.7543 33.8864 13.7762 33.8645 13.8055C33.7473 13.9593 33.5936 13.9739 33.4105 13.9739C32.5978 13.9593 31.7778 13.9593 30.9651 13.9519C30.8041 13.908 30.848 13.7616 30.8114 13.6518C30.7235 13.3662 30.5478 13.1832 30.233 13.1832C29.9255 13.1832 29.7351 13.3516 29.6473 13.6444C29.618 13.7469 29.6253 13.8641 29.5155 13.93C29.4715 13.908 29.4276 13.8934 29.3764 13.8787Z"
      fill="#BA6351"
    />
   <path
      d="M2.0451 7.88203C3.27512 7.53792 4.53443 7.33292 5.78641 7.07666C7.87305 6.64469 9.99629 6.46165 12.1049 6.18343C12.1781 6.17611 12.2513 6.18343 12.3245 6.18343C12.5295 6.28593 12.6101 6.49826 12.7565 6.65933C12.9469 6.95219 13.3129 7.04005 13.5033 7.33292C13.3715 7.50863 13.1738 7.55256 12.9762 7.60381C12.3099 7.78685 11.6144 7.70632 10.9408 7.74292C9.63754 7.80882 8.34162 7.88203 7.03839 7.91864C5.84498 7.95525 4.65889 8.04311 3.46548 8.07239C3.05547 8.07972 2.9969 8.16025 2.98958 8.59223C2.98226 9.43421 2.9969 10.2762 2.98226 11.1182C2.98226 11.3012 3.03351 11.5209 2.79922 11.6234C2.64547 11.4769 2.67475 11.2866 2.67475 11.1108C2.66743 10.3348 2.67475 9.55135 2.67475 8.77527C2.67475 8.16025 2.67475 8.16025 2.10367 7.99918C2.05242 7.96989 2.03778 7.93328 2.0451 7.88203Z"
      fill="#CA9336"
    />
   <path
      d="M17.2521 2.24456C17.9476 1.91509 18.6871 1.7833 19.4412 1.68812C20.8616 1.65883 22.2893 1.6808 23.7097 1.67347C23.8707 1.67347 24.0025 1.72472 24.0538 1.8858C24.1416 2.17134 24.2954 2.45688 24.127 2.76439C23.9806 2.87421 23.8048 2.86689 23.6364 2.86689C21.7548 2.86689 19.8658 2.86689 17.9842 2.86689C17.8158 2.86689 17.6401 2.86689 17.4863 2.77171C17.318 2.6326 17.2374 2.4642 17.2521 2.24456Z"
      fill="#CA9336"
    />
   <path
      d="M24.1195 2.70582C24.1195 2.42028 23.995 2.1567 23.9511 1.8858C23.9145 1.65884 23.7315 1.69544 23.5777 1.69544C22.3477 1.69544 21.1104 1.69544 19.8803 1.69544C19.7339 1.69544 19.5875 1.68812 19.441 1.6808C19.5509 1.60026 19.6753 1.63687 19.7925 1.63687C21.0371 1.62955 22.2818 1.62223 23.5265 1.63687C23.8413 1.64419 23.8706 1.52705 23.8047 1.27811C23.7168 0.948644 23.6436 0.619173 23.5484 0.289703C23.4898 0.0700556 23.5631 0.0114835 23.7754 0.0041619C24.4124 -0.0178028 24.449 0.0261266 24.5515 0.663103C24.8297 2.42028 25.1226 4.18478 25.4081 5.94195C25.4301 6.08838 25.4227 6.23482 25.4301 6.38125C25.4081 6.43982 25.3861 6.49839 25.3642 6.55697C25.3642 6.6009 25.3568 6.64482 25.3568 6.68143C25.2983 6.74 25.3276 6.90108 25.1665 6.82786C25.0127 6.7034 24.9834 6.52036 24.9468 6.34464C24.8004 5.71498 24.61 5.08533 24.4563 4.45568C24.4343 4.30192 24.3758 4.16281 24.3172 4.0237C24.2147 3.60637 24.1268 3.15976 24.1195 2.70582Z"
      fill="#464A4A"
    />
   <path
      d="M4.23428 12.4946C4.09517 12.8607 3.95606 13.2194 3.81695 13.5855C3.79499 13.6075 3.79499 13.6294 3.80231 13.6514C3.64124 14.0468 3.27516 14.2444 2.9823 14.508C2.82123 14.6544 2.59426 14.6105 2.42586 14.5446C2.27943 14.4934 2.35997 14.303 2.35997 14.1785C2.35265 13.6001 2.35265 13.6001 1.79621 13.4903C1.56924 13.4464 1.34227 13.3951 1.11531 13.3512C1.02013 13.1023 1.0787 12.846 1.07138 12.5971C1.06406 12.436 1.18852 12.3848 1.31299 12.3774C2.22818 12.3408 3.13605 12.3335 4.05124 12.3848C4.12446 12.3921 4.19035 12.4287 4.23428 12.4946Z"
      fill="#DBE7EF"
    />
   <path
      d="M48.3758 9.99068C48.083 9.99068 47.7828 9.96871 47.4972 10.0053C47.2044 10.0419 47.1751 9.92478 47.2044 9.69049C47.2849 8.96566 47.3435 8.24082 47.3508 7.50866C47.3508 7.28902 47.4387 7.18651 47.6583 7.20848C47.9146 7.23044 48.1635 7.25241 48.4198 7.28169C48.5662 7.40616 48.6248 7.55991 48.6028 7.76492C48.5223 8.5044 48.5076 9.2512 48.3758 9.99068Z"
      fill="#BA6351"
    />
   <path
      d="M17.2519 2.24463C17.3251 2.39106 17.391 2.53017 17.4642 2.6766C16.8272 3.31358 16.117 3.87002 15.4288 4.45574C14.6381 5.12933 13.8766 5.8322 13.0713 6.4765C12.9468 6.57168 12.8516 6.71811 12.6686 6.6815C12.5514 6.5131 12.4343 6.35203 12.3171 6.18363C13.5691 5.1879 14.8138 4.19217 16.0658 3.19643C16.4611 2.88161 16.8565 2.55946 17.2519 2.24463Z"
      fill="#02404E"
    />
   <path
      d="M4.23429 12.4954C3.2532 12.4881 2.26479 12.4808 1.28371 12.4734C1.13728 12.4734 1.10067 12.5393 1.10067 12.6711C1.10799 12.8981 1.10799 13.1324 1.10799 13.3667C0.946919 12.8468 0.99817 12.3124 1.05674 11.7925C1.07871 11.6168 1.40085 11.5949 1.59854 11.6241C1.85479 11.6607 1.89872 11.5729 1.89872 11.3386C1.8914 10.3282 1.8914 9.31784 1.89872 8.30747C1.89872 8.15371 1.84747 7.978 2.04515 7.89014C2.04515 7.91942 2.05247 7.94139 2.05247 7.97067C2.12569 8.10978 2.10372 8.25622 2.10372 8.40265C2.10372 9.28123 2.10372 10.1525 2.10372 11.0311C2.10372 11.5729 2.16962 11.5949 2.59426 11.5875C2.66748 11.5875 2.73337 11.6241 2.80659 11.6461C3.34106 11.5509 3.86821 11.4777 4.39536 11.6827C4.46126 11.7047 4.60769 11.6607 4.57108 11.7852C4.4759 12.0268 4.49054 12.327 4.23429 12.4954Z"
      fill="#474B4A"
    />
   <path
      d="M48.2221 11.4627C47.673 11.4627 47.1312 11.4554 46.5821 11.47C45.6376 11.5067 44.6858 11.5652 43.7413 11.6018C43.0824 11.6311 42.4307 11.6531 41.7718 11.6824C41.5961 11.7409 41.4277 11.7483 41.3691 11.5359C41.3179 11.3675 41.1202 11.1772 41.3911 11.0161C41.4497 11.265 41.5668 11.3456 41.8523 11.3236C43.0018 11.2431 44.1586 11.2065 45.3154 11.1479C46.2599 11.104 47.2117 11.06 48.1562 11.0088C48.1269 11.1991 48.1489 11.3675 48.3758 11.4261C48.3246 11.4993 48.2807 11.5067 48.2221 11.4627Z"
      fill="#45494A"
    />
   <path
      d="M48.2221 11.4629C48.2733 11.4556 48.3246 11.4482 48.3759 11.4482C48.7639 11.4556 49.1519 11.4556 49.5473 11.4702C49.6937 11.4775 49.9207 11.4116 49.9719 11.5654C50.0378 11.7484 49.9866 11.99 49.8328 12.1365C49.5327 12.422 49.2178 12.6856 48.8884 12.9345C48.7053 13.0736 48.4637 12.9785 48.2514 12.9931C48.0683 13.0077 47.8853 12.9931 47.7023 12.9858C47.8341 12.7149 47.9512 12.4293 48.1123 12.1731C48.2367 11.9534 48.3173 11.7265 48.2221 11.4629Z"
      fill="#D9E4EA"
    />
   <path
      d="M29.5156 13.9298C29.5376 13.4466 29.7133 13.1611 30.0647 13.0879C30.3942 13.022 30.6578 13.1318 30.8481 13.4173C30.958 13.5784 30.9287 13.7688 30.958 13.9445C30.8335 14.2959 30.5919 14.5229 30.2112 14.5083C29.8451 14.5009 29.6328 14.2666 29.5156 13.9298Z"
      fill="#AAAFB2"
    />
   <path
      d="M41.3912 11.0231C41.3326 11.4038 41.4717 11.6381 41.7792 11.682C41.5303 11.7553 41.6108 11.909 41.6767 12.0628C41.911 12.5899 42.1892 13.0951 42.3576 13.6516C41.9403 13.7541 41.8744 13.7101 41.7719 13.3074C41.2594 11.3599 39.0922 10.1885 37.1813 10.8181C35.8707 11.2501 35.0581 12.1287 34.7359 13.4685C34.6993 13.6296 34.6261 13.7321 34.4357 13.7174C34.2673 13.7101 34.0916 13.7101 33.9232 13.7101C34.1722 13.2708 34.4138 12.8389 34.6627 12.3996C34.7579 12.2385 34.7286 12.0188 34.8897 11.8871C35.1166 11.3745 35.3509 10.8694 35.5706 10.3495C35.6438 10.1738 35.739 10.1152 35.922 10.1152C37.5547 10.1226 39.1874 10.1226 40.8201 10.1152C41.0178 10.1152 41.1056 10.1884 41.1569 10.3642C41.2301 10.5985 41.318 10.8108 41.3912 11.0231Z"
      fill="#654B54"
    />
   <path
      d="M34.8823 11.9014C34.853 12.0624 34.8384 12.2235 34.8018 12.3846C34.7798 12.4724 34.7066 12.4212 34.6553 12.4139C33.0373 12.4066 31.4192 12.4358 29.8011 12.3846C28.3661 12.3407 26.9311 12.3699 25.4961 12.3333C25.3716 12.1723 25.3716 12.0258 25.562 11.916C27.2533 11.9087 28.9445 11.9087 30.6358 11.9014C32.0635 11.9014 33.4692 11.9014 34.8823 11.9014Z"
      fill="#464A4A"
    />
   <path
      d="M25.5692 11.9166C25.4814 12.0484 25.5034 12.1948 25.5034 12.3339C25.3496 12.6341 25.4741 12.9562 25.4301 13.2637C25.3862 13.2637 25.3423 13.2637 25.2983 13.2637C25.1958 13.1759 25.1666 13.0587 25.1666 12.9343C25.1812 12.6048 24.9982 12.5243 24.7053 12.5316C23.219 12.5389 21.7254 12.5316 20.2392 12.5316C17.6254 12.5316 15.0189 12.5316 12.4051 12.5316C12.1782 12.5316 11.9365 12.5535 11.7315 12.4071C11.7023 12.3778 11.6803 12.3559 11.651 12.3266C11.8999 12.1435 12.1928 12.2387 12.4637 12.2168C12.5442 12.2241 12.6321 12.2241 12.7126 12.2241C12.8444 12.1948 12.9689 12.2314 13.1007 12.2168C15.1507 12.1875 17.1934 12.2094 19.2434 12.2094C21.0226 12.2094 22.8017 12.2094 24.5808 12.2094C25.0348 12.2094 25.0348 12.2021 25.108 11.7555C25.2032 11.1112 25.1519 10.4669 25.1519 9.8226C25.1592 8.95865 25.1519 8.09471 25.1519 7.23076C25.1519 7.09898 25.13 6.95987 25.2105 6.84272C25.2544 6.79147 25.2983 6.74022 25.3496 6.69629C25.3496 8.32168 25.3569 9.94706 25.3569 11.5725C25.3716 11.7262 25.3276 11.9092 25.5692 11.9166Z"
      fill="#674D52"
    />
   <path
      d="M38.2282 16.0018C37.3204 15.9945 36.5663 15.233 36.5809 14.3398C36.5955 13.4539 37.335 12.7217 38.2282 12.7144C39.1288 12.7071 39.8756 13.4685 39.8683 14.3764C39.8609 15.2696 39.1141 16.0018 38.2282 16.0018Z"
      fill="#AAB0B2"
    />
   <path
      d="M7.70473 12.7725C8.60527 12.7725 9.35207 13.49 9.36672 14.3832C9.38136 15.2911 8.60528 16.0745 7.69008 16.0598C6.80418 16.0452 6.07935 15.3057 6.07935 14.4052C6.07935 13.5046 6.80418 12.7798 7.70473 12.7725Z"
      fill="#AAB0B2"
    />
   <path
      d="M4.38807 11.6674C3.86092 11.6601 3.32645 11.6601 2.7993 11.6528C2.77733 11.6308 2.77733 11.6162 2.78465 11.6089C2.79197 11.6015 2.7993 11.5942 2.81394 11.5942C2.92376 11.3014 2.85787 10.9939 2.85787 10.6937C2.87251 9.92491 2.87983 9.15614 2.85055 8.38738C2.84323 8.10184 2.95305 7.99201 3.2093 7.96273C3.26787 7.9554 3.33377 7.94808 3.39234 7.94808C4.27825 7.9188 5.17147 7.91147 6.05738 7.86755C7.68276 7.77969 9.31546 7.72111 10.9408 7.63326C11.6437 7.59665 12.3539 7.66254 13.0494 7.50879C13.1812 7.63326 13.1739 7.79433 13.1739 7.94808C13.1812 8.96578 13.1812 9.9908 13.1739 11.0085C13.1739 11.1549 13.1739 11.3014 13.0861 11.4331C12.8371 11.4624 12.9103 11.2721 12.9103 11.1549C12.903 10.4594 12.903 9.76383 12.903 9.06828C12.903 8.76078 12.903 8.46059 12.903 8.15309C12.903 9.244 12.8957 10.3349 12.9103 11.4258C12.9103 11.5137 12.9177 11.5942 12.8664 11.6748C12.8152 11.7333 12.7566 11.7553 12.6834 11.7699C12.2441 11.7553 11.7975 11.8724 11.3655 11.6894C11.0507 11.2648 10.8091 10.8108 10.5894 10.3349C10.4942 10.1299 10.3771 10.0494 10.1501 10.0567C8.49545 10.0933 6.84078 10.0347 5.18612 10.1226C4.98843 10.1372 4.87861 10.1885 4.82004 10.3935C4.68825 10.8255 4.52718 11.2428 4.38807 11.6674Z"
      fill="#A77A2C"
    />
   <path
      d="M11.7389 12.4145C16.1538 12.4145 20.5687 12.4145 24.9909 12.3999C25.2398 12.3999 25.313 12.4878 25.2984 12.7221C25.2837 12.9051 25.2984 13.0881 25.3057 13.2712C25.2105 13.2785 25.1153 13.2931 25.0128 13.2931C21.7767 13.2931 18.5333 13.2931 15.2972 13.2931C15.0043 13.2931 14.6382 13.2419 14.6236 13.6446C14.6089 14.0619 14.975 14.0253 15.2679 14.0399C15.1434 14.1571 14.9897 14.1058 14.8505 14.1058C14.2575 14.1131 13.6645 14.0985 13.0714 14.1131C12.8518 14.1205 12.7053 14.0546 12.5955 13.8569C12.31 13.3737 12.0171 12.8978 11.7389 12.4145Z"
      fill="#BA6351"
    />
   <path
      d="M12.5369 12.3339C12.2441 12.3339 11.9512 12.3339 11.6583 12.3339C11.6583 12.1362 11.4533 12.0191 11.4387 11.8214C11.4314 11.6749 11.5412 11.7189 11.6144 11.7115C11.8414 11.7042 12.0757 11.7042 12.3026 11.7115C12.4418 11.7189 12.6175 11.653 12.6687 11.8507C12.7273 12.041 12.7346 12.2167 12.5369 12.3339Z"
      fill="#464A4A"
    />
   <path
      d="M12.5369 12.3333C12.7053 11.8208 12.6614 11.7402 12.1489 11.7549C11.9146 11.7622 11.6657 11.6743 11.4387 11.8208C11.3874 11.7915 11.3655 11.7402 11.3655 11.6816C11.8048 11.6816 12.2441 11.6816 12.6834 11.6816C12.8371 11.8793 12.8078 12.099 12.7492 12.3259C12.676 12.3333 12.6028 12.3333 12.5369 12.3333Z"
      fill="#474A4A"
    />
   <path
      d="M13.0422 11.4623C13.0422 10.1444 13.0422 8.82653 13.0422 7.50133C13.1886 7.43544 13.335 7.36954 13.4814 7.30365C13.6425 7.09132 13.8841 7.15722 14.0891 7.15722C16.3442 7.1499 18.5992 7.15722 20.8542 7.15722C21.9012 7.15722 22.9482 7.16454 24.0025 7.15722C24.4345 7.15722 24.4345 7.12793 24.4345 6.69596C24.4418 6.07362 24.31 5.45861 24.3539 4.83628C24.4125 4.69717 24.3027 4.48484 24.537 4.43359C24.7786 5.23164 24.925 6.05898 25.2106 6.84239C25.2325 6.95221 25.2618 7.05472 25.2618 7.16454C25.2691 8.56296 25.2618 9.96138 25.2618 11.3598C25.2618 11.4916 25.2691 11.6307 25.1959 11.7478C25.0568 11.8723 24.8811 11.8723 24.7127 11.8723C20.9714 11.8723 17.2228 11.8723 13.4814 11.8723C13.335 11.8723 13.1886 11.8723 13.0568 11.7918C12.9616 11.6966 12.9543 11.5794 13.0422 11.4623Z"
      fill="#A77A2C"
    />
   <path
      d="M24.471 4.80684C24.5076 5.50971 24.5296 6.21991 24.6028 6.92278C24.6321 7.22296 24.5296 7.26689 24.266 7.26689C21.8865 7.25957 19.5143 7.25957 17.1348 7.25957C16.0732 7.25957 15.0116 7.25957 13.95 7.25957C13.7889 7.25957 13.6351 7.2376 13.4814 7.3035C13.1446 7.17903 12.881 6.95938 12.6614 6.67384C14.1257 5.42918 15.5827 4.18451 17.047 2.94717C17.1714 2.83734 17.2813 2.69823 17.4643 2.66895C17.9622 2.77145 18.46 2.71288 18.9579 2.71288C20.6785 2.73484 22.399 2.74948 24.1196 2.69823C24.3319 3.12288 24.2953 3.60611 24.4051 4.05272C24.5296 4.30166 24.3832 4.56523 24.471 4.80684Z"
      fill="#A9B1B4"
    />
   <path
      d="M2.81395 11.5939C2.7993 11.6159 2.79198 11.6305 2.7993 11.6525C1.96465 11.7037 1.96465 11.7037 1.96465 10.8837C1.96465 10.0344 1.96465 9.1851 1.97197 8.32848C1.97197 8.20401 1.92072 8.05758 2.0525 7.95508C2.7993 7.97704 2.79198 7.97704 2.7993 8.73849C2.7993 9.69761 2.80662 10.6494 2.81395 11.5939Z"
      fill="#DBE7EF"
    />
   <path
      d="M24.471 4.80735C24.3685 4.56573 24.4124 4.30948 24.4051 4.06055C24.5003 4.16305 24.5296 4.29484 24.5442 4.43395C24.4271 4.54377 24.5003 4.68288 24.471 4.80735Z"
      fill="#866937"
    />
   <path
      d="M13.0566 11.7408C16.9151 11.7408 20.7735 11.7481 24.6247 11.7481C24.8224 11.7481 25.0127 11.7481 25.2104 11.7481C25.2104 11.836 25.2031 11.9238 25.2104 12.0044C25.2397 12.2606 25.1372 12.3412 24.8809 12.3338C20.9127 12.3265 16.9444 12.3265 12.9761 12.3265C12.8736 12.1362 12.9395 11.9385 12.9541 11.7481C12.9834 11.7262 13.02 11.7188 13.0566 11.7408Z"
      fill="#474A4A"
    />
   <path
      d="M12.9761 11.7482C13.1079 11.9386 13.02 12.1363 12.9834 12.3339C12.9102 12.2973 12.8297 12.2973 12.7564 12.3339C12.6466 12.1289 12.7052 11.9093 12.6905 11.6896C12.7345 11.6823 12.7857 11.675 12.8297 11.675C12.8882 11.6457 12.8663 11.5066 12.9614 11.5432C13.0493 11.5798 13.0127 11.675 12.9761 11.7482Z"
      fill="#5D4C50"
    />
   <path
      d="M39.2898 14.3176C39.2898 14.9326 38.8212 15.4085 38.2062 15.4085C37.6059 15.4085 37.13 14.9252 37.1373 14.3102C37.1446 13.7099 37.5985 13.2413 38.1989 13.2266C38.7846 13.2193 39.2825 13.7099 39.2898 14.3176Z"
      fill="#464A4A"
    />
   <path
      d="M7.69735 13.293C8.27575 13.293 8.78094 13.7835 8.78094 14.3619C8.78826 14.9623 8.2904 15.4675 7.69735 15.4748C7.10431 15.4821 6.59912 14.9769 6.59912 14.3839C6.59912 13.7762 7.08234 13.293 7.69735 13.293Z"
      fill="#464A4A"
    />
   <path
      d="M12.9763 11.7475C12.9689 11.7036 12.9836 11.6304 12.9543 11.6157C12.8884 11.5645 12.8738 11.6743 12.8225 11.6743C12.8225 10.3271 12.8225 8.97263 12.8225 7.55957C13.0275 7.706 12.9763 7.85243 12.9763 7.96958C12.9836 9.00924 12.9763 10.0489 12.9836 11.0812C12.9836 11.213 12.9397 11.3521 13.0495 11.4693C13.0495 11.5645 13.0568 11.6523 13.0568 11.7475C13.0275 11.7475 12.9982 11.7475 12.9763 11.7475Z"
      fill="#7D5C46"
    />
   <path
      d="M23.219 8.45391C22.8896 8.45391 22.5601 8.44659 22.2379 8.45391C22.0476 8.46124 21.9817 8.38802 21.9817 8.19766C21.9817 8.02194 22.0256 7.93408 22.2233 7.93408C22.8896 7.9414 23.5631 7.9414 24.2294 7.93408C24.4198 7.93408 24.4857 7.99998 24.4857 8.19034C24.4857 8.36605 24.4417 8.46124 24.244 8.45391C23.8999 8.44659 23.5631 8.45391 23.219 8.45391Z"
      fill="#654B54"
    />
   <path
      d="M20.4149 3.03512C21.169 3.03512 21.9304 3.04244 22.6846 3.0278C22.9335 3.02047 23.014 3.10101 23.0287 3.34994C23.0872 4.44818 23.1605 5.53909 23.241 6.63001C23.2556 6.8643 23.1897 6.94483 22.9481 6.94483C20.7883 6.93751 18.6357 6.93751 16.4759 6.93751C15.7291 6.93751 14.9896 6.95948 14.2428 6.9668C14.1476 6.9668 14.0232 7.01073 13.9719 6.90823C13.9207 6.7984 14.0525 6.74715 14.111 6.68858C15.2752 5.52445 16.4466 4.36764 17.6107 3.20351C17.7572 3.05708 17.9109 3.0278 18.1086 3.0278C18.8774 3.04244 19.6461 3.04244 20.4149 3.03512C20.4149 3.03512 20.4149 3.04244 20.4149 3.03512Z"
      fill="#01404D"
    />

</g>


 <!-- <animateTransform
    href="#car"
    attributeName="transform"
    type="scale"
    from="-1 1"
    to="1 1"
    dur="2s"
    begin="0s"
    keyPoints="0;1;0"
    keyTimes="0;0.5;1"
    calcMode="linear"
    fill="freeze"
    repeatCount="indefinite"
  />  -->
<animateMotion
    href="#car"
    dur="10s"
    begin="0s"
    fill="freeze"
    repeatCount="indefinite"
    rotate="auto"
  >
    <mpath href="#line" />
</animateMotion>
<style> 
<!-- @-webkit-keyframes reverse {
    1%{
      transform: translate(4%, 2%) scaleX(-1);
    }
    49%{
      transform: translate(4%, 2%) scaleX(-1);
    }
    51%{
      transform: translate(4%, 2%) scaleX(1);
    }
    99%{
      transform: translate(4%, 2%) scaleX(1);
    } 
  }
@keyframes reverse {
    1%{
      transform: translate(4%, 2%) scaleX(-1);
    }
    49%{
      transform: translate(4%, 2%) scaleX(-1);
    }
    51%{
      transform: translate(4%, 2%) scaleX(1);
    }
    99%{
      transform: translate(4%, 2%) scaleX(1);
    } 
  }  -->
  #car{ 
      transform: translate(4%, 2%) scale(-1);
      <!-- -webkit-animation: reverse 10s linear infinite;
      animation: reverse 10s linear infinite; -->
  }  
</style>

</svg>
