<svg width="63" height="56" viewBox="0 0 63 56" fill="none" xmlns="http://www.w3.org/2000/svg">
<path d="M3.92859 41.5109L5.5522 37.0133H7.86247L5.17633 43.9517H2.68634L0 37.0133H2.31028L3.92859 41.5109Z" fill="#00404E"/>
<path d="M10.3001 36.2161C10.1311 36.0695 10.0467 35.8936 10.0467 35.6886C10.0467 35.4838 10.1311 35.3079 10.3001 35.1613C10.4688 35.0147 10.6714 34.9414 10.9076 34.9414C11.1437 34.9414 11.3462 35.0147 11.5151 35.1613C11.684 35.3079 11.7685 35.4838 11.7685 35.6886C11.7685 35.8936 11.684 36.0695 11.5151 36.2161C11.3462 36.3626 11.1437 36.4361 10.9076 36.4361C10.6714 36.4361 10.4688 36.3626 10.3001 36.2161ZM12.967 38.7439H10.4717V39.496H12.6401V41.0331H10.4717V42.225H12.967V43.9561H8.36292V37.0177H12.967V38.7439Z" fill="#00404E"/>
<path d="M13.2996 37.0177H19.8542V38.7678H17.6366V43.9561H15.5227V38.7678H13.2996V37.0177Z" fill="#00404E"/>
<path d="M23.4665 39.7396C23.5935 39.6309 23.6572 39.4977 23.6572 39.3398C23.6572 39.1825 23.5935 39.0484 23.4665 38.9379C23.3393 38.8276 23.1867 38.7723 23.0087 38.7723H22.3275V39.9027H23.0087C23.1867 39.9027 23.3393 39.8485 23.4665 39.7396ZM22.7908 41.6574H22.3275V43.9561H20.2191V37.0177H23.3248C24.0005 37.0177 24.5953 37.2305 25.1093 37.6563C25.6232 38.0819 25.8801 38.6432 25.8801 39.3398C25.8801 39.9771 25.6369 40.5194 25.1501 40.9669C25.0921 41.0207 25.0319 41.071 24.9704 41.1183L27.4331 43.9561H24.6707L22.7908 41.6574Z" fill="#00404E"/>
<path d="M28.0343 43.3674C27.4732 42.9054 27.1926 42.3765 27.1926 41.7806V37.0132H29.2957V41.2414C29.303 41.5377 29.4102 41.7726 29.6171 41.9461C29.8242 42.1195 30.1147 42.2062 30.4888 42.2062C30.8521 42.203 31.1427 42.121 31.3608 41.9602C31.5786 41.7993 31.6877 41.5598 31.6877 41.2414V37.0132H33.7963V41.7806C33.7963 42.3923 33.5085 42.9249 32.9329 43.3789C32.3567 43.8331 31.5423 44.0601 30.4888 44.0601C29.4137 44.0601 28.5955 43.8292 28.0343 43.3674Z" fill="#00404E"/>
<path d="M40.7708 40.8157V37.0177H42.8959V43.9561H40.9724L37.5071 40.1582V43.9561H35.382V37.0177H37.3056L40.7708 40.8157Z" fill="#00404E"/>
<path d="M44.993 43.0101C44.2301 42.3132 43.8485 41.4715 43.8485 40.4844C43.8485 39.4977 44.254 38.6548 45.0637 37.9566C45.8737 37.2583 46.8907 36.9089 48.1151 36.9089C49.3207 36.9089 50.2636 37.1737 50.9428 37.7036L49.8148 39.2642C49.3644 38.9143 48.7979 38.7394 48.1151 38.7394C47.5265 38.7394 47.0471 38.9173 46.6767 39.2737C46.3062 39.6301 46.121 40.0336 46.121 40.4844C46.121 40.9355 46.2824 41.339 46.6058 41.6954C46.9289 42.0516 47.3828 42.2297 47.9678 42.2297C48.393 42.2297 48.765 42.1746 49.085 42.0642V41.3596H48.1151V39.8934H51.1936V43.3507C50.133 43.8268 49.0574 44.0631 47.9678 44.06C46.7475 44.0568 45.7559 43.7071 44.993 43.0101Z" fill="#00404E"/>
<path d="M54.5978 43.9561H52.4835V37.0177H54.5978V43.9561Z" fill="#00404E"/>
<path d="M59.1648 44.0556C58.2459 44.0114 57.5194 43.7702 56.9854 43.332C56.4514 42.8938 56.1847 42.3766 56.1847 41.7808V37.0133H58.2874V41.2415C58.2949 41.5378 58.4019 41.7728 58.609 41.9463C58.8162 42.1196 59.1066 42.2064 59.4809 42.2064C59.8442 42.2031 60.1346 42.1211 60.3527 41.9604C60.5707 41.7995 60.6796 41.56 60.6796 41.2415V37.0133H62.7882V41.7808C62.7882 42.3419 62.5594 42.8235 62.1016 43.2255C61.6438 43.6275 61.1646 43.8665 60.6632 43.942C60.2563 44.1218 59.9579 44.3077 59.7668 44.5001C59.5763 44.6925 59.4809 44.8643 59.4809 45.0159C59.4809 45.0819 59.5081 45.137 59.5624 45.1812C59.6173 45.2254 59.6841 45.2474 59.7643 45.2474C59.9024 45.2474 60.0202 45.2348 60.1182 45.2096C60.2166 45.1843 60.3345 45.1435 60.4727 45.0866L60.8811 45.6825C60.6381 45.8623 60.2458 45.9521 59.7045 45.9521C59.254 45.9521 58.8824 45.8931 58.5898 45.7747C58.2974 45.6565 58.1516 45.457 58.1516 45.1766C58.1516 44.7604 58.4893 44.3866 59.1648 44.0556Z" fill="#00404E"/>
<path d="M9.55179 48.8439L12.72 44.9384H16.6069L12.8505 49.6307L17.4723 55.3364H13.5039L9.55179 50.4953V55.3364H6.38336V44.9384H9.55179V48.8439Z" fill="#00404E"/>
<path d="M24.9117 47.5254H21.1718V48.6525H24.4218V50.956H21.1718V52.7423H24.9117V55.3364H18.0117V44.9384H24.9117V47.5254Z" fill="#00404E"/>
<path d="M29.2066 52.7069H33.2158V55.3364H26.0382V44.9384H29.2066V52.7069Z" fill="#00404E"/>
<path d="M37.0944 55.3364H33.926V44.9384H37.0944V55.3364Z" fill="#00404E"/>
<path d="M42.8599 51.0978H44.5582L43.7008 48.525L42.8599 51.0978ZM49.5964 55.3364H46.3468L45.5136 53.4014H41.8966L41.0633 55.3364H37.8218L42.215 44.9384H45.2035L49.5964 55.3364Z" fill="#00404E"/>
<path d="M51.5564 55.0851C50.8817 54.8134 50.2689 54.4152 49.7192 53.8908L51.4994 51.8425C51.8423 52.1402 52.215 52.38 52.6181 52.5619C53.0209 52.7437 53.3828 52.8347 53.704 52.8347C53.9437 52.8347 54.1422 52.7793 54.3 52.6682C54.4581 52.5573 54.5369 52.4095 54.5369 52.2252C54.5369 52.0126 54.4361 51.8459 54.2349 51.7255C54.0332 51.605 53.8047 51.4904 53.549 51.3817L52.9446 51.1337C52.3514 50.8878 51.7784 50.5359 51.2258 50.0776C50.6733 49.6192 50.397 48.9292 50.397 48.0079C50.397 47.0864 50.7766 46.3172 51.536 45.7006C52.2954 45.0839 53.2658 44.7757 54.4469 44.7757C55.661 44.7757 56.7744 45.168 57.7868 45.9523L55.9087 48.093C55.2445 47.6534 54.7573 47.4338 54.4469 47.4338C54.202 47.4338 54.0129 47.4869 53.8796 47.5932C53.7461 47.6995 53.6795 47.8378 53.6795 48.0079C53.6795 48.211 53.7951 48.3776 54.0266 48.5075C54.2578 48.6377 54.5204 48.7591 54.8144 48.8726L55.2308 49.0355C55.8789 49.2718 56.4938 49.6381 57.0764 50.1343C57.6591 50.6305 57.9503 51.3463 57.9503 52.2819C57.9503 53.2222 57.5376 53.9925 56.7131 54.5925C55.8883 55.1928 54.899 55.4927 53.745 55.4927C52.9611 55.4927 52.2315 55.3569 51.5564 55.0851Z" fill="#00404E"/>
<path fill-rule="evenodd" clip-rule="evenodd" d="M29.0136 29.5138C28.827 30.4652 28.3052 31.3445 27.5115 32.0332C26.4979 32.913 25.1338 33.4038 23.7001 33.4038C22.2664 33.4038 20.9024 32.913 19.8887 32.0332C19.0958 31.345 18.5739 30.4667 18.387 29.516L15.9566 29.5165C15.836 29.5165 15.7192 29.4869 15.6177 29.4306L15.2924 29.2504C15.1923 29.195 15.1127 29.1167 15.0594 29.0189L8.89914 17.4404C8.81526 17.2828 8.8233 17.103 8.91521 16.9537L9.13547 16.5199C9.23189 16.2909 9.49802 16.1394 9.78609 16.163L20.3077 17.0267L29.8016 0.446724C29.8037 0.443153 29.8055 0.440086 29.8076 0.436516L29.8265 0.405727C29.8304 0.399261 29.8337 0.393822 29.838 0.387699C29.9235 0.259266 30.0459 0.152603 30.1937 0.0779266C30.2825 0.0326767 30.3703 0.0110779 30.4732 0.00886536L30.8641 0.000358582C30.9672 -0.00185394 31.0562 0.0158386 31.1477 0.0571747C31.3239 0.136444 31.4679 0.259949 31.562 0.411514L32.2516 1.52249L41.011 2.25123L50.1774 3.01332C50.7083 3.05754 51.103 3.47193 51.0521 3.93275L50.6205 7.84421C50.6199 7.84864 50.6194 7.85255 50.619 7.85697L50.1884 11.754C50.1743 11.8828 50.1263 12.0069 50.0479 12.117C49.8537 12.39 49.4972 12.5438 49.1294 12.5132L38.5267 11.6315L42.0804 17.3561L53.0296 16.6068C53.3177 16.5871 53.5802 16.7414 53.6729 16.9707L53.8779 17.384C53.9655 17.5285 53.9751 17.7016 53.8989 17.8552L48.36 28.9924C48.311 29.0911 48.2305 29.1741 48.127 29.2329L47.7974 29.4204C47.6945 29.4791 47.5754 29.5099 47.4523 29.5099L44.4085 29.5105C44.2225 30.4633 43.7001 31.3436 42.9056 32.0332C41.8919 32.9132 40.5277 33.4038 39.094 33.4038C37.6603 33.4038 36.2962 32.9132 35.2826 32.0332C34.4886 31.3441 33.9665 30.4647 33.7803 29.5128L29.0136 29.5138Z" fill="white"/>
<path fill-rule="evenodd" clip-rule="evenodd" d="M28.4954 29.0071C28.4176 30.0155 27.9226 30.9598 27.0988 31.6749C26.1944 32.4598 24.9792 32.897 23.7001 32.897C22.4212 32.897 21.2058 32.4598 20.3016 31.6749C19.4783 30.9603 18.9831 30.0167 18.9049 29.0092L15.9564 29.0097C15.9474 29.0097 15.9395 29.0078 15.9319 29.0034L15.6066 28.8232C15.5987 28.819 15.5934 28.8137 15.5895 28.8066L9.42903 17.228C9.42159 17.2139 9.42394 17.198 9.4353 17.186L9.68183 16.7005C9.68575 16.6799 9.70731 16.6658 9.73122 16.6676L20.652 17.5641L30.3246 0.672543L30.3432 0.641582C30.3781 0.589188 30.4279 0.545982 30.4879 0.515701L30.8786 0.507027C30.9505 0.539516 31.0093 0.58987 31.0479 0.651958L31.8855 2.00109L40.9424 2.75467L40.9553 2.75586L50.1216 3.51794C50.3338 3.53563 50.4912 3.70012 50.4708 3.88452L50.0393 7.79599L50.0375 7.80841L49.6072 11.7058C49.6017 11.7573 49.5825 11.8066 49.5511 11.8507C49.4735 11.9597 49.3316 12.021 49.1851 12.0087L37.4939 11.0365L41.7469 17.8875L53.0754 17.1121C53.0993 17.1106 53.1205 17.1251 53.124 17.1458L53.3559 17.6133C53.367 17.6252 53.3698 17.6403 53.3627 17.6544L47.8239 28.7918C47.8201 28.7991 47.8148 28.8047 47.8068 28.8091L47.4772 28.9967C47.4695 29.0012 47.4617 29.0032 47.4523 29.0032L43.8898 29.0039C43.813 30.0135 43.3174 30.9589 42.4927 31.6749C41.5885 32.4598 40.3729 32.897 39.094 32.897C37.8149 32.897 36.5997 32.4598 35.6953 31.6749C34.8713 30.9594 34.3759 30.0148 34.2985 29.0059L28.4954 29.0071ZM27.2553 25.9174C27.9501 26.58 28.3802 27.4152 28.4825 28.3068L34.3116 28.3058C34.409 27.4595 34.8015 26.6634 35.4376 26.017L31.2316 22.2841L27.2553 25.9174ZM26.6639 25.4403L30.4594 21.9719L10.5176 17.6012L16.215 28.3095L18.9175 28.3088C19.027 27.3494 19.5159 26.4568 20.3016 25.7747C21.2058 24.9898 22.4212 24.5527 23.7001 24.5527C24.7787 24.5527 25.816 24.8631 26.6639 25.4403ZM24.0808 25.7975V27.5609C24.1473 27.5774 24.2123 27.5981 24.2751 27.6231L25.6847 26.3351C25.2118 26.0386 24.6607 25.8538 24.0808 25.7975ZM26.3237 26.8563L24.8918 28.0989C24.9384 28.1651 24.9774 28.235 25.0084 28.3076L27.0598 28.3071C26.9726 27.7733 26.7178 27.2725 26.3237 26.8563ZM21.5836 26.422L23.0208 27.6694C23.1179 27.6219 23.2213 27.5847 23.3287 27.5586V25.7967C22.6893 25.857 22.0861 26.0736 21.5836 26.422ZM22.4866 28.129L21.0514 26.8831C20.671 27.295 20.4254 27.7859 20.3402 28.3085L22.391 28.3081C22.4171 28.2462 22.4492 28.1863 22.4866 28.129ZM24.9259 29.3016L26.3639 30.55C26.7688 30.1055 27.0161 29.5715 27.078 29.0075L25.0558 29.008C25.0276 29.1102 24.9839 29.209 24.9259 29.3016ZM25.8356 31.0146L24.4014 29.7697C24.2993 29.8216 24.1898 29.8621 24.0758 29.89L24.075 31.6526C24.7213 31.5911 25.3305 31.3699 25.8356 31.0146ZM23.0497 29.7954L21.6101 31.046C22.1065 31.3832 22.6989 31.5931 23.3254 31.6528L23.3264 29.8908C23.2305 29.8679 23.1376 29.8359 23.0497 29.7954ZM21.0739 30.5905L22.5047 29.3475C22.4318 29.2422 22.3775 29.1279 22.3446 29.0085L20.3224 29.0088C20.3862 29.5901 20.6475 30.139 21.0739 30.5905ZM40.0507 7.30251L37.5079 7.09106L39.931 8.3861L40.0507 7.30251ZM36.4675 30.5905L37.8984 29.3477C37.8249 29.2413 37.7705 29.1258 37.7373 29.0052L35.7157 29.0056C35.7792 29.588 36.0404 30.138 36.4675 30.5905ZM38.4444 29.7947L37.004 31.046C37.5004 31.3832 38.0928 31.5931 38.7193 31.6528L38.7201 29.8905C38.6247 29.8673 38.532 29.8352 38.4444 29.7947ZM41.2295 31.0146L39.7962 29.7702C39.6937 29.8223 39.5839 29.8626 39.4697 29.8905L39.4689 31.6526C40.1152 31.5911 40.7243 31.3697 41.2295 31.0146ZM40.3198 29.3016L41.758 30.5502C42.1635 30.1046 42.4114 29.5695 42.4725 29.0042L40.4505 29.0046C40.4223 29.1082 40.3784 29.208 40.3198 29.3016ZM39.7394 27.652L41.1805 26.4012C40.6865 26.0666 40.0976 25.8579 39.4748 25.7975V27.5605C39.5663 27.583 39.6549 27.6138 39.7394 27.652ZM41.7178 26.8563L40.2855 28.0989C40.3314 28.1641 40.37 28.2328 40.4007 28.3044L42.4533 28.3039C42.3655 27.7714 42.111 27.2718 41.7178 26.8563ZM38.7225 27.5581V25.7967C38.0952 25.8559 37.502 26.0656 37.005 26.4031L38.4248 27.6631C38.5189 27.6182 38.619 27.583 38.7225 27.5581ZM37.7859 28.3049C37.8065 28.2569 37.8306 28.2103 37.8579 28.1649L36.431 26.8986C36.0596 27.3062 35.8192 27.7907 35.7345 28.3052L37.7859 28.3049ZM43.8763 28.3037L47.1858 28.303L52.3051 18.0093L32.0231 21.982L36.013 25.5228C36.8794 24.8939 37.9633 24.5527 39.094 24.5527C40.3729 24.5527 41.5885 24.9898 42.4927 25.7747C43.277 26.4557 43.7655 27.3462 43.8763 28.3037ZM32.8891 21.0338L30.7489 4.42138L29.1557 20.889L31.2341 21.3575L32.8891 21.0338ZM31.3456 2.74174L33.6823 20.8783L41.6179 19.3254L31.3456 2.74174ZM34.1562 5.65943L34.4686 6.16261L40.1276 6.6333L40.4631 3.59347L34.1562 5.65943ZM35.1286 7.22596L36.702 9.76057L39.3821 8.88213L35.8441 6.99155L35.1286 7.22596ZM42.1662 18.5632L42.5482 19.1784L47.555 18.1944L42.1662 18.5632ZM28.3608 20.7097L30.0981 2.7562L20.8144 18.8581L20.7378 18.9915L28.3608 20.7097ZM14.922 17.7995L19.8926 18.8881L20.2647 18.2381L14.922 17.7995ZM45.845 3.83791L45.7033 5.12376L49.5207 5.44135L49.6626 4.15551L45.845 3.83791ZM44.8583 5.72918L41.0408 5.41158L40.8989 6.6976L44.7166 7.01519L44.8583 5.72918ZM41.1147 4.74221L44.9321 5.05963L45.0738 3.77395L41.2565 3.45653L41.1147 4.74221ZM49.4469 6.1109L45.6296 5.79331L45.4877 7.07915L49.305 7.39658L49.4469 6.1109ZM42.0998 7.47313L44.8896 8.96429L47.9552 7.96015L42.0998 7.47313ZM49.2084 8.26906L45.7242 9.41032L48.8952 11.1049L49.2084 8.26906ZM43.9735 9.26419L40.8025 7.5694L40.4895 10.4053L43.9735 9.26419ZM41.7429 10.7142L47.5979 11.2012L44.8083 9.71022L41.7429 10.7142ZM39.2067 3.28591L32.4166 2.72098L33.863 5.03598L39.2067 3.28591ZM39.8124 9.4605L37.1524 10.3325L39.6929 10.5437L39.8124 9.4605Z" fill="#00404E"/>
</svg>
