<svg width="105" height="106" viewBox="0 0 105 106" fill="none" xmlns="http://www.w3.org/2000/svg">
<path d="M6.51406 79.2921L9.20618 70.7007H13.0369L8.58295 83.9543H4.45427L0 70.7007H3.83071L6.51406 79.2921Z" fill="#00404E"/>
<path d="M17.0787 69.1786C16.7986 68.8985 16.6586 68.5626 16.6586 68.171C16.6586 67.7798 16.7986 67.4438 17.0787 67.1637C17.3585 66.8836 17.6945 66.7435 18.086 66.7435C18.4776 66.7435 18.8132 66.8836 19.0933 67.1637C19.3734 67.4438 19.5135 67.7798 19.5135 68.171C19.5135 68.5626 19.3734 68.8985 19.0933 69.1786C18.8132 69.4584 18.4776 69.5988 18.086 69.5988C17.6945 69.5988 17.3585 69.4584 17.0787 69.1786ZM21.5008 74.0072H17.3634V75.4438H20.9588V78.3799H17.3634V80.6568H21.5008V83.9634H13.8667V70.7098H21.5008V74.0072Z" fill="#00404E"/>
<path d="M22.0523 70.7098H32.9206V74.0527H29.2435V83.9634H25.7384V74.0527H22.0523V70.7098Z" fill="#00404E"/>
<path d="M38.9102 75.9091C39.1208 75.7015 39.2264 75.447 39.2264 75.1455C39.2264 74.8449 39.1208 74.5889 38.9102 74.3777C38.6993 74.1671 38.4462 74.0615 38.1511 74.0615H37.0217V76.2207H38.1511C38.4462 76.2207 38.6993 76.1171 38.9102 75.9091ZM37.7898 79.5725H37.0217V83.9634H33.5256V70.7098H38.6753C39.7957 70.7098 40.7819 71.1163 41.6342 71.9296C42.4862 72.7426 42.9122 73.8149 42.9122 75.1455C42.9122 76.3627 42.5089 77.3986 41.7018 78.2535C41.6056 78.3562 41.5058 78.4524 41.4038 78.5427L45.4873 83.9634H40.907L37.7898 79.5725Z" fill="#00404E"/>
<path d="M46.4839 82.8387C45.5536 81.9562 45.0883 80.9459 45.0883 79.8077V70.7009H48.5756V78.7776C48.5876 79.3437 48.7653 79.7924 49.1085 80.1238C49.4519 80.455 49.9335 80.6207 50.5538 80.6207C51.1562 80.6145 51.6381 80.4579 51.9998 80.1508C52.3608 79.8434 52.5418 79.3859 52.5418 78.7776V70.7009H56.0381V79.8077C56.0381 80.9762 55.5608 81.9935 54.6064 82.8608C53.6511 83.7284 52.3007 84.1619 50.5538 84.1619C48.7712 84.1619 47.4146 83.7209 46.4839 82.8387Z" fill="#00404E"/>
<path d="M67.6029 77.9647V70.7098H71.1265V83.9634H67.9372L62.1913 76.7088V83.9634H58.6677V70.7098H61.8573L67.6029 77.9647Z" fill="#00404E"/>
<path d="M74.6038 82.1563C73.3388 80.825 72.7061 79.2172 72.7061 77.3316C72.7061 75.4469 73.3784 73.8369 74.7211 72.503C76.0641 71.1691 77.7505 70.5017 79.7807 70.5017C81.7798 70.5017 83.343 71.0076 84.4693 72.0198L82.5989 75.0008C81.8522 74.3324 80.9128 73.9984 79.7807 73.9984C78.8046 73.9984 78.0098 74.3382 77.3957 75.019C76.7812 75.6997 76.4741 76.4705 76.4741 77.3316C76.4741 78.1933 76.7419 78.9641 77.278 79.6448C77.8139 80.3253 78.5664 80.6655 79.5364 80.6655C80.2415 80.6655 80.8582 80.5602 81.3888 80.3493V79.0034H79.7807V76.2027H84.8852V82.8068C83.1266 83.7163 81.343 84.1677 79.5364 84.1618C77.513 84.1556 75.8688 83.4876 74.6038 82.1563Z" fill="#00404E"/>
<path d="M90.5295 83.9634H87.0237V70.7098H90.5295V83.9634Z" fill="#00404E"/>
<path d="M98.102 84.1526C96.5784 84.0682 95.3738 83.6074 94.4883 82.7704C93.6029 81.9333 93.1606 80.9455 93.1606 79.8072V70.7005H96.6472V78.7772C96.6596 79.3432 96.837 79.792 97.1805 80.1234C97.5239 80.4545 98.0055 80.6202 98.6261 80.6202C99.2286 80.6141 99.7101 80.4574 100.072 80.1504C100.433 79.843 100.614 79.3855 100.614 78.7772V70.7005H104.11V79.8072C104.11 80.8792 103.731 81.7991 102.972 82.5669C102.212 83.3348 101.418 83.7913 100.586 83.9356C99.9119 84.279 99.417 84.6342 99.1002 85.0017C98.7844 85.3692 98.6261 85.6974 98.6261 85.9869C98.6261 86.113 98.6713 86.2183 98.7613 86.3028C98.8523 86.3872 98.9631 86.4292 99.096 86.4292C99.3251 86.4292 99.5204 86.4051 99.6828 86.357C99.8459 86.3086 100.042 86.2306 100.271 86.1221L100.948 87.2604C100.545 87.6038 99.8944 87.7754 98.9969 87.7754C98.2498 87.7754 97.6338 87.6626 97.1486 87.4365C96.6638 87.2106 96.4221 86.8295 96.4221 86.294C96.4221 85.4989 96.9819 84.785 98.102 84.1526Z" fill="#00404E"/>
<path d="M15.8379 93.2997L21.0912 85.8394H27.536L21.3076 94.8025L28.971 105.702H22.391L15.8379 96.4542V105.702H10.5843V85.8394H15.8379V93.2997Z" fill="#00404E"/>
<path d="M41.3064 90.7811H35.1053V92.9341H40.4941V97.3341H35.1053V100.746H41.3064V105.702H29.8653V85.8394H41.3064V90.7811Z" fill="#00404E"/>
<path d="M48.4281 100.679H55.0758V105.702H43.1745V85.8394H48.4281V100.679Z" fill="#00404E"/>
<path d="M61.507 105.702H56.2534V85.8399H61.507V105.702Z" fill="#00404E"/>
<path d="M71.0668 97.6051H73.8827L72.4611 92.6904L71.0668 97.6051ZM82.2366 105.702H76.8484L75.4668 102.005H69.4694L68.0877 105.702H62.7129L69.9974 85.8394H74.9527L82.2366 105.702Z" fill="#00404E"/>
<path d="M85.4866 105.221C84.3678 104.702 83.3518 103.942 82.4403 102.94L85.3921 99.0272C85.9607 99.5959 86.5787 100.054 87.2471 100.401C87.9149 100.749 88.515 100.923 89.0476 100.923C89.445 100.923 89.7742 100.817 90.0358 100.604C90.298 100.393 90.4286 100.11 90.4286 99.7583C90.4286 99.3521 90.2616 99.0337 89.9279 98.8037C89.5935 98.5736 89.2146 98.3546 88.7906 98.1469L87.7885 97.6732C86.8049 97.2037 85.8548 96.5314 84.9384 95.656C84.0224 94.7803 83.5643 93.4623 83.5643 91.7024C83.5643 89.9422 84.1937 88.4729 85.4528 87.295C86.712 86.117 88.3211 85.5283 90.2795 85.5283C92.2925 85.5283 94.1388 86.2776 95.8174 87.7759L92.7032 91.8649C91.602 91.0253 90.7942 90.6058 90.2795 90.6058C89.8733 90.6058 89.5597 90.7071 89.3388 90.9102C89.1175 91.1133 89.007 91.3775 89.007 91.7024C89.007 92.0904 89.1987 92.4085 89.5825 92.6568C89.9659 92.9054 90.4013 93.1374 90.8887 93.3541L91.5792 93.6654C92.6538 94.1167 93.6735 94.8163 94.6395 95.7642C95.6055 96.712 96.0884 98.0794 96.0884 99.8665C96.0884 101.663 95.4041 103.134 94.0371 104.28C92.6694 105.427 91.0291 106 89.1155 106C87.8158 106 86.606 105.74 85.4866 105.221Z" fill="#00404E"/>
<path fill-rule="evenodd" clip-rule="evenodd" d="M48.108 56.3767C47.7987 58.194 46.9334 59.8737 45.6174 61.1893C43.9368 62.8699 41.6749 63.8074 39.2976 63.8074C36.9204 63.8074 34.6588 62.8699 32.9779 61.1893C31.6632 59.8746 30.7978 58.197 30.4879 56.3809L26.458 56.3819C26.2581 56.3819 26.0645 56.3253 25.8961 56.2178L25.3567 55.8737C25.1907 55.7677 25.0588 55.6183 24.9704 55.4314L14.7559 33.3141C14.6168 33.0132 14.6302 32.6697 14.7826 32.3844L15.1478 31.5559C15.3077 31.1185 15.7489 30.829 16.2266 30.8741L33.6726 32.5238L49.4146 0.852989C49.4182 0.846169 49.4211 0.840313 49.4247 0.833488L49.4559 0.774677C49.4624 0.762329 49.4679 0.751934 49.475 0.740238C49.6167 0.494907 49.8198 0.291164 50.0648 0.148518C50.212 0.0620842 50.3576 0.0208206 50.5282 0.0165939L51.1764 0.000347137C51.3473 -0.00387573 51.4949 0.0299149 51.6466 0.108875C51.9387 0.2603 52.1776 0.496208 52.3335 0.785728L53.477 2.9079L68.0011 4.29994L83.2002 5.75567C84.0804 5.84016 84.7348 6.63171 84.6504 7.51197L83.9348 14.9836C83.9339 14.9921 83.9329 14.9995 83.9322 15.008L83.2184 22.452C83.195 22.698 83.1153 22.9352 82.9854 23.1454C82.6634 23.667 82.0723 23.9607 81.4624 23.9022L63.8819 22.2181L69.7743 33.1533L87.9293 31.7219C88.407 31.6842 88.8424 31.9789 88.9961 32.4169L89.336 33.2065C89.4812 33.4824 89.4972 33.8132 89.3708 34.1066L80.1867 55.3807C80.1054 55.5692 79.9719 55.7278 79.8003 55.8402L79.2538 56.1983C79.0832 56.3104 78.8856 56.3692 78.6815 56.3692L73.6346 56.3705C73.3262 58.1905 72.4599 59.872 71.1426 61.1893C69.4617 62.8702 67.1998 63.8074 64.8226 63.8074C62.4453 63.8074 60.1834 62.8702 58.5028 61.1893C57.1862 59.873 56.3205 58.1931 56.0118 56.3747L48.108 56.3767Z" fill="white"/>
<path fill-rule="evenodd" clip-rule="evenodd" d="M47.2486 55.4085C47.1196 57.3347 46.2988 59.1385 44.9328 60.5045C43.4332 62.0038 41.4182 62.8389 39.2974 62.8389C37.1768 62.8389 35.1615 62.0038 33.6623 60.5045C32.2972 59.1394 31.4761 57.337 31.3464 55.4124L26.4574 55.4134C26.4424 55.4134 26.4294 55.4098 26.4168 55.4013L25.8774 55.0572C25.8644 55.0491 25.8556 55.039 25.8491 55.0254L15.6343 32.9081C15.622 32.8811 15.6259 32.8509 15.6447 32.8278L16.0535 31.9004C16.06 31.8611 16.0957 31.8341 16.1354 31.8377L34.2433 33.5501L50.2816 1.284L50.3125 1.22486C50.3703 1.12478 50.4529 1.04224 50.5523 0.984402L51.2002 0.967834C51.3195 1.0299 51.417 1.12608 51.481 1.24468L52.8698 3.82178L67.8871 5.26125L67.9086 5.26353L83.1073 6.71926C83.4592 6.75305 83.7201 7.06726 83.6863 7.4195L82.9708 14.8912L82.9679 14.9149L82.2543 22.3596C82.2452 22.458 82.2134 22.5522 82.1614 22.6364C82.0327 22.8447 81.7975 22.9617 81.5544 22.9383L62.1692 21.0812L69.221 34.1679L88.0051 32.6868C88.0448 32.6839 88.0799 32.7115 88.0857 32.7511L88.4701 33.6441C88.4886 33.6668 88.4932 33.6957 88.4815 33.7227L79.2974 54.9971C79.2912 55.0111 79.2824 55.0218 79.2691 55.0303L78.7226 55.3887C78.7099 55.3971 78.6969 55.401 78.6813 55.401L72.7742 55.4023C72.6469 57.3308 71.8251 59.1368 70.4577 60.5045C68.9585 62.0038 66.9429 62.8389 64.8223 62.8389C62.7014 62.8389 60.6865 62.0038 59.1869 60.5045C57.8205 59.1378 56.9991 57.3334 56.8707 55.4062L47.2486 55.4085ZM45.1924 49.5066C46.3443 50.7722 47.0576 52.3677 47.2272 54.0707L56.8925 54.0688C57.054 52.4522 57.7048 50.9315 58.7596 49.6967L51.7854 42.5662L45.1924 49.5066ZM44.2117 48.5952L50.5052 41.97L17.4393 33.621L26.8863 54.0759L31.3672 54.0746C31.5489 52.2419 32.3596 50.537 33.6623 49.234C35.1615 47.7347 37.1768 46.8996 39.2974 46.8996C41.0858 46.8996 42.8057 47.4926 44.2117 48.5952ZM39.9287 49.2775V52.6458C40.0389 52.6774 40.1468 52.717 40.2507 52.7648L42.588 50.3043C41.8039 49.738 40.8902 49.3851 39.9287 49.2775ZM43.6477 51.2999L41.2733 53.6736C41.3507 53.8 41.4153 53.9336 41.4667 54.0723L44.8681 54.0714C44.7235 53.0517 44.3011 52.0951 43.6477 51.2999ZM35.788 50.4704L38.1711 52.8532C38.332 52.7625 38.5035 52.6913 38.6816 52.6416V49.2759C37.6213 49.3913 36.6212 49.8049 35.788 50.4704ZM37.2853 53.7311L34.9055 51.3513C34.2748 52.138 33.8676 53.0757 33.7263 54.074L37.1268 54.0733C37.17 53.955 37.2233 53.8406 37.2853 53.7311ZM41.3299 55.971L43.7143 58.3557C44.3856 57.5066 44.7957 56.4866 44.8983 55.4091L41.5453 55.4101C41.4985 55.6054 41.426 55.7942 41.3299 55.971ZM42.8382 59.2431L40.4603 56.8652C40.291 56.9643 40.1094 57.0416 39.9203 57.0949L39.919 60.4619C40.9906 60.3443 42.0009 59.9219 42.8382 59.2431ZM38.2189 56.9142L35.8319 59.3032C36.655 59.9472 37.6372 60.3482 38.6761 60.4623L38.6777 57.0965C38.5188 57.0527 38.3648 56.9916 38.2189 56.9142ZM34.9429 58.433L37.3152 56.0587C37.1944 55.8575 37.1043 55.6392 37.0498 55.4111L33.6967 55.4117C33.8026 56.522 34.2358 57.5706 34.9429 58.433ZM66.4087 13.9485L62.1923 13.5446L66.2101 16.0184L66.4087 13.9485ZM60.4672 58.433L62.8399 56.059C62.718 55.8559 62.6277 55.6353 62.5728 55.4049L59.2207 55.4056C59.326 56.5181 59.7591 57.5687 60.4672 58.433ZM63.7451 56.913L61.3568 59.3032C62.1799 59.9472 63.1622 60.3482 64.201 60.4623L64.2023 57.0959C64.0441 57.0517 63.8904 56.9903 63.7451 56.913ZM68.3632 59.2431L65.9866 56.8662C65.8166 56.9656 65.6347 57.0426 65.4452 57.0959L65.4439 60.4619C66.5156 60.3443 67.5255 59.9216 68.3632 59.2431ZM66.8548 55.971L69.2395 58.356C69.9118 57.505 70.3229 56.4827 70.4243 55.403L67.0716 55.4036C67.0248 55.6015 66.952 55.7922 66.8548 55.971ZM65.8923 52.82L68.282 50.4307C67.4628 49.7916 66.4863 49.3929 65.4537 49.2775V52.6452C65.6054 52.6881 65.7523 52.7469 65.8923 52.82ZM69.1729 51.2999L66.798 53.6736C66.874 53.7981 66.938 53.9294 66.989 54.0662L70.3924 54.0652C70.2469 53.0481 69.8248 52.0938 69.1729 51.2999ZM64.2062 52.6406V49.2759C63.1661 49.389 62.1825 49.7896 61.3585 50.4343L63.7127 52.8411C63.8686 52.7554 64.0347 52.6881 64.2062 52.6406ZM62.6534 54.0671C62.6875 53.9755 62.7274 53.8865 62.7726 53.7997L60.4067 51.3809C59.791 52.1594 59.3923 53.0848 59.2519 54.0678L62.6534 54.0671ZM72.7518 54.0649L78.2394 54.0636L86.7278 34.4005L53.0979 41.9891L59.7136 48.7528C61.1502 47.5515 62.9474 46.8996 64.8223 46.8996C66.9429 46.8996 68.9585 47.7347 70.4577 49.234C71.7582 50.5347 72.5682 52.2358 72.7518 54.0649ZM54.5338 40.1779L50.9851 8.44501L48.3433 39.9014L51.7897 40.7963L54.5338 40.1779ZM51.9745 5.23656L55.8491 39.8809L69.0072 36.9146L51.9745 5.23656ZM56.6348 10.8099L57.1528 11.7711L66.5361 12.6702L67.0923 6.86353L56.6348 10.8099ZM58.2472 13.8023L60.8561 18.6439L65.3 16.9659L59.4335 13.3545L58.2472 13.8023ZM69.9164 35.4585L70.5497 36.6338L78.8516 34.754L69.9164 35.4585ZM47.0254 39.5589L49.906 5.26418L34.5126 36.022L34.3856 36.2767L47.0254 39.5589ZM24.7424 33.9999L32.9841 36.0791L33.6012 34.8376L24.7424 33.9999ZM76.0162 7.33047L75.7812 9.78668L82.111 10.3933L82.3463 7.93713L76.0162 7.33047ZM74.3801 10.9431L68.0503 10.3365L67.815 12.793L74.1452 13.3997L74.3801 10.9431ZM68.1728 9.05785L74.5026 9.66418L74.7375 7.20829L68.408 6.60196L68.1728 9.05785ZM81.9885 11.6723L75.659 11.0656L75.4238 13.5219L81.7533 14.1282L81.9885 11.6723ZM69.8062 14.2744L74.4321 17.1228L79.5151 15.2047L69.8062 14.2744ZM81.5931 15.7948L75.816 17.9748L81.0738 21.2119L81.5931 15.7948ZM72.913 17.6957L67.6551 14.4583L67.1362 19.8754L72.913 17.6957ZM69.2145 20.4655L78.9227 21.3958L74.2972 18.5477L69.2145 20.4655ZM65.0092 6.27604L53.7503 5.19692L56.1487 9.61901L65.0092 6.27604ZM66.0135 18.0707L61.6028 19.7363L65.8153 20.1399L66.0135 18.0707Z" fill="#00404E"/>
<path fill-rule="evenodd" clip-rule="evenodd" d="M68.0505 10.3367L74.3803 10.943L74.1451 13.3999L67.8153 12.7929L68.0505 10.3367Z" fill="#ED1C24"/>
<path fill-rule="evenodd" clip-rule="evenodd" d="M76.0164 7.32767L82.3462 7.934L82.111 10.3909L75.7812 9.78388L76.0164 7.32767Z" fill="#ED1C24"/>
<path fill-rule="evenodd" clip-rule="evenodd" d="M68.426 6.58108L74.7558 7.1871L74.5206 9.64429L68.1907 9.0373L68.426 6.58108Z" fill="white"/>
<path fill-rule="evenodd" clip-rule="evenodd" d="M75.7008 11.062L82.0306 11.6684L81.7954 14.1252L75.4655 13.5183L75.7008 11.062Z" fill="white"/>
</svg>
