<svg width="950" height="500" fill="none" xmlns="http://www.w3.org/2000/svg">
<g id="wrap">
<path
      id="line"
      d="M1 27.0001C19.5 21.5002 53.8336 1.29291 65.5 3.50028C77.1664 5.70765 81.5 15.8275 96.5 18C123.5 18 143.5 19.5 166.5 27C174.269 30.7063 180.5 40.0001 194 45.0001C207.5 50.0001 200 48.5001 214.5 55.5001C219.619 57.1091 228 56 233 55.5001C238 55.0002 253.633 59.5142 265.5 63.5C271.658 65.5538 275.583 67.4865 280 70.5C285 72.8277 286.908 73.9972 291.5 75.0001C298 77.0001 301.079 77.1397 306 77.1724C311.206 77.1067 313.903 77.434 318 79.1724C324.181 82.0839 326.695 84.247 331 88C337.531 93.5472 340.991 96.1544 345.5 101.172C350 105.5 353.495 106.363 359 108.672C365.357 110.577 369 110.5 373 112C377 113.5 387 121 395.5 124.172C410 129 413 132 420 135.172C422.803 136.777 432.365 139.648 435 140.672C436.331 141.19 440.471 142.318 441.5 142.5C445.39 143.361 448 143 451.5 143.5C455 144 461 147.5 468 150.172C470.509 151.13 475.5 152.5 488.5 154.172C498 156.5 519 165 538 176.172L552.5 187.172C552.5 187.172 561.5 195 567.5 197.672C573.5 200.345 581.5 200 585.26 201.829C589.02 203.658 608.389 215.809 613.841 218.177C625.5 225 633.111 228.511 645.081 232.693C649.748 233.859 650.5 234.172 659.5 236.172C668.5 238.172 693 255.172 710 258.672C727 262.172 730 257.5 737.5 262.5C745 267.5 754.5 274 765 280.672C770.566 284.357 776.294 288.487 786.5 291.172C796.706 293.858 819.5 304 828.5 309.172C847.309 318.218 856.821 322.309 872 328.172"
      stroke="transparent"
      stroke-width="5"
    /> 
</g>
<g id="car-wrap">
<g id="car">
   <path
        d="M424.077 104.824C425.294 105.09 426.527 105.295 427.721 105.629C429.536 106.13 431.206 106.996 432.794 107.998C433.187 108.249 433.618 108.431 433.958 108.758C433.799 109.145 433.421 109.153 433.096 109.251C432.696 109.183 432.31 109.274 431.917 109.305C430.526 109.419 429.279 109.973 428.046 110.573C427.857 110.664 427.668 110.854 427.426 110.679C427.366 110.619 427.29 110.573 427.268 110.482C427.26 110.444 427.26 110.398 427.268 110.353C427.298 110.155 427.298 109.95 427.32 109.753C427.336 109.639 427.336 109.525 427.32 109.419C427.298 109.259 427.305 109.092 427.26 108.932C427.222 108.773 427.169 108.613 427.109 108.462C427.018 108.295 426.927 108.12 426.859 107.945C426.791 107.816 426.716 107.702 426.617 107.596C426.474 107.436 426.33 107.284 426.156 107.155C426.126 107.133 426.096 107.11 426.066 107.095C424.833 106.267 423.586 106.259 422.384 107.102C422.225 107.208 421.991 107.17 421.908 107.353C421.613 108.044 421.106 108.644 421.083 109.464C421.068 109.859 421.114 110.254 421.106 110.641C421.106 110.74 421.129 110.846 421.053 110.93C421 110.975 420.94 110.991 420.879 110.968C420.796 110.937 420.713 110.907 420.637 110.854C418.732 109.464 416.472 108.932 414.31 108.15C411.49 107.133 408.549 106.616 405.601 106.16C403.968 105.91 402.327 105.75 400.679 105.773C399.825 105.788 398.971 105.674 398.116 105.689C397.859 105.697 397.61 105.712 397.39 105.864C397.186 106.001 397.012 106.153 397.02 106.434C396.498 106.753 395.962 107.049 395.584 107.565C394.676 108.803 394.744 110.505 395.758 111.659C395.878 111.803 396.143 111.925 396.045 112.137C395.954 112.327 395.697 112.206 395.523 112.229C395.402 112.244 395.274 112.213 395.145 112.244C394.692 112.251 394.238 112.251 393.784 112.259C393.603 112.236 393.482 112.122 393.391 111.978C392.703 110.937 392.03 109.889 391.358 108.834C391.282 108.712 391.237 108.583 391.259 108.439C391.282 108.219 391.479 108.241 391.622 108.173C391.736 108.12 391.947 108.143 391.932 107.968C391.917 107.816 391.713 107.839 391.584 107.808C391.418 107.77 391.244 107.748 391.07 107.732C390.949 107.725 390.851 107.687 390.851 107.535C391.002 107.36 390.798 107.049 391.085 106.92C391.184 106.677 391.358 106.502 391.577 106.358C392.114 106.008 392.62 105.629 393.217 105.234C392.62 105.097 392.091 105.158 391.569 105.158C391.335 105.158 391.146 105.105 391.017 104.9C390.836 104.824 390.647 104.755 390.413 104.664C390.738 104.459 391.048 104.376 391.358 104.3C394.881 103.472 398.396 102.629 401.957 101.976C403.771 101.641 405.586 101.269 407.423 101.072C408.776 100.928 410.137 101.034 411.497 101.102C413.221 101.193 414.922 101.467 416.578 101.968C416.578 102.135 416.434 102.181 416.328 102.196C415.625 102.287 414.922 102.272 414.219 102.31C413.909 102.325 413.599 102.462 413.282 102.409C413.13 102.378 412.979 102.272 412.82 102.401C412.503 102.53 412.17 102.522 411.853 102.454C411.104 102.295 410.348 102.393 409.6 102.34C408.632 102.279 407.71 102.409 406.818 102.803C406.289 103.039 405.729 103.198 405.177 103.388C405.087 103.419 404.966 103.441 404.943 103.555C404.913 103.7 405.049 103.745 405.139 103.798C405.412 103.965 405.691 104.11 405.948 104.284C406.41 104.603 406.901 104.687 407.415 104.467C408.345 104.072 409.282 104.292 410.212 104.376C411.535 104.497 412.851 104.664 414.166 104.778C414.499 104.809 414.846 104.793 415.172 104.9C415.262 104.93 415.338 104.9 415.33 104.778C415.172 104.452 415.232 104.315 415.602 104.254C415.943 104.201 416.283 104.224 416.616 104.117C416.789 104.201 416.925 103.981 417.092 104.057C417.175 104.095 417.243 104.148 417.311 104.209C417.372 104.383 417.341 104.505 417.183 104.626C416.978 104.786 417.016 104.93 417.258 105.029C417.379 105.074 417.5 105.067 417.629 105.097C417.855 105.143 418.037 105.241 418.188 105.431C418.43 105.735 418.498 105.727 418.672 105.393C418.717 105.317 418.747 105.234 418.853 105.234C419.897 105.036 420.955 104.998 422.006 104.907C422.558 104.862 423.094 104.755 423.646 104.748C423.79 104.763 423.934 104.786 424.077 104.824Z"
        fill="#BA6351"
      />
   <path
        d="M427.577 109.403C427.577 109.525 427.577 109.646 427.577 109.768C427.457 109.965 427.6 110.193 427.494 110.39V110.383C427.381 110.55 427.487 110.694 427.562 110.831C427.562 110.869 427.555 110.899 427.54 110.937C427.472 111.158 427.381 111.37 427.23 111.552C427.131 111.659 427.041 111.78 426.98 111.909C426.874 112.16 426.625 112.145 426.421 112.213C426.391 112.228 426.353 112.251 426.323 112.266C425.06 113.185 423.654 113.246 422.331 112.418C422.089 112.266 421.832 112.259 421.567 112.259C415.247 112.259 408.919 112.259 402.599 112.259C402.221 112.259 401.843 112.266 401.465 112.259C400.747 112.236 400.067 112.282 399.386 112.631C398.585 113.049 397.678 113.026 396.861 112.638C396.294 112.373 395.742 112.213 395.13 112.244C395.364 112.221 395.606 112.198 395.841 112.183C395.901 112.039 395.78 111.993 395.72 111.932C394.117 110.201 394.487 107.702 396.529 106.502C396.612 106.449 396.695 106.388 396.778 106.335C397.398 105.773 398.146 105.849 398.857 105.993C400.558 106.335 401.76 107.854 401.677 109.509C401.662 109.813 401.7 110.117 401.639 110.413C401.427 110.877 401.261 111.37 400.936 111.788C400.845 111.902 400.921 111.978 401.049 112.001C401.148 112.016 401.254 112.016 401.352 112.016C407.869 112.016 414.393 112.016 420.91 112.016C421 112.016 421.083 112.016 421.174 112.008C421.363 111.993 421.416 111.894 421.325 111.727C421.257 111.598 421.159 111.476 421.144 111.317C421.121 110.816 420.917 110.345 420.902 109.844C420.857 108.871 421.114 108.021 421.839 107.315C422.202 106.965 422.565 106.646 423.034 106.472C424.213 106.039 425.287 106.274 426.3 106.958L426.292 106.95C426.489 107.117 426.678 107.284 426.829 107.497C426.905 107.596 426.973 107.702 427.048 107.801C427.184 107.99 427.245 108.211 427.358 108.408C427.404 108.568 427.457 108.72 427.502 108.879C427.6 109.046 427.464 109.244 427.577 109.403Z"
        fill="#464A4A"
      />
   <path
        d="M426.323 112.274C426.338 112.251 426.345 112.236 426.36 112.213C426.542 112.084 426.693 111.932 426.822 111.75C426.897 111.651 426.973 111.545 427.041 111.446C427.177 111.264 427.23 111.036 427.351 110.839L427.343 110.846C427.396 110.778 427.351 110.649 427.487 110.626C428.303 110.277 429.09 109.844 429.936 109.54C430.957 109.175 432.015 109.084 433.081 109.023C433.187 109.145 433.119 109.221 433.013 109.297C432.62 109.57 432.424 110.003 432.182 110.39C432.053 110.603 432.106 110.747 432.356 110.801C432.499 110.831 432.65 110.854 432.802 110.877C432.983 110.907 433.18 110.93 433.255 111.15C433.142 111.439 433.376 111.537 433.542 111.651C433.837 111.849 433.807 111.985 433.505 112.137C433.353 112.213 433.217 112.282 433.043 112.282C430.806 112.282 428.56 112.274 426.323 112.274Z"
        fill="#AA412B"
      />
   <path
        d="M391.35 108.492C392.159 109.752 392.968 111.013 393.777 112.281C393.663 112.372 393.55 112.35 393.422 112.327C392.091 112.061 392.091 112.061 391.252 110.99C390.881 110.512 390.503 110.033 390.14 109.555C389.914 109.259 389.974 108.56 390.231 108.271C390.511 108.279 390.798 108.203 391.078 108.302C391.191 108.332 391.335 108.317 391.35 108.492Z"
        fill="#654B54"
      />
   <path
        d="M412.647 102.241C413.516 102.143 414.385 102.211 415.247 102.188C415.686 102.181 416.124 102.143 416.548 101.998C417.077 101.938 417.53 102.181 417.992 102.363C419.912 103.122 421.824 103.889 423.745 104.656C423.858 104.702 423.964 104.77 424.077 104.831C422.316 105.013 420.554 105.203 418.785 105.386C418.596 105.507 418.521 105.424 418.49 105.234C418.483 105.021 418.657 105.013 418.793 104.96C419.224 104.786 419.677 104.793 420.123 104.755C420.947 104.687 421.772 104.581 422.58 104.565C420.985 103.935 419.375 103.274 417.765 102.636C417.674 102.598 417.576 102.56 417.485 102.53C416.744 102.332 416.026 102.56 415.27 102.568C415.308 102.788 415.451 102.834 415.55 102.917C415.996 103.267 416.472 103.578 416.91 103.935C417.009 104.018 417.213 104.087 417.062 104.292C416.918 104.3 416.767 104.307 416.623 104.315C416.374 104.315 416.162 104.208 415.958 104.064C415.398 103.654 414.824 103.259 414.287 102.834C413.917 102.545 413.531 102.393 413.062 102.515C412.866 102.515 412.677 102.507 412.647 102.241Z"
        fill="#464A4A"
      />
   <path
        d="M433.255 111.157C432.847 111.097 432.439 111.028 432.023 110.983C431.69 110.945 431.652 110.823 431.841 110.558C432.023 110.299 432.189 110.033 432.348 109.76C432.529 109.449 432.741 109.183 433.081 109.039C433.391 109.008 433.671 108.871 433.958 108.765C434.011 108.871 434.011 108.985 433.973 109.092C433.731 109.775 433.497 110.466 433.255 111.157Z"
        fill="#654B54"
      />
   <path
        d="M390.995 104.922C391.879 105.043 392.771 104.937 393.784 105.104C392.817 105.757 391.94 106.35 391.063 106.942C391.04 106.274 391.017 105.598 390.995 104.922Z"
        fill="#654B54"
      />
   <path
        d="M391.35 108.492C391.04 108.469 390.738 108.438 390.428 108.416C390.322 108.408 390.231 108.4 390.224 108.264C390.443 108.051 390.549 107.724 390.828 107.565C391.335 107.611 391.864 107.557 392.303 107.907C392.371 107.96 392.484 107.99 392.477 108.089C392.469 108.218 392.333 108.21 392.242 108.241C391.955 108.317 391.652 108.4 391.35 108.492Z"
        fill="#F16B6F"
      />
   <path
        d="M401.427 110.299C402.002 107.763 399.719 105.56 397.224 106.236C397.08 106.274 396.929 106.305 396.786 106.342C396.831 106.267 396.884 106.198 396.929 106.122C397.179 105.659 397.549 105.515 398.078 105.522C400.452 105.583 402.834 105.575 405.2 105.902C407.445 106.221 409.675 106.631 411.868 107.201C413.849 107.71 415.746 108.469 417.674 109.115C418.899 109.525 419.965 110.201 421.046 110.869C421.257 110.968 421.28 111.142 421.235 111.34C421.136 111.484 421 111.461 420.887 111.393C419.821 110.808 418.664 110.854 417.5 110.861C412.541 110.869 407.581 110.869 402.622 110.869C402.471 110.869 402.32 110.869 402.168 110.869C401.586 110.869 401.556 110.846 401.427 110.299Z"
        fill="#AA412B"
      />
   <path
        d="M413.229 102.264C413.682 102.211 414.045 102.401 414.401 102.674C415.126 103.236 415.882 103.768 416.623 104.315C416.238 104.497 415.799 104.398 415.376 104.535C415.466 104.649 415.542 104.74 415.618 104.831C415.565 104.976 415.421 104.953 415.33 104.945C414.423 104.831 413.508 104.771 412.601 104.672C411.588 104.558 410.583 104.444 409.57 104.345C409.396 104.33 409.229 104.262 409.063 104.277C408.534 104.338 408.3 104.064 408.179 103.586C408.103 103.267 407.952 102.971 407.869 102.652C407.816 102.439 407.891 102.34 408.103 102.333C408.216 102.325 408.33 102.333 408.443 102.333C409.963 102.348 411.49 102.264 413.009 102.295C413.085 102.295 413.161 102.302 413.229 102.264Z"
        fill="#01404D"
      />
   <path
        d="M417.062 104.292C416.381 103.791 415.701 103.289 415.028 102.788C414.922 102.712 414.733 102.652 414.771 102.5C414.809 102.355 414.99 102.416 415.104 102.409C415.58 102.355 416.056 102.317 416.532 102.272C417.001 102.234 417.447 102.287 417.893 102.469C419.496 103.13 421.114 103.768 422.724 104.421C422.853 104.474 422.974 104.527 423.178 104.619C422.875 104.748 422.641 104.755 422.399 104.77C421.424 104.846 420.441 104.922 419.466 105.014C419.194 105.036 418.936 105.188 418.657 105.15C418.604 105.15 418.543 105.165 418.513 105.127C418.271 104.808 417.908 104.74 417.545 104.672C417.387 104.641 417.258 104.581 417.22 104.406C417.175 104.36 417.122 104.33 417.062 104.292Z"
        fill="#01404D"
      />
   <path
        d="M413.229 102.264C413.055 102.287 412.881 102.325 412.707 102.325C411.308 102.355 409.917 102.378 408.519 102.408C408.02 102.416 407.997 102.454 408.156 102.94C408.526 104.041 408.526 104.034 409.691 104.17C411.55 104.383 413.418 104.603 415.277 104.824C415.391 104.839 415.504 104.839 415.618 104.839C415.663 104.892 415.716 104.953 415.807 105.051C415.277 105.112 414.801 104.998 414.317 104.96C412.397 104.801 410.484 104.603 408.572 104.451C408.02 104.406 407.498 104.702 406.969 104.831C406.704 104.9 406.493 104.884 406.258 104.74C405.608 104.338 404.943 103.965 404.3 103.593C404.3 103.487 404.353 103.472 404.399 103.457C405.525 103.069 406.659 102.682 407.785 102.302C407.846 102.279 407.906 102.272 407.967 102.272C409.524 102.264 411.089 102.257 412.647 102.257C412.843 102.249 413.04 102.257 413.229 102.264Z"
        fill="#464A4A"
      />
   <path
        d="M417.228 104.398C417.462 104.444 417.697 104.512 417.931 104.528C418.332 104.558 418.634 104.672 418.657 105.135C418.642 105.249 418.649 105.348 418.785 105.378C418.785 105.469 418.793 105.553 418.785 105.644C418.77 105.788 418.853 105.986 418.664 106.039C418.49 106.092 418.301 106.001 418.211 105.841C417.969 105.431 417.613 105.272 417.152 105.249C417.031 105.241 416.903 105.219 416.812 105.12C416.57 104.862 416.646 104.573 416.971 104.474C417.062 104.452 417.145 104.429 417.228 104.398Z"
        fill="#AA412C"
      />
   <path
        d="M421.235 111.226C421.167 111.112 421.106 110.991 421.038 110.877C420.418 108.955 421.265 107.565 422.202 106.867C423.42 105.955 425.302 105.993 426.292 106.958C425.703 106.722 425.166 106.343 424.485 106.328C423.518 106.305 422.694 106.51 421.976 107.269C421.492 107.778 421.152 108.295 421 108.97C420.864 109.601 420.978 110.193 421.167 110.786C421.212 110.93 421.242 111.074 421.28 111.226C421.272 111.264 421.257 111.264 421.235 111.226Z"
        fill="#464A4A"
      />
   <path
        d="M426.822 107.498C426.617 107.346 426.428 107.171 426.285 106.951C426.519 107.08 426.716 107.247 426.822 107.498Z"
        fill="#464A4A"
      />
   <path
        d="M427.351 108.416C427.184 108.241 427.094 108.036 427.041 107.809C427.23 107.96 427.32 108.173 427.351 108.416Z"
        fill="#464A4A"
      />
   <path
        d="M427.494 110.39C427.494 110.178 427.479 109.965 427.578 109.768C427.6 109.98 427.585 110.193 427.494 110.39Z"
        fill="#464A4A"
      />
   <path
        d="M427.578 109.403C427.494 109.244 427.494 109.061 427.494 108.887C427.593 109.046 427.593 109.221 427.578 109.403Z"
        fill="#464A4A"
      />
   <path
        d="M427.487 110.634C427.441 110.71 427.396 110.778 427.343 110.854C427.358 110.687 427.396 110.528 427.494 110.391C427.494 110.467 427.494 110.551 427.487 110.634Z"
        fill="#464A4A"
      />
   <path
        d="M421.235 111.226C421.25 111.226 421.272 111.226 421.288 111.226C421.371 111.514 421.552 111.742 421.749 111.955C421.9 112.114 421.855 112.198 421.643 112.205C421.545 112.205 421.439 112.205 421.341 112.205C414.544 112.205 407.74 112.205 400.944 112.205C400.906 112.205 400.868 112.213 400.83 112.205C400.687 112.183 400.483 112.281 400.422 112.122C400.369 111.985 400.558 111.902 400.649 111.803C401.042 111.37 401.291 110.869 401.42 110.307C401.617 110.618 401.889 110.702 402.252 110.702C407.627 110.694 412.994 110.702 418.369 110.686C419.216 110.686 420.018 110.77 420.774 111.165C420.91 111.226 421.061 111.347 421.235 111.226Z"
        fill="#654B54"
      />
   <path
        d="M398.078 112.153C396.619 112.145 395.47 110.976 395.485 109.51C395.5 108.067 396.657 106.905 398.094 106.905C399.538 106.905 400.709 108.082 400.717 109.54C400.709 110.983 399.538 112.153 398.078 112.153Z"
        fill="#919090"
      />
   <path
        d="M426.512 108.249C427.011 108.826 427.041 109.51 426.912 110.216C426.822 110.733 426.504 111.165 426.292 111.636C426.285 111.659 426.27 111.689 426.247 111.697C425.695 111.925 425.272 112.419 424.629 112.457C423.903 112.495 423.231 112.396 422.611 111.917C421.877 111.348 421.28 110.095 421.575 109.1C421.84 108.203 422.24 107.429 423.253 107.193C423.268 107.201 423.284 107.209 423.306 107.224C423.389 107.398 423.238 107.444 423.14 107.512C422.906 107.679 422.664 107.839 422.467 108.059C421.802 108.796 421.658 109.927 422.119 110.824C422.573 111.72 423.541 112.206 424.584 112.084C425.536 111.97 426.345 111.226 426.595 110.269C426.738 109.715 426.625 109.191 426.451 108.674C426.406 108.545 426.27 108.401 426.459 108.272C426.474 108.257 426.497 108.257 426.512 108.249Z"
        fill="#464A4A"
      />
   <path
        d="M423.261 107.193C423.82 106.776 425.06 106.89 425.687 107.421C425.68 107.444 425.68 107.459 425.672 107.482C425.567 107.626 425.453 107.55 425.34 107.497C424.795 107.269 424.244 107.178 423.661 107.315C423.518 107.345 423.367 107.383 423.276 107.209L423.261 107.193Z"
        fill="#464A4A"
      />
   <path
        d="M425.687 107.421C426.118 107.542 426.398 107.816 426.519 108.256L426.496 108.279C426.451 108.302 426.406 108.355 426.36 108.325C426.066 108.12 425.816 107.877 425.619 107.58C425.597 107.542 425.642 107.489 425.665 107.444L425.687 107.421Z"
        fill="#464A4A"
      />
   <path
        d="M427.351 110.839C427.313 111.074 427.222 111.287 427.041 111.446C427.094 111.211 427.184 111.006 427.351 110.839Z"
        fill="#464A4A"
      />
   <path
        d="M426.822 111.75C426.731 111.971 426.58 112.13 426.36 112.214C426.481 112.031 426.64 111.88 426.822 111.75Z"
        fill="#464A4A"
      />
   <path
        d="M398.834 109.434C398.834 109.852 398.509 110.171 398.094 110.171C397.678 110.171 397.345 109.844 397.353 109.434C397.353 109.016 397.678 108.697 398.094 108.697C398.509 108.697 398.834 109.024 398.834 109.434Z"
        fill="#474B4B"
      />
   <path
        d="M425.665 107.436C425.967 107.687 426.239 107.968 426.489 108.272C426.769 108.864 426.943 109.472 426.822 110.14C426.61 111.317 425.635 112.206 424.455 112.297C423.223 112.388 422.112 111.644 421.756 110.482C421.394 109.32 421.855 108.074 422.883 107.444C423.011 107.368 423.14 107.292 423.276 107.216C424.1 106.943 424.901 107.026 425.665 107.436Z"
        fill="#919090"
      />
   <path
        d="M425.015 109.623C425.015 110.041 424.69 110.368 424.274 110.368C423.866 110.368 423.541 110.034 423.541 109.616C423.541 109.198 423.866 108.872 424.274 108.872C424.69 108.872 425.015 109.206 425.015 109.623Z"
        fill="#474B4B"
      />
</g>
</g>
<animateMotion
    href="#car"
    dur="80s"
    begin="0s"
    fill="freeze"
    repeatCount="indefinite"
    rotate="auto"
  >
    <mpath href="#line" />
</animateMotion>
  <style>
  #wrap{
    transform: translateY(20%);
  }
  #car-wrap{
    transform: translateY(20%);
  }
  #car{ 
    transform: translate(-43.6%, -22.5%);
       

  }
  #line{ 
    <!-- transform: translateY(30px); -->
    <!-- position:relative;
    top:20px; -->


  }
  </style>
</svg>
