<svg width="34" height="34" viewBox="0 0 34 34" fill="none" xmlns="http://www.w3.org/2000/svg">
<path d="M31.5479 0H2.4521C1.09778 0 0 1.09778 0 2.4521V31.5479C0 32.9022 1.09778 34 2.4521 34H18.1621V20.8516H13.7461V15.7051H18.1621V11.9176C18.1621 7.52544 20.8435 5.13481 24.7615 5.13481C26.638 5.13481 28.2507 5.27463 28.7207 5.33714V9.92773H26.0191C23.8873 9.92773 23.4746 10.9407 23.4746 12.4273V15.7051H28.5713L27.9072 20.8516H23.4746V34H31.5479C32.9022 34 34 32.9022 34 31.5479V2.4521C34 1.09778 32.9022 0 31.5479 0Z" fill="#00404E"/>
</svg>
