<svg
  width="700"
  height="500"
  viewBox="0 0 700 500"
  fill="none"
  xmlns="http://www.w3.org/2000/svg"
>
<g>
   <path
      id="line"
      d="M623 452C623 452 562.5 458 559.5 456C556.5 454 556 441 550.5 435.5C545 430 531.5 426 527.5 422C523.5 418 517 404.5 512 398.5C507 392.5 494 389.5 487 384C480 378.5 472 366 467 361C462 356 450.5 338 449.5 331C448.5 324 440 298 436 293.5C432 289 415.5 284.5 420 254C424.5 223.5 420 215.5 406.5 210.5C393 205.5 393 206 372 196C351 186 343.5 160.5 337 162.5C330.5 164.5 302 172 295.5 174.5C289 177 272 185.5 256.5 194C241 202.5 235 195.79 216.5 194C198 192.21 195.5 203.5 182 212C168.5 220.5 148 221 141.5 214C135 207 130.5 191 120 180C109.5 169 116.5 160.125 109 157C101.5 153.875 85 141 82 132C79 123 66.5 99 64 94C61.5 89 52.5 63 50 56C47.5 49 32.5 31 32.5 31"
      stroke="transparent"
      stroke-width="3"
    />
</g>
<g id="car">
   <path
      d="M10.8457 2.97215C11.1894 2.74075 11.5331 2.51616 11.8768 2.28476C12.0349 2.10782 12.248 2.07379 12.461 2.04656C16.1592 1.66544 19.8574 1.28432 23.5487 0.903196C23.7068 0.889585 23.8718 0.889585 24.0299 0.889585C28.8348 0.889585 33.6397 0.889585 38.4446 0.889585C38.9395 0.889585 39.4207 0.978059 39.9156 0.964448C40.2181 0.957642 40.4312 0.910002 40.4312 0.549297C40.4312 0.454017 40.4449 0.338319 40.5892 0.324707C41.0086 0.998477 41.2285 1.71989 41.2148 2.52297C41.1942 4.26524 41.201 6.00071 41.201 7.74298C40.9192 7.92674 40.5893 7.79743 40.2937 7.89271C39.2901 7.98118 38.2865 7.99479 37.2829 8.05605C36.1418 8.1241 35.0007 8.14452 33.8665 8.23299C33.3441 8.27383 32.8148 8.29425 32.2924 8.30786C30.6289 8.3555 28.9654 8.46439 27.295 8.53925C25.8721 8.60731 24.4492 8.72301 23.0263 8.83871C22.0158 8.92038 20.9985 8.97482 19.988 9.05649C19.8643 9.0701 19.7337 9.05649 19.61 9.03607C19.0188 8.9476 18.4276 9.00885 17.8296 8.99524C17.6646 8.98843 17.5546 9.09052 17.4515 9.19261C17.1491 9.32872 16.8191 9.25386 16.5098 9.29469C15.8018 9.38317 15.08 9.38997 14.3651 9.46484C14.2277 9.47845 14.0902 9.47164 13.9664 9.40358C13.829 9.15177 13.609 9.10413 13.3409 9.11774C13.1141 9.13135 12.8872 9.13816 12.6604 9.11774C12.3373 9.08371 12.1105 9.17219 12.0417 9.51248C11.8905 9.62817 11.7049 9.6554 11.5193 9.6622C10.5845 9.69623 9.6496 9.80512 8.68038 9.85276C8.82473 9.92763 8.93471 10.0025 9.05844 10.0501C9.53275 10.2407 9.8627 10.5606 10.0345 11.037C10.1926 11.4861 10.4607 11.6223 10.9694 11.5882C12.0624 11.5134 13.1691 11.6018 14.262 11.5542C15.8155 11.4861 17.3759 11.5542 18.9294 11.4793C20.3111 11.4113 21.6996 11.493 23.0813 11.4181C24.5798 11.3364 26.0783 11.4113 27.5769 11.35C28.2986 11.3228 29.0135 11.2956 29.7353 11.2956C29.9484 11.2956 30.1408 11.2411 30.3196 11.1254C30.8901 10.7715 31.4675 10.4244 32.0449 10.0705C32.2649 9.93443 32.4986 9.87318 32.7598 9.86638C33.7359 9.83915 34.7051 9.91402 35.6744 9.94124C35.915 9.94804 36.1143 10.0433 36.2862 10.2135C36.4718 10.3972 36.6917 10.5538 36.8704 10.7375C37.1935 11.0778 37.5853 11.2207 38.039 11.316C38.857 11.4861 39.6819 11.6018 40.4724 11.8809C40.7061 11.9149 40.9467 11.9013 41.1873 11.9081C41.3248 11.9149 41.4622 11.9149 41.5722 12.017C42.0534 12.2484 42.0603 12.2484 41.9228 12.7588C41.8747 12.9562 41.9366 13.2352 41.5929 13.2556C41.5791 13.2556 41.5654 13.3986 41.5585 13.4734C41.5585 13.9362 41.5516 14.399 41.5585 14.8618C41.5585 15.0251 41.5104 15.0728 41.3454 15.0728C40.0325 15.066 38.7195 15.066 37.4066 15.0728C37.2898 15.0728 37.2141 15.0319 37.1523 14.9367C37.0629 14.8822 37.0217 14.7937 37.0148 14.6985C36.9942 14.4535 37.1523 14.3378 37.3516 14.2493C37.8809 14.0043 38.4171 13.7865 38.9395 13.5415C39.2213 13.4122 39.5307 12.8949 39.51 12.6091C39.4963 12.4321 39.3657 12.4594 39.2557 12.4594C38.857 12.4526 38.4583 12.4594 38.0596 12.4526C37.2829 12.4458 36.5061 12.473 35.7362 12.4321C35.3169 12.3369 34.9457 12.0919 34.5058 12.017C33.9078 11.9217 33.351 11.9966 32.8011 12.2348C32.6155 12.3164 32.4299 12.4117 32.2237 12.439C32.0174 12.4526 31.8112 12.4594 31.605 12.4594C24.3392 12.4594 17.0666 12.4594 9.80083 12.4594C9.64273 12.4594 9.47776 12.4594 9.31965 12.4526C9.09969 12.439 8.92097 12.3573 8.80411 12.1667C8.59789 11.8332 8.28169 11.6291 7.91049 11.5134C7.27122 11.316 6.63194 11.2888 5.99266 11.5202C5.5871 11.6699 5.17466 11.8128 4.81722 12.0646C4.62475 12.2007 4.40478 12.2484 4.17106 12.2484C2.9475 12.2552 1.72394 12.228 0.500375 12.1803C0.376644 12.1735 0.246039 12.1667 0.156677 12.0578C0.314778 11.1663 0.47288 10.2679 0.624107 9.37636C0.665351 9.11774 0.809703 8.96121 1.05717 8.87274C2.4732 8.34189 3.88923 7.80423 5.30527 7.26658C5.36713 7.24616 5.43587 7.24616 5.50461 7.23935C6.05453 7.34144 6.52883 7.21894 6.94127 6.8174C8.31606 5.48347 9.84895 4.3333 11.3337 3.1559C11.1825 3.10826 10.9419 3.22396 10.8457 2.97215Z"
      fill="#D9E3E8"
    />
   <path
      d="M0.156671 12.0716C1.57271 12.1329 2.98874 12.1261 4.40477 12.1261C4.5835 12.1261 4.70035 12.0172 4.83096 11.9355C5.59397 11.4523 6.40509 11.1733 7.31933 11.2753C7.828 11.3298 8.3023 11.4591 8.68037 11.8266C8.71474 11.8606 8.76973 11.8811 8.7766 11.9219C8.90721 12.4187 9.29903 12.3507 9.67709 12.3507C17.0735 12.3439 24.4698 12.3439 31.8731 12.3439C32.0106 12.3439 32.148 12.3507 32.2855 12.3575C32.313 12.5004 32.1962 12.5548 32.1205 12.6229C31.6669 13.0176 31.3094 13.4736 31.1513 14.0589C31.1101 14.2018 31.0551 14.3175 30.8695 14.2631C30.6633 14.229 30.457 14.2359 30.2508 14.2359C23.7549 14.2359 17.2591 14.2359 10.7632 14.2359C10.557 14.2359 10.3507 14.2359 10.1514 14.2699C9.91081 14.3311 9.90393 14.1338 9.85582 13.9908C9.464 12.9155 8.70099 12.2486 7.57366 12.024C6.22637 11.7518 4.81034 12.5072 4.27417 13.7594C4.19168 13.9568 4.16418 14.1746 4.00608 14.3379C3.16059 13.8751 2.21198 13.7118 1.3115 13.4056C0.967799 13.2899 0.617226 13.1742 0.266655 13.0721C0.163546 13.0448 0.0741838 13.004 0.0191922 12.9019C0.053562 12.6229 -0.111413 12.3098 0.156671 12.0716Z"
      fill="#654B54"
    />
   <path
      d="M40.5961 0.318169C40.4793 0.420256 40.5205 0.556371 40.5343 0.672069C40.5618 0.964716 40.4587 1.07361 40.1493 1.0668C39.6613 1.06 39.1663 1.01236 38.6783 1.00555C33.7497 0.998745 28.8211 0.985133 23.8856 1.00555C23.0813 1.00555 22.2771 1.14167 21.4728 1.22333C20.7029 1.2982 19.933 1.38667 19.1632 1.46834C18.1321 1.57723 17.1078 1.69293 16.0768 1.79502C15.0938 1.8971 14.1039 1.97877 13.121 2.08767C12.7016 2.13531 12.2755 2.1285 11.8768 2.27823C11.8768 2.17614 11.918 2.10808 12.0074 2.06044C12.6673 1.70654 13.3066 1.305 13.9871 0.978328C14.8669 0.556371 15.8362 0.501925 16.771 0.318169C18.1183 0.0527447 19.4862 0.195666 20.8404 0.182054C26.9857 0.113997 33.1242 0.0663562 39.2695 0.0187159C39.6407 0.0187159 40.0187 -0.0561475 40.3899 0.0935791C40.5136 0.148025 40.5618 0.216083 40.5961 0.318169Z"
      fill="#AAB1B5"
    />
   <path
      d="M30.9863 15.4814C30.8351 15.4814 30.6907 15.4746 30.5395 15.4746C23.8649 15.4746 17.1972 15.4746 10.5226 15.4746C10.3645 15.4746 10.1995 15.4814 10.0414 15.4814C9.97951 15.1411 9.92452 14.8009 10.1307 14.481C10.2888 14.3925 10.4607 14.4061 10.6325 14.4061C17.2178 14.4061 23.803 14.4061 30.3883 14.4061C30.5601 14.4061 30.732 14.3925 30.8901 14.4742C31.11 14.7941 31.0413 15.1411 30.9863 15.4814Z"
      fill="#494748"
    />
   <path
      d="M10.1033 14.5286C10.0758 14.8484 10.172 15.1751 10.0346 15.4814C9.79397 16.8357 8.6254 17.8838 7.22999 17.9927C5.90332 18.088 4.58352 17.2373 4.12296 15.9986C4.0611 15.8217 4.04735 15.6243 3.90987 15.4746C3.79302 15.0935 3.73115 14.7123 3.97174 14.3448C4.23982 13.0449 5.29154 12.0717 6.63883 11.8811C7.82115 11.711 9.14095 12.3848 9.74585 13.5009C9.86959 13.7323 9.92458 14.0045 10.0139 14.2563C10.1308 14.3244 10.1514 14.4129 10.1033 14.5286Z"
      fill="#454949"
    />
   <path
      d="M30.9863 15.4813C30.8489 15.1683 30.952 14.8416 30.9176 14.5217C30.8763 14.4128 30.897 14.3176 31.007 14.2563C31.1719 13.4464 31.6668 12.8611 32.2993 12.3575C33.131 11.9219 33.9971 11.7178 34.9182 12.0172C35.2001 12.1057 35.4613 12.2418 35.7294 12.3575C36.5199 12.7454 36.8911 13.4328 37.111 14.2291C37.1523 14.3924 37.0217 14.5558 37.0904 14.7259C37.111 14.8008 37.1385 14.8688 37.1591 14.9437C37.0423 15.4133 36.9735 15.8897 36.7536 16.3253C36.1487 17.5367 34.7739 18.1152 33.7015 17.9723C32.2443 17.7885 31.22 16.8153 30.9863 15.4813Z"
      fill="#454949"
    />
   <path
      d="M3.97854 14.3447C3.88918 14.719 3.96479 15.1001 3.91668 15.4744C3.75858 15.5969 3.58673 15.5901 3.408 15.5425C2.41128 15.3111 1.41456 15.0865 0.417835 14.8619C0.266608 14.8279 0.170374 14.7802 0.136004 14.5897C0.0260208 14.0316 0.00539812 13.4667 0.019146 12.9019C1.20147 13.2694 2.39066 13.6369 3.57298 13.9908C3.77232 14.052 3.91668 14.1405 3.97854 14.3447Z"
      fill="#D9E3E8"
    />
   <path
      d="M40.3349 7.80449C40.6167 7.66838 40.9191 7.77727 41.2079 7.73643C41.3247 9.16564 41.4416 10.588 41.5653 12.0173C41.1735 12.0581 40.7817 12.0581 40.383 12.0173C40.2936 11.7927 40.2799 11.5613 40.2799 11.3231C40.273 10.6561 40.2799 9.99594 40.2455 9.32898C40.2249 8.96827 40.2455 8.59396 40.218 8.22645C40.2043 8.06992 40.2111 7.92019 40.3349 7.80449Z"
      fill="#BA6351"
    />
   <path
      d="M10.8456 2.97217C11.0243 3.11509 11.2649 3.04703 11.4986 3.15592C10.9762 3.56427 10.4607 3.96581 9.952 4.38096C8.92778 5.21126 7.86919 6.01434 6.94121 6.95353C6.50128 7.40271 6.0201 7.34146 5.49768 7.25979C6.2057 7.40271 6.51503 6.80381 6.94121 6.45672C7.75921 5.79656 8.54284 5.08876 9.34022 4.40138C9.80077 3.99984 10.2613 3.6051 10.715 3.19676C10.7769 3.14231 10.8044 3.04703 10.8456 2.97217Z"
      fill="#033D4B"
    />
   <path
      d="M40.3349 7.8042C40.3486 9.20618 40.3624 10.6082 40.383 12.0102C40.2868 11.8536 40.108 11.8536 39.9637 11.8196C39.2488 11.6631 38.5408 11.4793 37.819 11.3908C37.2279 11.316 36.8773 10.928 36.5336 10.5673C36.1349 10.1522 35.7087 10.0229 35.1451 10.0161C34.4302 10.0093 33.7084 9.99565 32.9866 9.96162C32.5742 9.94121 32.2305 10.0569 31.9006 10.2679C31.3644 10.615 30.8145 10.9348 30.2783 11.2819C30.1477 11.3636 30.0171 11.4044 29.8659 11.4044C27.9137 11.4181 25.9546 11.4521 24.0024 11.4929C22.5314 11.5269 21.0535 11.4725 19.5824 11.5542C18.187 11.629 16.7916 11.5406 15.4031 11.6222C13.9389 11.7039 12.4748 11.5882 11.0175 11.7107C10.3645 11.7651 10.0964 11.5406 9.92453 11.0165C9.78705 10.5946 9.4846 10.3496 9.09278 10.1794C8.87282 10.0841 8.67347 9.95482 8.38477 9.79148C9.66332 9.68939 10.8594 9.59411 12.0486 9.49883C12.1792 9.37633 12.3442 9.39675 12.5023 9.38994C12.9903 9.38314 13.4852 9.40355 13.9733 9.35591C14.8463 9.32188 15.7193 9.25383 16.5923 9.17216C16.8741 9.14493 17.1628 9.15854 17.4515 9.15174C18.0633 9.34911 18.6819 9.23341 19.3006 9.24021C19.4862 9.24021 19.4793 9.02243 19.6031 8.94757C20.5035 8.91354 21.3972 8.83867 22.2908 8.76381C22.985 8.70256 23.6793 8.66172 24.3667 8.61408C25.7759 8.52561 27.185 8.43033 28.5942 8.34866C29.0685 8.32144 29.5497 8.32144 30.0308 8.28741C31.2613 8.20574 32.4917 8.19213 33.7221 8.13088C35.1588 8.05601 36.5886 7.98796 38.0252 7.9199C38.7882 7.87906 39.565 7.85184 40.3349 7.8042Z"
      fill="#AAB1B5"
    />
   <path
      d="M33.076 2.1694C34.9183 2.1694 36.7605 2.17621 38.6027 2.16259C38.8845 2.16259 38.9739 2.25107 39.0014 2.51649C39.0907 3.59861 39.187 4.68072 39.2901 5.76284C39.3038 5.93298 39.2488 6.03507 39.1251 6.13715C38.8158 6.38897 38.5065 6.64078 38.2246 6.91982C37.9565 7.18524 37.6541 7.28733 37.2829 7.30775C34.059 7.46428 30.8351 7.62762 27.6181 7.80456C27.2813 7.82498 27.2057 7.73651 27.2057 7.40983C27.2263 5.73562 27.2263 4.05459 27.2263 2.38038C27.2263 2.14898 27.2744 2.06731 27.5288 2.07412C29.3847 2.08773 31.2338 2.08093 33.0898 2.08093C33.076 2.10134 33.076 2.13537 33.076 2.1694Z"
      fill="#444848"
    />
   <path
      d="M6.32257 9.36278C6.24009 9.36958 6.16447 9.36958 6.08198 9.37639C5.99262 9.3832 5.93763 9.35597 5.88951 9.2743C5.82077 9.15861 5.92388 9.14499 5.972 9.09055C7.58051 7.25299 9.43647 5.67406 11.2787 4.07471C11.8836 3.55066 12.6054 3.42135 13.3546 3.31927C13.932 3.2444 14.5094 3.14912 15.08 3.05384C15.2725 3.01982 15.3481 3.05384 15.3274 3.27163C15.1625 4.60556 15.0112 5.94629 14.8531 7.28022C14.8463 7.33466 14.8394 7.40953 14.805 7.43675C14.4201 7.70898 14.1314 8.11733 13.6433 8.26025C12.9216 8.46442 12.1998 8.6822 11.478 8.88638C10.9487 9.0293 10.392 9.01568 9.84891 9.07013C8.67346 9.17222 7.49802 9.26069 6.32257 9.36278Z"
      fill="#444848"
    />
   <path
      d="M27.0201 4.89821C27.0201 5.74893 27.0133 6.59965 27.027 7.44356C27.027 7.65454 26.972 7.71579 26.7589 7.7226C24.5455 7.83149 22.3321 7.95399 20.1187 8.06969C19.5481 8.09691 18.9707 8.0833 18.4071 8.17178C17.7059 8.28748 17.1904 7.85871 16.5992 7.65454C16.503 7.62051 16.5099 7.53884 16.5167 7.45717C16.6198 5.96671 16.723 4.47625 16.8398 2.98579C16.8742 2.57064 17.046 2.44133 17.4653 2.41411C18.9707 2.31202 20.4761 2.17591 21.9815 2.10785C23.5557 2.03979 25.1367 2.0466 26.7108 2.00576C26.9033 1.99896 26.9376 2.08063 26.9376 2.24397C26.9308 3.12871 26.9376 4.00666 26.9376 4.8914C26.9651 4.89821 26.9926 4.89821 27.0201 4.89821Z"
      fill="#444848"
    />
   <path
      d="M37.0766 14.7257C36.9666 14.4535 37.0216 14.1609 36.9116 13.875C36.6642 13.2421 36.2242 12.7725 35.7156 12.3505C36.9735 12.3437 38.2314 12.3437 39.4894 12.3369C39.6406 12.3369 39.7368 12.3437 39.6543 12.5411C39.5512 12.7929 39.4756 13.0515 39.4 13.3169C39.3588 13.4667 39.2419 13.5211 39.1182 13.5824C38.5133 13.8478 37.9152 14.1268 37.3035 14.3718C37.1247 14.4467 37.0629 14.5488 37.0766 14.7257Z"
      fill="#654B54"
    />
   <path
      d="M4.15045 9.10449C3.93048 9.59451 3.70364 10.0369 3.43556 10.4452C3.27746 10.6902 2.99563 10.5881 2.77566 10.5677C2.56944 10.5473 2.66568 10.3295 2.66568 10.2002C2.6588 9.43117 2.6588 9.42436 3.40119 9.24061C3.63491 9.17936 3.86862 9.15213 4.15045 9.10449Z"
      fill="#664C55"
    />
   <path
      d="M19.5962 8.94762C19.6512 9.2811 19.5137 9.38999 19.17 9.36958C18.682 9.33555 18.187 9.35596 17.699 9.36277C17.5409 9.36277 17.4309 9.33555 17.4446 9.15179C17.4446 8.97484 17.4653 8.86595 17.7059 8.87956C18.2626 8.89998 18.8263 8.88637 19.39 8.88637C19.4518 8.88637 19.5481 8.85234 19.5962 8.94762Z"
      fill="#444848"
    />
   <path
      d="M13.9595 9.3561C13.9389 9.55347 13.7877 9.49222 13.6777 9.49222C13.1278 9.49902 12.5848 9.49222 12.0348 9.49222C12.0211 9.01582 12.0211 9.01581 12.4748 9.01581C12.8528 9.01581 13.2309 9.03623 13.6021 9.00901C13.8977 8.98859 13.9939 9.08387 13.9595 9.3561Z"
      fill="#444848"
    />
   <path
      d="M1.30466 10.1801C1.33216 10.2549 1.29091 10.3162 1.25654 10.3706C1.20155 10.4387 1.39402 10.6088 1.19468 10.5884C1.03658 10.5748 1.13968 10.4319 1.15343 10.3434C1.16031 10.3094 1.17405 10.2822 1.1878 10.2481C1.2153 10.2073 1.23592 10.1392 1.30466 10.1801Z"
      fill="#817077"
    />
   <path
      d="M1.30464 10.1797C1.2634 10.2001 1.22215 10.2205 1.18091 10.2478C1.20153 10.1525 1.22903 10.0572 1.24965 9.96191C1.35963 10.0232 1.30464 10.1048 1.30464 10.1797Z"
      fill="#87787F"
    />
   <path
      d="M31.0001 14.2565C30.9726 14.345 30.9451 14.4335 30.9107 14.5219C23.9749 14.5219 17.0391 14.5287 10.1033 14.5287C10.0758 14.4403 10.0483 14.345 10.0139 14.2565C10.0827 14.0251 10.282 14.134 10.4195 14.134C14.4201 14.1272 18.4276 14.1272 22.4283 14.1272C25.171 14.1272 27.9206 14.1272 30.6633 14.1272C30.787 14.1272 30.952 14.0455 31.0001 14.2565Z"
      fill="#ABB2B6"
    />
   <path
      d="M4.98903 14.896C5.03028 13.7798 5.96513 12.8815 7.05809 12.9155C8.18542 12.9495 9.10653 13.9023 9.06528 14.998C9.02404 16.1006 8.06169 16.9989 6.9756 16.9581C5.84828 16.9173 4.94779 15.9781 4.98903 14.896Z"
      fill="#A9AFB5"
    />
   <path
      d="M36.0662 15.0053C36.0662 16.1146 35.1657 17.0198 34.0521 17.0334C32.9248 17.047 32.0037 16.1282 32.0105 14.9985C32.0174 13.8891 32.9248 12.984 34.0452 12.9908C35.1588 12.9908 36.0662 13.8959 36.0662 15.0053Z"
      fill="#A9AFB5"
    />
   <path
      d="M11.4163 10.3162C12.5917 10.2073 13.774 10.0916 14.9495 9.98272C15.8087 9.90785 16.6748 9.8466 17.5341 9.76493C19.1907 9.6016 20.8542 9.54034 22.5177 9.4859C23.3494 9.45867 24.1812 9.39742 25.0129 9.36339C26.6421 9.28853 28.2712 9.23408 29.9003 9.14561C30.8695 9.09116 31.8388 9.05033 32.808 9.00949C34.334 8.94144 35.86 8.85977 37.386 8.80532C38.2522 8.77129 39.1183 8.69643 39.9844 8.68282C40.1012 8.68282 40.2937 8.59434 40.3075 8.81213C40.3212 9.00949 40.1356 8.94144 40.0256 8.96185C39.3726 9.09797 38.7058 9.00269 38.0459 9.07075C37.1936 9.15922 36.3343 9.132 35.482 9.15922C34.2515 9.20006 33.0211 9.24089 31.7906 9.30214C31.3507 9.32256 30.9658 9.56757 30.574 9.74452C29.9553 10.0304 29.3298 10.1392 28.6561 10.1188C27.6525 10.0848 26.6421 10.0712 25.6385 10.1256C24.4699 10.1869 23.3082 10.1256 22.1465 10.2005C21.2323 10.2549 20.318 10.2073 19.4038 10.2549C18.1733 10.323 16.936 10.2686 15.7056 10.3366C14.6883 10.3911 13.6709 10.3638 12.6536 10.3911C12.2686 10.4591 11.8768 10.4115 11.485 10.4183C11.43 10.4115 11.4094 10.3706 11.4163 10.3162Z"
      fill="#D9E3E8"
    />
   <path
      d="M11.4162 10.3157C11.8217 10.4586 12.2411 10.3361 12.6535 10.3838C12.3029 10.5199 11.9386 10.4246 11.5743 10.445C11.3199 10.4586 11.0587 10.445 10.7357 10.445C10.99 10.3157 11.2031 10.3021 11.4162 10.3157Z"
      fill="#CED8DC"
    />
   <path
      d="M30.1408 2.42819C32.8698 2.52347 35.6056 2.49625 38.3414 2.48944C38.6233 2.48944 38.6714 2.58472 38.692 2.83654C38.7608 3.76893 38.8639 4.69451 38.967 5.6269C38.9807 5.78343 38.9601 5.88552 38.8432 5.9808C38.4721 6.27344 38.1009 6.5797 37.7228 6.86554C37.6059 6.95402 37.4547 6.98124 37.2966 6.98124C36.8842 6.98805 36.4786 7.00847 36.0662 7.03569C34.987 7.11055 33.9009 7.12416 32.8217 7.19222C31.5362 7.27389 30.2508 7.34195 28.9654 7.4032C28.6148 7.41681 28.2642 7.44403 27.9068 7.45765C27.7074 7.46445 27.6181 7.41 27.6181 7.19222C27.6043 5.67454 27.7349 4.16366 27.6868 2.64598C27.68 2.42139 27.8174 2.42139 27.9755 2.42139C28.6973 2.42819 29.4191 2.42819 30.1408 2.42819Z"
      fill="#01404D"
    />
   <path
      d="M7.44994 8.94756C7.42244 7.86545 8.12359 7.23932 8.85223 6.6268C9.45713 6.11637 10.0414 5.57871 10.6395 5.06147C11.0863 4.67355 11.5331 4.29242 12.0005 3.93172C12.2342 3.74796 12.5435 3.7888 12.8254 3.76157C12.9766 3.74796 12.9147 3.9045 12.8872 3.99297C12.7016 4.66674 12.5092 5.34051 12.3167 6.01428C12.1311 6.66763 11.9043 7.30737 11.7737 7.96753C11.6705 8.49157 11.2925 8.64811 10.88 8.68214C9.8627 8.76381 8.84535 8.83186 7.82801 8.95437C7.69053 8.96117 7.55305 8.94756 7.44994 8.94756Z"
      fill="#01404D"
    />
   <path
      d="M14.9013 3.65965C14.805 4.47634 14.7019 5.28623 14.6057 6.10292C14.5713 6.36154 14.5094 6.61335 14.5094 6.87197C14.5163 7.11698 14.3926 7.2599 14.2345 7.42323C13.7808 7.89283 13.1759 8.06297 12.5985 8.28076C12.5229 8.30798 12.4266 8.38965 12.3442 8.30118C12.2685 8.22631 12.3235 8.13103 12.351 8.04936C12.7085 6.73585 13.0659 5.41554 13.4027 4.10203C13.4852 3.79577 13.6158 3.60521 13.9595 3.57118C14.1864 3.55076 14.4063 3.48951 14.6194 3.42145C14.8738 3.33298 14.9356 3.44187 14.9013 3.65965Z"
      fill="#01404D"
    />
   <path
      d="M25.5696 2.42777C26.5182 2.42777 26.4907 2.42777 26.5251 3.27169C26.5732 4.56478 26.6488 5.85788 26.7313 7.15097C26.7451 7.35514 26.697 7.38917 26.5045 7.39598C25.4322 7.40959 24.3667 7.50487 23.2944 7.5389C22.4076 7.57293 21.5209 7.62737 20.6341 7.66821C19.8024 7.70904 18.9775 7.7771 18.1458 7.80432C17.699 7.81793 17.3759 7.55251 16.9909 7.4232C16.9222 7.39598 16.8741 7.33472 16.881 7.23264C16.936 6.55887 16.9841 5.8851 17.0322 5.21133C17.0597 4.77576 17.1078 4.33339 17.1078 3.89782C17.1078 3.56434 17.1903 3.25127 17.1834 2.91779C17.1834 2.78167 17.2522 2.70681 17.3896 2.6932C17.6027 2.67278 17.8227 2.62514 18.0358 2.63195C19.2044 2.67278 20.3592 2.55708 21.5278 2.55708C22.5657 2.55708 23.6037 2.47541 24.6417 2.48222C24.9716 2.48222 25.3153 2.42097 25.5696 2.42777Z"
      fill="#01404D"
    />
   <path
      d="M6.98249 13.5693C7.79361 13.5693 8.32978 14.107 8.32291 14.9169C8.32291 15.6587 7.72487 16.2372 6.96874 16.2304C6.16449 16.2304 5.63519 15.6859 5.63519 14.8692C5.63519 14.0934 6.17824 13.5693 6.98249 13.5693Z"
      fill="#D9E3E8"
    />
   <path
      d="M35.3857 15.005C35.3857 15.774 34.7945 16.3661 34.0315 16.3661C33.2753 16.3661 32.6911 15.7672 32.6979 14.9982C32.6979 14.2495 33.2822 13.6642 34.0315 13.6506C34.7739 13.637 35.3857 14.2427 35.3857 15.005Z"
      fill="#D9E2E7"
    />
   <path
      d="M7.5187 14.8484C7.5187 15.1206 7.28498 15.3452 7.0169 15.3452C6.74881 15.3452 6.52197 15.1138 6.52197 14.8415C6.52197 14.5693 6.75569 14.3447 7.02377 14.3447C7.29873 14.3447 7.5187 14.5761 7.5187 14.8484Z"
      fill="#484C4C"
    />
   <path
      d="M34.5815 15.0117C34.5815 15.2907 34.3615 15.5017 34.0865 15.5017C33.8047 15.5017 33.5916 15.2839 33.5916 15.0117C33.5916 14.7394 33.8116 14.5148 34.0934 14.5216C34.3684 14.5148 34.5815 14.7326 34.5815 15.0117Z"
      fill="#484C4C"
    />
</g>
<animateMotion
    href="#car"
    dur="40s"
    begin="0s"
    fill="freeze"
    repeatCount="indefinite"
    rotate="auto"
  >
    <mpath href="#line" />
</animateMotion>
<style> 
@keyframes reverse {
    1%{
      transform: translate(4%, 3%) scaleX(1);
    }
    49%{
      transform: translate(4%, 3%) scaleX(1);
    }
    51%{
      transform: translate(4%, 3%) scaleX(-1);
    }
    99%{
      transform: translate(4%, 3%) scaleX(-1);
    } 
  }
  #car{ 
    transform: translate(4%, 3%) scale(-1);
     animation: reverse 10s linear infinite;

  } 
</style>

</svg>
