<svg id="Layer_1" data-name="Layer 1" xmlns="http://www.w3.org/2000/svg" viewBox="0 0 2000 2000"><defs><style>.cls-1,.cls-4{fill:#006534;}.cls-1,.cls-2,.cls-3{fill-rule:evenodd;}.cls-2{fill:#01529d;}.cls-3{fill:#fff;}.cls-4{font-size:144.14px;font-family:MyriadPro-Regular, Myriad Pro;}.cls-5{letter-spacing:0em;}.cls-6{letter-spacing:-0.01em;}.cls-7{letter-spacing:-0.01em;}.cls-8{letter-spacing:0em;}.cls-9{letter-spacing:-0.01em;}.cls-10{letter-spacing:0em;}.cls-11{letter-spacing:0em;}</style></defs><path class="cls-1" d="M935.17,848.72C974.54,666.47,750.61,867,742.26,682.37c-3.18-86.86,141.6-208.62,247-209.78,105,1.16,250.58,122.92,247,209.78C1227.51,867,1004,666.47,1043.35,848.72Z"/><path class="cls-2" d="M606.23,1270.62C554.92,1243.86,463,1160.1,463,1126.37c0-97.33,249-176,554.46-176,237.06,0,440.71,47.7,519.46,114.39V1076c-109.78-43.43-251.38-59.72-399.34-59.72-269.28,0-433.55,129.52-531.39,254.38Z"/><path class="cls-1" d="M989.26,314.37h.8c17.9,0,34.2,3.49,64.43,9.7v69c17.5,3.49,48.13,10.86,66,16.29V339.19c52.5,16.68,79.15,15.9,133.24,50v47.7l77.57,52.35,130.86,444c-8.75-6.59-17.5-12.8-26.65-18.62l-125.29-380.4L1225.52,478V422.56c-17.89-11.24-45.34-20.55-64-26.75l-32.22-10.09v55.46L1099,433.81c-23.47-5.82-37.79-9.31-61.25-14.35V363.62c-15.91-3.1-32.22-6.59-48.53-6.59-15.91,0-32.22,3.49-48.13,6.59v55.84c-23.46,5-37.78,8.53-61.25,14.35l-30.63,7.37V385.72L817,395.81c-18.29,6.2-45.74,15.51-63.64,26.75V478l-85.11,56.23L543,914.64c-8.75,5.82-17.89,12-26.25,18.62l130.86-444,77.17-52.35v-47.7c54.49-34.12,81.14-33.34,133.64-50v70.19c17.9-5.43,48.53-12.8,66-16.29v-69c30.23-6.21,46.53-9.7,64.43-9.7Z"/><path class="cls-3" d="M988.86,504.77h-.79c-10,0-11.54,0-18.3.39v4.65c0,26-2.39,57-10.34,57s-31.82-27.53-31.82-52.35c-11.54,5.43-18.3,12.41-42.16,29.09,18.29,68.25,48.92,30.63,72.79,75.61.39,8.15,2,26.76,2.38,35.29-26.65-36.84-83.52-6.2-92.28-93.84v-.39a277.47,277.47,0,0,0-35,30.25c6.76,12.79,19.09,39.16,27.85,49.63,28.24,34.51,68,43.43,85.11,50,39,84.53-130.06-10.86-122.5-90a145.58,145.58,0,0,0-10.35,18.62c-52.5,152.39,136.83,95,144.39,155.1,2.38,10.86,4.77,29.09,6.76,52,5.57-.39,17.5-.78,23.47-.78h2c6,0,17.9.39,23.46.78,2-22.88,4.38-41.11,6.77-52,7.55-60.1,197.28-2.71,144.38-155.1a146.71,146.71,0,0,0-10.34-18.62c7.55,79.11-161.49,174.5-122.51,90,17.1-6.6,56.88-15.52,85.12-50,8.75-10.47,21.08-36.84,27.84-49.63a277.47,277.47,0,0,0-35-30.25v.39c-8.75,87.64-65.63,57-92.28,93.84.4-8.53,2-27.14,2.39-35.29,24.26-45,54.49-7.36,72.79-75.61-23.87-16.68-30.63-23.66-41.77-29.09-.4,24.82-24.26,52.35-32.22,52.35s-10.34-31-10.34-57v-4.65c-6.76-.39-8.35-.39-18.29-.39Z"/><path class="cls-1" d="M1383.43,963.89c2-3.88,3.58-12.41,3.58-15.12,0-60.11-186.54-125.25-415.25-125.25-172.62,0-313.43,47.69-380.65,85.7v5.42c130.46-47.3,430.37-74.84,530.6,12.41,101.83.39,192.12,17.84,261.72,36.84Z"/><text class="cls-4" transform="translate(237 1458.03)">Ju<tspan class="cls-5" x="132.75" y="0">r</tspan><tspan x="180.46" y="0">ba</tspan><tspan class="cls-5" x="331.95" y="0">r</tspan><tspan x="379.66" y="0">ko tu</tspan><tspan class="cls-5" x="684.09" y="0">r</tspan><tspan x="731.8" y="0">izmo ir </tspan><tspan class="cls-6" x="1168.54" y="0">v</tspan><tspan x="1236.43" y="0">erslo</tspan><tspan x="144.42" y="172.97" xml:space="preserve"> in</tspan><tspan class="cls-7" x="288.71" y="172.97">f</tspan><tspan class="cls-8" x="328.92" y="172.97">o</tspan><tspan class="cls-5" x="408.06" y="172.97">r</tspan><tspan x="455.77" y="172.97">macijos </tspan><tspan class="cls-9" x="945.56" y="172.97">c</tspan><tspan x="1009.27" y="172.97">e</tspan><tspan class="cls-10" x="1081.48" y="172.97">n</tspan><tspan class="cls-8" x="1160.9" y="172.97">t</tspan><tspan class="cls-11" x="1208.61" y="172.97">r</tspan><tspan x="1255.03" y="172.97">as</tspan></text></svg>