<svg width="87" height="89" viewBox="0 0 87 89" fill="none" xmlns="http://www.w3.org/2000/svg">
<path d="M5.42569 66.044L7.66801 58.888H10.8587L7.14891 69.9272H3.71005L0 58.888H3.19067L5.42569 66.044Z" fill="white"/>
<path d="M14.2252 57.6203C13.9919 57.387 13.8753 57.1072 13.8753 56.781C13.8753 56.4552 13.9919 56.1753 14.2252 55.942C14.4583 55.7087 14.7381 55.5921 15.0642 55.5921C15.3904 55.5921 15.6699 55.7087 15.9032 55.942C16.1365 56.1753 16.2532 56.4552 16.2532 56.781C16.2532 57.1072 16.1365 57.387 15.9032 57.6203C15.6699 57.8533 15.3904 57.9703 15.0642 57.9703C14.7381 57.9703 14.4583 57.8533 14.2252 57.6203ZM17.9085 61.6421H14.4623V62.8387H17.457V65.2843H14.4623V67.1807H17.9085V69.9348H11.5499V58.8956H17.9085V61.6421Z" fill="white"/>
<path d="M18.3677 58.8956H27.4201V61.68H24.3574V69.9348H21.4379V61.68H18.3677V58.8956Z" fill="white"/>
<path d="M32.4091 63.2263C32.5845 63.0533 32.6725 62.8414 32.6725 62.5902C32.6725 62.3399 32.5845 62.1266 32.4091 61.9507C32.2335 61.7753 32.0226 61.6873 31.7769 61.6873H30.8361V63.4858H31.7769C32.0226 63.4858 32.2335 63.3995 32.4091 63.2263ZM31.4759 66.2775H30.8361V69.9348H27.9242V58.8956H32.2134C33.1466 58.8956 33.968 59.2342 34.678 59.9116C35.3876 60.5888 35.7424 61.4819 35.7424 62.5902C35.7424 63.6041 35.4065 64.4669 34.7342 65.179C34.6541 65.2645 34.571 65.3446 34.4861 65.4199L37.8873 69.9348H34.0722L31.4759 66.2775Z" fill="white"/>
<path d="M38.7175 68.998C37.9427 68.2629 37.5551 67.4215 37.5551 66.4734V58.8882H40.4597V65.6155C40.4697 66.0869 40.6178 66.4607 40.9036 66.7367C41.1897 67.0125 41.5908 67.1506 42.1074 67.1506C42.6092 67.1454 43.0106 67.015 43.3118 66.7592C43.6125 66.5032 43.7632 66.1221 43.7632 65.6155V58.8882H46.6754V66.4734C46.6754 67.4467 46.2778 68.2941 45.4829 69.0164C44.6872 69.7391 43.5624 70.1001 42.1074 70.1001C40.6226 70.1001 39.4927 69.7328 38.7175 68.998Z" fill="white"/>
<path d="M56.3077 64.9384V58.8956H59.2427V69.9348H56.5862L51.8004 63.8923V69.9348H48.8654V58.8956H51.5221L56.3077 64.9384Z" fill="white"/>
<path d="M62.1388 68.4299C61.0852 67.321 60.5583 65.9818 60.5583 64.4113C60.5583 62.8415 61.1182 61.5004 62.2365 60.3894C63.3551 59.2784 64.7598 58.7225 66.4508 58.7225C68.1158 58.7225 69.4179 59.1439 70.356 59.987L68.7981 62.4699C68.1762 61.9132 67.3938 61.635 66.4508 61.635C65.6378 61.635 64.9758 61.9181 64.4643 62.4851C63.9525 63.0521 63.6967 63.694 63.6967 64.4113C63.6967 65.129 63.9197 65.771 64.3663 66.338C64.8126 66.9047 65.4394 67.1881 66.2473 67.1881C66.8346 67.1881 67.3483 67.1004 67.7903 66.9248V65.8038H66.4508V63.471H70.7024V68.9717C69.2377 69.7292 67.7521 70.1052 66.2473 70.1003C64.562 70.0952 63.1925 69.5387 62.1388 68.4299Z" fill="white"/>
<path d="M75.4039 69.9346H72.4838V58.8954H75.4039V69.9346Z" fill="white"/>
<path d="M81.7112 70.0926C80.4421 70.0223 79.4388 69.6385 78.7013 68.9413C77.9638 68.2441 77.5954 67.4213 77.5954 66.4733V58.8881H80.4995V65.6153C80.5098 66.0868 80.6575 66.4605 80.9436 66.7366C81.2297 67.0124 81.6308 67.1504 82.1477 67.1504C82.6495 67.1453 83.0506 67.0148 83.3519 66.7591C83.6528 66.503 83.8033 66.122 83.8033 65.6153V58.8881H86.7155V66.4733C86.7155 67.3661 86.3994 68.1323 85.7671 68.7719C85.1349 69.4114 84.4731 69.7917 83.7806 69.9119C83.2187 70.1979 82.8065 70.4937 82.5426 70.7999C82.2795 71.106 82.1477 71.3793 82.1477 71.6205C82.1477 71.7255 82.1854 71.8132 82.2603 71.8835C82.3361 71.9539 82.4284 71.9888 82.5391 71.9888C82.7299 71.9888 82.8926 71.9688 83.0279 71.9287C83.1637 71.8884 83.3267 71.8234 83.5175 71.733L84.0815 72.6811C83.7459 72.9672 83.2041 73.1101 82.4565 73.1101C81.8343 73.1101 81.3212 73.0162 80.9171 72.8278C80.5133 72.6397 80.3119 72.3222 80.3119 71.8762C80.3119 71.2139 80.7783 70.6193 81.7112 70.0926Z" fill="white"/>
<path d="M13.1918 77.7117L17.5673 71.4978H22.9354L17.7476 78.9634L24.1306 88.0415H18.6499L13.1918 80.3391V88.0415H8.81592V71.4978H13.1918V77.7117Z" fill="white"/>
<path d="M34.4049 75.6139H29.2398V77.4072H33.7283V81.072H29.2398V83.9141H34.4049V88.0415H24.8754V71.4978H34.4049V75.6139Z" fill="white"/>
<path d="M40.3367 83.8578H45.8736V88.0415H35.9608V71.4978H40.3367V83.8578Z" fill="white"/>
<path d="M51.2303 88.0415H46.8545V71.4978H51.2303V88.0415Z" fill="white"/>
<path d="M59.1929 81.2978H61.5383L60.3543 77.2042L59.1929 81.2978ZM68.4964 88.0415H64.0086L62.8578 84.9629H57.8624L56.7116 88.0415H52.2348L58.3022 71.4978H62.4296L68.4964 88.0415Z" fill="white"/>
<path d="M71.2034 87.6411C70.2716 87.2089 69.4253 86.5753 68.6661 85.7409L71.1247 82.482C71.5983 82.9556 72.1131 83.3372 72.6698 83.6265C73.226 83.9159 73.7259 84.0607 74.1695 84.0607C74.5005 84.0607 74.7746 83.9724 74.9925 83.7957C75.2109 83.6192 75.3197 83.384 75.3197 83.0909C75.3197 82.7526 75.1806 82.4874 74.9027 82.2958C74.6242 82.1042 74.3086 81.9217 73.9554 81.7488L73.1207 81.3542C72.3015 80.9631 71.5101 80.4031 70.7469 79.674C69.9839 78.9446 69.6023 77.8469 69.6023 76.381C69.6023 74.9149 70.1265 73.691 71.1753 72.7099C72.2241 71.7288 73.5643 71.2384 75.1955 71.2384C76.8722 71.2384 78.41 71.8625 79.8082 73.1105L77.2143 76.5163C76.297 75.817 75.6242 75.4676 75.1955 75.4676C74.8572 75.4676 74.596 75.552 74.412 75.7212C74.2277 75.8903 74.1356 76.1104 74.1356 76.381C74.1356 76.7042 74.2953 76.9691 74.615 77.1759C74.9343 77.383 75.297 77.5762 75.703 77.7567L76.2781 78.016C77.1731 78.3919 78.0224 78.9746 78.8271 79.7641C79.6317 80.5536 80.0339 81.6925 80.0339 83.1811C80.0339 84.6772 79.4639 85.9027 78.3253 86.8573C77.1861 87.8124 75.8199 88.2896 74.226 88.2896C73.1434 88.2896 72.1358 88.0736 71.2034 87.6411Z" fill="white"/>
<path fill-rule="evenodd" clip-rule="evenodd" d="M40.07 46.9573C39.8124 48.471 39.0916 49.87 37.9955 50.9659C36.5957 52.3657 34.7117 53.1465 32.7317 53.1465C30.7516 53.1465 28.8679 52.3657 27.4678 50.9659C26.3728 49.8708 25.652 48.4735 25.3938 46.9608L22.0373 46.9616C21.8708 46.9616 21.7095 46.9145 21.5693 46.8249L21.12 46.5383C20.9817 46.4501 20.8718 46.3256 20.7982 46.17L12.2904 27.748C12.1746 27.4974 12.1857 27.2113 12.3126 26.9737L12.6168 26.2835C12.75 25.9193 13.1175 25.6781 13.5153 25.7157L28.0465 27.0898L41.1583 0.710522C41.1613 0.704838 41.1637 0.699963 41.1667 0.694279L41.1927 0.64529C41.1981 0.635006 41.2027 0.62635 41.2086 0.616608C41.3266 0.412266 41.4958 0.242565 41.6999 0.123753C41.8225 0.0517578 41.9437 0.0173874 42.0858 0.0138702L42.6257 0.000335693C42.7681 -0.00318146 42.891 0.0249672 43.0174 0.0907326C43.2607 0.216858 43.4596 0.413349 43.5895 0.654495L44.5419 2.4221L56.6394 3.58155L69.299 4.79406C70.0322 4.86443 70.5772 5.52373 70.5069 6.25692L69.9109 12.4802C69.9101 12.4872 69.9093 12.4935 69.9087 12.5005L69.3141 18.7008C69.2946 18.9057 69.2283 19.1032 69.1201 19.2784C68.8519 19.7127 68.3595 19.9574 67.8515 19.9087L53.2084 18.5059L58.1163 27.6141L73.238 26.4218C73.6358 26.3905 73.9985 26.6359 74.1265 27.0008L74.4096 27.6584C74.5306 27.8882 74.5439 28.1637 74.4386 28.4081L66.789 46.1278C66.7213 46.2847 66.6101 46.4168 66.4672 46.5105L66.0119 46.8087C65.8699 46.9021 65.7053 46.9511 65.5353 46.9511L61.3316 46.9522C61.0748 48.4681 60.3532 49.8687 59.256 50.9659C57.8559 52.3659 55.972 53.1465 53.9919 53.1465C52.0118 53.1465 50.1279 52.3659 48.7281 50.9659C47.6314 49.8695 46.9104 48.4702 46.6533 46.9557L40.07 46.9573Z" fill="white"/>
<path fill-rule="evenodd" clip-rule="evenodd" d="M39.3545 46.1509C39.247 47.7553 38.5634 49.2577 37.4256 50.3955C36.1765 51.6443 34.4982 52.3398 32.7317 52.3398C30.9655 52.3398 29.2869 51.6443 28.0381 50.3955C26.9011 49.2585 26.2172 47.7572 26.1092 46.1542L22.037 46.155C22.0246 46.155 22.0138 46.152 22.0032 46.145L21.5539 45.8584C21.5431 45.8516 21.5358 45.8432 21.5304 45.8318L13.0223 27.4099C13.012 27.3874 13.0152 27.3622 13.0309 27.343L13.3714 26.5706C13.3768 26.5378 13.4066 26.5154 13.4396 26.5184L28.522 27.9447L41.8807 1.06956L41.9064 1.0203C41.9546 0.936943 42.0233 0.868195 42.1062 0.820019L42.6458 0.806217C42.7452 0.85791 42.8264 0.938026 42.8797 1.03681L44.0364 3.18332L56.5447 4.38229L56.5626 4.38419L69.2219 5.59669C69.515 5.62484 69.7323 5.88656 69.7042 6.17994L69.1082 12.4032L69.1058 12.423L68.5114 18.6238C68.5039 18.7058 68.4773 18.7843 68.434 18.8544C68.3268 19.0279 68.1309 19.1253 67.9285 19.1058L51.7821 17.5591L57.6557 28.4592L73.3014 27.2256C73.3344 27.2231 73.3636 27.2461 73.3685 27.2792L73.6887 28.0229C73.7041 28.0418 73.7079 28.0659 73.6981 28.0884L66.0485 45.8083C66.0434 45.8199 66.0361 45.8289 66.025 45.8359L65.5698 46.1344C65.5592 46.1415 65.5484 46.1447 65.5354 46.1447L60.6153 46.1458C60.5092 47.7521 59.8247 49.2563 58.6858 50.3955C57.437 51.6443 55.7582 52.3398 53.992 52.3398C52.2254 52.3398 50.5471 51.6443 49.2981 50.3955C48.16 49.2572 47.4758 47.7542 47.3689 46.149L39.3545 46.1509ZM37.6418 41.2351C38.6013 42.2893 39.1953 43.6182 39.3366 45.0367L47.3871 45.035C47.5216 43.6886 48.0637 42.4219 48.9422 41.3935L43.1333 35.4544L37.6418 41.2351ZM36.825 40.476L42.0669 34.9577L14.5257 28.0037L22.3943 45.041L26.1265 45.0399C26.2778 43.5135 26.9531 42.0934 28.0381 41.0081C29.2869 39.7593 30.9655 39.0637 32.7317 39.0637C34.2214 39.0637 35.6539 39.5577 36.825 40.476ZM33.2576 41.0443V43.8499C33.3493 43.8761 33.4392 43.9091 33.5258 43.9489L35.4726 41.8996C34.8195 41.4278 34.0584 41.1339 33.2576 41.0443ZM36.3552 42.7288L34.3775 44.7059C34.4419 44.8112 34.4958 44.9225 34.5386 45.038L37.3717 45.0372C37.2513 44.1879 36.8994 43.3911 36.3552 42.7288ZM29.8087 42.0379L31.7936 44.0225C31.9276 43.947 32.0705 43.8878 32.2188 43.8464V41.043C31.3357 41.1391 30.5026 41.4836 29.8087 42.0379ZM31.0559 44.7538L29.0736 42.7716C28.5483 43.4268 28.2092 44.2079 28.0914 45.0394L30.9238 45.0388C30.9598 44.9403 31.0042 44.845 31.0559 44.7538ZM34.4246 46.6194L36.4106 48.6057C36.9698 47.8985 37.3114 47.0489 37.3969 46.1515L34.6041 46.1523C34.5651 46.3149 34.5047 46.4722 34.4246 46.6194ZM35.681 49.3448L33.7004 47.3642C33.5594 47.4468 33.4081 47.5112 33.2505 47.5556L33.2495 50.3601C34.1421 50.2621 34.9835 49.9102 35.681 49.3448ZM31.8334 47.4051L29.8452 49.3949C30.5308 49.9313 31.349 50.2653 32.2142 50.3603L32.2156 47.5569C32.0832 47.5204 31.955 47.4695 31.8334 47.4051ZM29.1048 48.6701L31.0808 46.6925C30.9801 46.525 30.9051 46.3431 30.8596 46.1531L28.0668 46.1536C28.155 47.0784 28.5158 47.9518 29.1048 48.6701ZM55.3133 11.6181L51.8013 11.2817L55.1479 13.3421L55.3133 11.6181ZM50.3645 48.6701L52.3407 46.6928C52.2392 46.5236 52.164 46.3398 52.1183 46.1479L49.3262 46.1485C49.4139 47.0752 49.7747 47.9502 50.3645 48.6701ZM53.0948 47.404L51.1055 49.3949C51.791 49.9313 52.6092 50.2653 53.4745 50.3603L53.4756 47.5564C53.3438 47.5196 53.2157 47.4684 53.0948 47.404ZM56.9412 49.3448L54.9617 47.3651C54.8201 47.4479 54.6686 47.512 54.5108 47.5564L54.5097 50.3601C55.4023 50.2621 56.2435 49.91 56.9412 49.3448ZM55.6849 46.6194L57.6712 48.606C58.2311 47.8972 58.5735 47.0457 58.6579 46.1463L55.8654 46.1469C55.8264 46.3117 55.7658 46.4706 55.6849 46.6194ZM54.8832 43.9949L56.8736 42.0049C56.1912 41.4725 55.3779 41.1404 54.5178 41.0443V43.8493C54.6442 43.8851 54.7666 43.934 54.8832 43.9949ZM57.6157 42.7288L55.6375 44.7059C55.7008 44.8096 55.7541 44.9189 55.7966 45.0329L58.6314 45.0321C58.5102 44.1849 58.1586 43.39 57.6157 42.7288ZM53.4788 43.8455V41.043C52.6125 41.1372 51.7932 41.4709 51.1068 42.0078L53.0677 44.0125C53.1976 43.9411 53.3359 43.8851 53.4788 43.8455ZM52.1854 45.0337C52.2138 44.9574 52.2471 44.8832 52.2847 44.8109L50.3141 42.7962C49.8012 43.4447 49.4692 44.2155 49.3522 45.0342L52.1854 45.0337ZM60.5966 45.0318L65.1673 45.0307L72.2374 28.653L44.2264 34.9737L49.7368 40.6072C50.9334 39.6066 52.4303 39.0637 53.992 39.0637C55.7582 39.0637 57.437 39.7593 58.6858 41.0081C59.7689 42.0915 60.4437 43.5083 60.5966 45.0318ZM45.4224 33.4651L42.4667 7.03411L40.2663 33.2348L43.1368 33.9801L45.4224 33.4651ZM43.2908 4.36172L46.518 33.2177L57.4776 30.747L43.2908 4.36172ZM47.1724 9.00389L47.6038 9.80447L55.4194 10.5534L55.8827 5.71686L47.1724 9.00389ZM48.5154 11.4963L50.6884 15.529L54.3898 14.1313L49.5035 11.1233L48.5154 11.4963ZM58.2349 29.5342L58.7624 30.5131L65.6772 28.9474L58.2349 29.5342ZM39.1685 32.9495L41.5678 4.38473L28.7464 30.0035L28.6406 30.2157L39.1685 32.9495ZM20.6086 28.3193L27.4733 30.0511L27.9872 29.017L20.6086 28.3193ZM63.3155 6.10578L63.1198 8.15162L68.3921 8.65692L68.588 6.61108L63.3155 6.10578ZM61.9528 9.11486L56.6806 8.60955L56.4846 10.6557L61.7571 11.161L61.9528 9.11486ZM56.7826 7.54455L62.0548 8.04958L62.2505 6.00402L56.9786 5.49899L56.7826 7.54455ZM68.29 9.72219L63.0181 9.21689L62.8221 11.2627L68.0941 11.7678L68.29 9.72219ZM58.1432 11.8895L61.9961 14.262L66.2299 12.6644L58.1432 11.8895ZM67.9607 13.1559L63.1488 14.9717L67.5282 17.6679L67.9607 13.1559ZM60.7308 14.7392L56.3515 12.0427L55.9192 16.5547L60.7308 14.7392ZM57.6503 17.0462L65.7365 17.8211L61.8838 15.4488L57.6503 17.0462ZM54.1476 5.22753L44.7699 4.32871L46.7675 8.01196L54.1476 5.22753ZM54.9842 15.0515L51.3104 16.4389L54.8191 16.775L54.9842 15.0515Z" fill="#00404E"/>
<path fill-rule="evenodd" clip-rule="evenodd" d="M56.6806 8.60949L61.9529 9.11452L61.7569 11.1609L56.4847 10.6553L56.6806 8.60949Z" fill="#ED1C24"/>
<path fill-rule="evenodd" clip-rule="evenodd" d="M63.3155 6.10338L68.5877 6.60841L68.3918 8.65479L63.1196 8.14921L63.3155 6.10338Z" fill="#ED1C24"/>
<path fill-rule="evenodd" clip-rule="evenodd" d="M56.9935 5.48156L62.2658 5.98632L62.0698 8.03296L56.7976 7.52739L56.9935 5.48156Z" fill="white"/>
<path fill-rule="evenodd" clip-rule="evenodd" d="M63.0529 9.21398L68.3251 9.71901L68.1292 11.7654L62.857 11.2598L63.0529 9.21398Z" fill="white"/>
</svg>
