<svg
  width="16"
  height="16"
  viewBox="0 0 16 16"
  fill="none"
  xmlns="http://www.w3.org/2000/svg"
><path
    d="M14.1133 1.37325C13.6354 1.29094 13.1515 1.24857 12.6666 1.24658C11.0122 1.24523 9.3923 1.71963 7.99998 2.61325C6.60407 1.73137 4.98441 1.26861 3.33331 1.27992C2.84841 1.28191 2.36451 1.32427 1.88664 1.40658C1.73011 1.43357 1.58836 1.51556 1.48692 1.63778C1.38547 1.76 1.331 1.91443 1.33331 2.07325V10.0733C1.33188 10.1712 1.35206 10.2683 1.39241 10.3575C1.43276 10.4468 1.49229 10.5261 1.56676 10.5898C1.64123 10.6534 1.72881 10.6999 1.82328 10.7258C1.91774 10.7518 2.01677 10.7566 2.11331 10.7399C3.06865 10.5745 4.04744 10.602 4.99202 10.8206C5.9366 11.0393 6.82786 11.4448 7.61331 12.0133L7.69331 12.0599H7.76664C7.84058 12.0907 7.91988 12.1066 7.99998 12.1066C8.08007 12.1066 8.15937 12.0907 8.23331 12.0599H8.30664L8.38664 12.0133C9.16661 11.4321 10.0553 11.0135 11.0001 10.7822C11.9448 10.5508 12.9264 10.5115 13.8866 10.6666C13.9832 10.6832 14.0822 10.6784 14.1767 10.6525C14.2711 10.6265 14.3587 10.5801 14.4332 10.5164C14.5077 10.4528 14.5672 10.3735 14.6075 10.2842C14.6479 10.1949 14.6681 10.0979 14.6666 9.99992V1.99992C14.6597 1.84802 14.601 1.70306 14.5004 1.58908C14.3998 1.47509 14.2632 1.39894 14.1133 1.37325ZM7.33331 10.2333C6.0999 9.58438 4.72699 9.24573 3.33331 9.24658C3.11331 9.24658 2.89331 9.24658 2.66664 9.24658V2.57992C2.88868 2.56712 3.11127 2.56712 3.33331 2.57992C4.75557 2.57835 6.14678 2.99571 7.33331 3.77992V10.2333ZM13.3333 9.27325C13.1066 9.27325 12.8866 9.27325 12.6666 9.27325C11.273 9.27239 9.90005 9.61104 8.66664 10.2599V3.77992C9.85317 2.99571 11.2444 2.57835 12.6666 2.57992C12.8887 2.56712 13.1113 2.56712 13.3333 2.57992V9.27325ZM14.1133 12.0399C13.6354 11.9576 13.1515 11.9152 12.6666 11.9133C11.0122 11.9119 9.3923 12.3863 7.99998 13.2799C6.60765 12.3863 4.98773 11.9119 3.33331 11.9133C2.84841 11.9152 2.36451 11.9576 1.88664 12.0399C1.79986 12.0537 1.71666 12.0845 1.64182 12.1305C1.56698 12.1766 1.50198 12.2369 1.45055 12.3082C1.39913 12.3794 1.3623 12.4602 1.34218 12.5457C1.32206 12.6312 1.31904 12.7199 1.33331 12.8066C1.36719 12.9797 1.4683 13.1323 1.6145 13.2311C1.7607 13.3298 1.94007 13.3665 2.11331 13.3333C3.06865 13.1678 4.04744 13.1953 4.99202 13.414C5.9366 13.6327 6.82786 14.0382 7.61331 14.6066C7.72622 14.687 7.86137 14.7302 7.99998 14.7302C8.13858 14.7302 8.27373 14.687 8.38664 14.6066C9.17209 14.0382 10.0634 13.6327 11.0079 13.414C11.9525 13.1953 12.9313 13.1678 13.8866 13.3333C14.0599 13.3665 14.2392 13.3298 14.3854 13.2311C14.5316 13.1323 14.6328 12.9797 14.6666 12.8066C14.6809 12.7199 14.6779 12.6312 14.6578 12.5457C14.6377 12.4602 14.6008 12.3794 14.5494 12.3082C14.498 12.2369 14.433 12.1766 14.3581 12.1305C14.2833 12.0845 14.2001 12.0537 14.1133 12.0399Z"
    fill="white"
  /></svg>
