<svg width="11" height="11" viewBox="0 0 11 11" fill="none" xmlns="http://www.w3.org/2000/svg">
<path fill-rule="evenodd" clip-rule="evenodd" d="M4.22 11C3.78379 10.3001 3.27344 9.55659 2.676 8.78855C1.7805 7.63696 0.862844 6.65344 0 5.82652C0.313267 5.61089 0.365822 5.58047 0.365822 5.58031C0.411057 5.55427 0.59913 5.44799 0.868851 5.37811C0.945994 5.35805 1.21984 5.3058 1.51265 5.31146C2.10465 5.32295 2.56451 5.73933 2.86257 5.99734C3.04558 6.15603 3.29916 6.40821 3.52571 6.77056C3.66854 7.00366 3.81157 7.23676 3.95478 7.46986C4.37185 6.38282 4.87074 5.15326 5.4633 3.80869C5.8387 2.95717 6.31095 1.92481 7.34685 0.936439C7.79864 0.505504 8.15488 0.276448 8.58903 0.138303C9.63413 -0.193633 10.6398 0.157715 11 0.302007C9.87194 1.07151 9.12359 1.83406 8.65134 2.38599C7.69634 3.50264 7.16891 4.57965 6.64373 5.65214C6.3894 6.17188 6.13582 6.74662 5.72233 7.68403C5.41244 8.38673 5.26791 8.73484 4.96122 9.41311C4.65395 10.093 4.3923 10.643 4.22 11Z" fill="#163260"/>
</svg>
