<svg
  width="16"
  height="16"
  viewBox="0 0 16 16"
  fill="none"
  xmlns="http://www.w3.org/2000/svg"
><path
    d="M14 8.33342C13.9971 7.59543 13.7725 6.87535 13.3552 6.26666C12.9379 5.65797 12.3473 5.1888 11.66 4.92008C11.66 3.94762 11.2737 3.01499 10.586 2.32736C9.89838 1.63973 8.96575 1.25342 7.99329 1.25342C7.02083 1.25342 6.0882 1.63973 5.40057 2.32736C4.71293 3.01499 4.32663 3.94762 4.32663 4.92008C3.53136 5.23211 2.87002 5.81203 2.45677 6.55971C2.04352 7.30739 1.90431 8.1759 2.06317 9.01529C2.22204 9.85467 2.66901 10.6122 3.32691 11.1572C3.98481 11.7021 4.81234 12.0003 5.66663 12.0001H5.79996C5.63155 12.5803 5.35066 13.1217 4.97329 13.5934C4.89775 13.6915 4.85102 13.8087 4.83835 13.9319C4.82568 14.0551 4.84757 14.1794 4.90156 14.2908C4.95554 14.4022 5.0395 14.4964 5.14402 14.5628C5.24853 14.6292 5.36948 14.6652 5.49329 14.6668H10.5066C10.6328 14.6672 10.7565 14.6318 10.8633 14.5647C10.9702 14.4977 11.0558 14.4017 11.1103 14.2879C11.1647 14.1741 11.1858 14.0471 11.171 13.9219C11.1562 13.7966 11.1061 13.6781 11.0266 13.5801C10.6508 13.1123 10.37 12.5756 10.2 12.0001H10.3333C11.3052 11.9983 12.2368 11.6114 12.9241 10.9242C13.6113 10.2369 13.9982 9.30534 14 8.33342ZM6.70663 13.3334C6.972 12.7952 7.15407 12.2197 7.24663 11.6268C7.51577 11.5024 7.76875 11.3457 7.99996 11.1601C8.23117 11.3457 8.48414 11.5024 8.75329 11.6268C8.84585 12.2197 9.02792 12.7952 9.29329 13.3334H6.70663ZM8.51996 9.80009L8.46663 9.74675L8.41329 9.69342H8.36663L8.24663 9.63342L8.12663 9.59342H7.87329L7.75329 9.63342C7.71234 9.64673 7.67399 9.66703 7.63996 9.69342H7.58663L7.53329 9.74675L7.47996 9.80009C7.2455 10.09 6.94498 10.3195 6.60358 10.4693C6.26218 10.6192 5.88984 10.685 5.51775 10.6614C5.14566 10.6377 4.78465 10.5253 4.46497 10.3334C4.14529 10.1415 3.87625 9.87583 3.68037 9.55859C3.48449 9.24135 3.36749 8.88179 3.33916 8.51003C3.31084 8.13826 3.37201 7.76513 3.51755 7.42187C3.6631 7.07861 3.88879 6.77523 4.1757 6.53714C4.46262 6.29904 4.80242 6.13317 5.16663 6.05342C5.20356 6.03854 5.23923 6.0207 5.27329 6.00008C5.31448 5.98511 5.35458 5.96729 5.39329 5.94675C5.42764 5.92155 5.45895 5.89247 5.48663 5.86008C5.55348 5.80727 5.60237 5.73509 5.62663 5.65342C5.64782 5.61821 5.66355 5.58 5.67329 5.54008C5.67977 5.49588 5.67977 5.45096 5.67329 5.40675C5.67651 5.36904 5.67651 5.33113 5.67329 5.29342C5.66667 5.19353 5.66667 5.09331 5.67329 4.99342C5.67329 4.37458 5.91913 3.78109 6.35671 3.3435C6.7943 2.90592 7.38779 2.66008 8.00663 2.66008C8.62546 2.66008 9.21896 2.90592 9.65654 3.3435C10.0941 3.78109 10.34 4.37458 10.34 4.99342C10.3466 5.09331 10.3466 5.19353 10.34 5.29342C10.3364 5.32889 10.3364 5.36462 10.34 5.40008C10.3333 5.44651 10.3333 5.49366 10.34 5.54008C10.3497 5.58 10.3654 5.61821 10.3866 5.65342C10.4109 5.73509 10.4598 5.80727 10.5266 5.86008C10.5543 5.89247 10.5856 5.92155 10.62 5.94675C10.6587 5.96729 10.6988 5.98511 10.74 6.00008C10.7742 6.01842 10.8099 6.03402 10.8466 6.04675C11.2108 6.12651 11.5506 6.29238 11.8375 6.53047C12.1245 6.76856 12.3502 7.07194 12.4957 7.4152C12.6412 7.75846 12.7024 8.1316 12.6741 8.50336C12.6458 8.87512 12.5288 9.23468 12.3329 9.55192C12.137 9.86917 11.868 10.1348 11.5483 10.3267C11.2286 10.5186 10.8676 10.6311 10.4955 10.6547C10.1234 10.6784 9.75108 10.6125 9.40968 10.4626C9.06828 10.3128 8.76776 10.0833 8.53329 9.79342L8.51996 9.80009Z"
    fill="white"
  /></svg>
