<svg width="21" height="16" viewBox="0 0 21 16" fill="none" xmlns="http://www.w3.org/2000/svg">
<path d="M18.5813 0H1.97567C1.66487 0 1.37626 0.0665741 1.10986 0.199722L10.2785 7.63383L19.4471 0.199722C19.1807 0.0665741 18.9143 0 18.5813 0Z" fill="#00404E"/>
<path d="M10.9002 9.67561C10.7226 9.83095 10.5006 9.89752 10.2786 9.89752C10.0566 9.89752 9.83457 9.83095 9.65697 9.67561L0 1.84204C0 1.88642 0 1.90862 0 1.97519V14.0251C0 15.1125 0.887997 16.0002 1.97579 16.0002H18.6035C19.6913 16.0002 20.5793 15.1125 20.5793 14.0251V1.97519C20.5793 1.93081 20.5793 1.90862 20.5793 1.84204L10.9002 9.67561Z" fill="#00404E"/>
</svg>
