<svg width="32" height="32" viewBox="0 0 32 32" fill="none" xmlns="http://www.w3.org/2000/svg">
<path d="M15.9999 14.4C16.5273 14.4 17.0429 14.2436 17.4814 13.9505C17.92 13.6575 18.2618 13.241 18.4636 12.7538C18.6654 12.2665 18.7182 11.7303 18.6153 11.213C18.5125 10.6958 18.2585 10.2206 17.8855 9.84767C17.5126 9.47473 17.0374 9.22075 16.5202 9.11786C16.0029 9.01497 15.4667 9.06778 14.9794 9.26961C14.4922 9.47144 14.0757 9.81324 13.7827 10.2518C13.4896 10.6903 13.3333 11.2059 13.3333 11.7333C13.3333 12.4405 13.6142 13.1188 14.1143 13.6189C14.6144 14.119 15.2927 14.4 15.9999 14.4ZM15.0533 23.6133C15.1772 23.7383 15.3247 23.8375 15.4872 23.9051C15.6496 23.9728 15.8239 24.0077 15.9999 24.0077C16.1759 24.0077 16.3502 23.9728 16.5127 23.9051C16.6752 23.8375 16.8226 23.7383 16.9466 23.6133L22.3999 18.1466C23.6665 16.8807 24.5292 15.2675 24.879 13.5112C25.2287 11.7549 25.0496 9.93436 24.3646 8.27981C23.6795 6.62525 22.5191 5.21103 21.0302 4.21603C19.5413 3.22103 17.7907 2.68994 15.9999 2.68994C14.2091 2.68994 12.4586 3.22103 10.9697 4.21603C9.48075 5.21103 8.32036 6.62525 7.63528 8.27981C6.95019 9.93436 6.77118 11.7549 7.12089 13.5112C7.4706 15.2675 8.33331 16.8807 9.59992 18.1466L15.0533 23.6133ZM9.63992 11.12C9.73102 10.1693 10.0333 9.25101 10.5246 8.43211C11.016 7.6132 11.684 6.91437 12.4799 6.38662C13.5255 5.70008 14.7491 5.3343 15.9999 5.3343C17.2508 5.3343 18.4743 5.70008 19.5199 6.38662C20.3105 6.91256 20.9748 7.60715 21.4649 8.42047C21.955 9.23378 22.2588 10.1456 22.3544 11.0903C22.45 12.0351 22.3351 12.9893 22.0179 13.8843C21.7007 14.7793 21.1891 15.5929 20.5199 16.2666L15.9999 20.7866L11.4799 16.2666C10.8099 15.5995 10.2972 14.7913 9.97886 13.901C9.66056 13.0107 9.54477 12.0606 9.63992 11.12ZM25.3333 26.6666H6.66659C6.31296 26.6666 5.97383 26.8071 5.72378 27.0571C5.47373 27.3072 5.33325 27.6463 5.33325 28C5.33325 28.3536 5.47373 28.6927 5.72378 28.9428C5.97383 29.1928 6.31296 29.3333 6.66659 29.3333H25.3333C25.6869 29.3333 26.026 29.1928 26.2761 28.9428C26.5261 28.6927 26.6666 28.3536 26.6666 28C26.6666 27.6463 26.5261 27.3072 26.2761 27.0571C26.026 26.8071 25.6869 26.6666 25.3333 26.6666Z" fill="#00404E"/>
</svg>
