<svg
  width="16"
  height="16"
  viewBox="0 0 16 16"
  fill="none"
  xmlns="http://www.w3.org/2000/svg"
><path
    d="M14 6.6665C14.0875 6.66653 14.1742 6.6493 14.2551 6.6158C14.336 6.58231 14.4095 6.5332 14.4714 6.47129C14.5333 6.40938 14.5825 6.33588 14.6159 6.25498C14.6494 6.17409 14.6667 6.08739 14.6666 5.99984V3.99984C14.6667 3.85995 14.6227 3.7236 14.5409 3.61013C14.4591 3.49666 14.3437 3.41183 14.2109 3.36768L8.21092 1.36768C8.07399 1.3221 7.92597 1.3221 7.78904 1.36768L1.78904 3.36768C1.65631 3.41183 1.54085 3.49666 1.45905 3.61013C1.37725 3.7236 1.33326 3.85995 1.33331 3.99984V5.99984C1.33329 6.08739 1.35052 6.17409 1.38401 6.25498C1.41751 6.33588 1.46661 6.40938 1.52852 6.47129C1.59043 6.5332 1.66394 6.58231 1.74483 6.6158C1.82572 6.6493 1.91243 6.66653 1.99998 6.6665H2.66665V11.456C2.2778 11.593 1.94089 11.8469 1.70216 12.1831C1.46343 12.5192 1.33458 12.9209 1.33331 13.3332V14.6665C1.33329 14.7541 1.35052 14.8408 1.38401 14.9217C1.41751 15.0025 1.46661 15.076 1.52852 15.138C1.59043 15.1999 1.66394 15.249 1.74483 15.2825C1.82572 15.316 1.91243 15.3332 1.99998 15.3332H14C14.0875 15.3332 14.1742 15.316 14.2551 15.2825C14.336 15.249 14.4095 15.1999 14.4714 15.138C14.5333 15.076 14.5825 15.0025 14.6159 14.9217C14.6494 14.8408 14.6667 14.7541 14.6666 14.6665V13.3332C14.6654 12.9209 14.5365 12.5192 14.2978 12.1831C14.0591 11.8469 13.7222 11.593 13.3333 11.456V6.6665H14ZM13.3333 13.9998H2.66665V13.3332C2.66682 13.1564 2.73712 12.9869 2.8621 12.862C2.98709 12.737 3.15656 12.6667 3.33331 12.6665H12.6666C12.8434 12.6667 13.0129 12.737 13.1379 12.862C13.2628 12.9869 13.3331 13.1564 13.3333 13.3332V13.9998ZM3.99998 11.3332V6.6665H5.33331V11.3332H3.99998ZM6.66665 11.3332V6.6665H9.33331V11.3332H6.66665ZM10.6666 11.3332V6.6665H12V11.3332H10.6666ZM2.66665 5.33317V4.4803L7.99998 2.7023L13.3333 4.4803V5.33317H2.66665Z"
    fill="white"
  /></svg>
