<svg width="16" height="16" viewBox="0 0 16 16" fill="none" xmlns="http://www.w3.org/2000/svg">
<path d="M12.6667 1.3335C12.4899 1.3335 12.3203 1.40373 12.1953 1.52876C12.0703 1.65378 12 1.82335 12 2.00016V5.64016L11.3334 6.08683V2.00016C11.3334 1.82335 11.2631 1.65378 11.1381 1.52876C11.0131 1.40373 10.8435 1.3335 10.6667 1.3335C10.4899 1.3335 10.3203 1.40373 10.1953 1.52876C10.0703 1.65378 10 1.82335 10 2.00016V6.08683L9.33335 5.64016V2.00016C9.33335 1.82335 9.26312 1.65378 9.13809 1.52876C9.01307 1.40373 8.8435 1.3335 8.66669 1.3335C8.48988 1.3335 8.32031 1.40373 8.19528 1.52876C8.07026 1.65378 8.00002 1.82335 8.00002 2.00016V6.00016C8.00059 6.10997 8.02827 6.21793 8.08061 6.31446C8.13294 6.411 8.20831 6.4931 8.30002 6.5535L10 7.6935V14.0002C10 14.177 10.0703 14.3465 10.1953 14.4716C10.3203 14.5966 10.4899 14.6668 10.6667 14.6668C10.8435 14.6668 11.0131 14.5966 11.1381 14.4716C11.2631 14.3465 11.3334 14.177 11.3334 14.0002V7.6935L13.0334 6.5535C13.1251 6.4931 13.2004 6.411 13.2528 6.31446C13.3051 6.21793 13.3328 6.10997 13.3334 6.00016V2.00016C13.3334 1.82335 13.2631 1.65378 13.1381 1.52876C13.0131 1.40373 12.8435 1.3335 12.6667 1.3335ZM6.00002 1.3335C5.11597 1.3335 4.26812 1.68469 3.643 2.30981C3.01788 2.93493 2.66669 3.78277 2.66669 4.66683V8.66683C2.66669 8.84364 2.73693 9.01321 2.86195 9.13823C2.98697 9.26326 3.15654 9.3335 3.33335 9.3335H5.33335V14.0002C5.33335 14.177 5.40359 14.3465 5.52862 14.4716C5.65364 14.5966 5.82321 14.6668 6.00002 14.6668C6.17683 14.6668 6.3464 14.5966 6.47142 14.4716C6.59645 14.3465 6.66669 14.177 6.66669 14.0002V2.00016C6.66669 1.82335 6.59645 1.65378 6.47142 1.52876C6.3464 1.40373 6.17683 1.3335 6.00002 1.3335ZM5.33335 8.00016H4.00002V4.66683C3.9998 4.25306 4.12792 3.84941 4.36672 3.51151C4.60552 3.17361 4.94325 2.91809 5.33335 2.78016V8.00016Z" fill="white"/>
</svg>
