<svg id="Layer_1" data-name="Layer 1" xmlns="http://www.w3.org/2000/svg" viewBox="0 0 1956.87 772.42"><defs><style>.cls-1,.cls-2{fill:#551c11;}.cls-2{fill-rule:evenodd;}.cls-3{font-size:96.05px;fill:#561b10;font-family:Helvetica;}.cls-4{letter-spacing:-0.02em;}.cls-5{letter-spacing:-0.07em;}</style></defs><rect class="cls-1" x="13.79" y="286.98" width="559" height="15.09"/><rect class="cls-1" x="323.77" y="6.97" width="4.97" height="590.65"/><polygon class="cls-1" points="317.52 592.5 334.94 592.58 335.43 147.67 318.09 147.67 317.52 592.5"/><rect class="cls-1" x="166.31" y="220.78" width="406.48" height="15.09"/><rect class="cls-1" x="323.28" y="144.11" width="163.94" height="21.57"/><rect class="cls-1" x="166.31" y="364.75" width="404.43" height="15.01"/><rect class="cls-1" x="166.21" y="446.76" width="325.57" height="4.99"/><rect class="cls-1" x="249.79" y="521.67" width="157" height="5.04"/><path class="cls-2" d="M398.46,674.58,239.14,822.73l1.5,300.08,161.54,150.3,249.08-224.69V901.17L400.11,673Zm1.72,5.25c3.35,3.06,244.39,222.15,246,223.62v142.69c-1.65,1.5-240.71,217.08-244,220-3.27-3-154.92-144.07-156.56-145.57,0-2.15-1.43-293.49-1.5-295.69C245.76,823.45,396.84,682.89,400.18,679.83Z" transform="translate(-76.41 -673)"/><path class="cls-2" d="M165.74,890.08,76.41,967.56l101.85,95.09V879.28Zm-2.56,22.27v115.51c-16.72-15.49-55.49-51.7-64.22-59.9C108,960.08,146.69,926.58,163.18,912.35Z" transform="translate(-76.41 -673)"/><rect class="cls-1" x="246.24" y="229.41" width="7.11" height="295.31"/><rect class="cls-1" x="238.07" y="229.41" width="22.4" height="135.13"/><rect class="cls-1" x="402.73" y="372.23" width="5.12" height="151.5"/><rect class="cls-1" x="488.14" y="370.38" width="5.28" height="78.44"/><rect class="cls-1" x="477.69" y="152.84" width="15.09" height="142.42"/><polygon class="cls-1" points="319.08 157.34 402.08 235.87 412.4 224.85 329.45 146.38 319.08 157.34"/><polygon class="cls-1" points="399.67 291.08 412.83 298.39 492.84 154.5 479.7 147.19 399.67 291.08"/><polygon class="cls-1" points="480.69 288.72 489.79 300.81 575.86 235.36 566.75 223.27 480.69 288.72"/><polygon class="cls-1" points="401.87 146.54 412.55 157.21 449.31 120.41 438.65 109.75 401.87 146.54"/><path class="cls-2" d="M321.08,896.86l-91.46,70.7,97.3,81.15L414,968.55l-88.06-75.42Zm4.34,15.7c7.46,6.41,55.7,47.74,65.87,56.39-9.75,9.06-57.12,52.58-64.8,59.69-8.25-6.84-61.52-51.19-72.84-60.68C265.32,959,317.66,918.62,325.42,912.56Z" transform="translate(-76.41 -673)"/><polygon class="cls-1" points="203 327.34 212.96 338.65 293.46 267.74 283.51 256.35 203 327.34"/><polygon class="cls-1" points="202.7 267.36 288.79 337.36 298.31 325.62 212.24 255.73 202.7 267.36"/><polygon class="cls-1" points="165.52 449.47 168.99 453.09 251.01 374.08 247.53 370.43 165.52 449.47"/><path class="cls-2" d="M239.93,1047.13l85.85,80.59,78.67-79.65-3.56-3.57s-72,72.93-75.26,76.2c-3.4-3.22-82.22-77.27-82.22-77.27Z" transform="translate(-76.41 -673)"/><polygon class="cls-1" points="247.81 373.78 403.73 527.27 406.71 524.21 250.8 370.73 247.81 373.78"/><polygon class="cls-1" points="246.52 520.89 250.02 524.51 406 374.08 402.51 370.43 246.52 520.89"/><polygon class="cls-1" points="285.8 558.09 289.21 561.79 492.5 374.13 489.06 370.38 285.8 558.09"/><polygon class="cls-1" points="324.48 375.07 444.76 491.79 448.25 488.17 328.05 371.43 324.48 375.07"/><polygon class="cls-1" points="403.58 374.13 489.06 452.09 492.5 448.4 406.99 370.38 403.58 374.13"/><polygon class="cls-1" points="490 374 528.77 413.26 532.32 409.7 493.63 370.43 490 374"/><polygon class="cls-1" points="207.69 487.23 211.24 490.88 249.01 453.51 245.46 449.95 207.69 487.23"/><polygon class="cls-1" points="164.74 227.4 165.72 374.27 180.79 374.21 179.82 227.32 164.74 227.4"/><path class="cls-2" d="M473.59,756.94l1.56,211.88,15.09-.06S489,801.61,488.81,773.44c21,18.07,143.11,122.83,147.8,126.88,0,6.56-.44,145.95-.44,145.95h15.09l.49-152.89-178.3-153Z" transform="translate(-76.41 -673)"/><text class="cls-3" transform="translate(588.12 213.72)">KLAIPĖDOS MIES<tspan class="cls-4" x="806.03" y="0">T</tspan><tspan x="863.02" y="0">O </tspan><tspan x="0" y="115.26">S</tspan><tspan class="cls-5" x="64.07" y="115.26">A</tspan><tspan x="121.05" y="115.26">VI</tspan><tspan class="cls-5" x="211.8" y="115.26">V</tspan><tspan x="268.79" y="115.26">ALDYBĖS</tspan><tspan x="0" y="230.53">ETNOKU</tspan><tspan class="cls-5" x="400.25" y="230.53">L</tspan><tspan x="446.59" y="230.53">TŪROS CENTRAS</tspan></text></svg>